ply
format ascii 1.0
comment Created by Blender 2.69 (sub 0) - www.blender.org, source file: ''
element vertex 482
property float x
property float y
property float z
property float nx
property float ny
property float nz
element face 252
property list uchar uint vertex_indices
end_header
0.000000 1.349911 -0.215711 0.098017 0.000000 -0.995185
0.000000 2.144810 -0.215711 0.098017 0.000000 -0.995185
0.042083 2.144810 -0.211567 0.098017 0.000000 -0.995185
0.042083 1.349911 -0.211567 0.290285 0.000000 -0.956940
0.042083 2.144810 -0.211567 0.290285 0.000000 -0.956940
0.082549 2.144810 -0.199291 0.290285 0.000000 -0.956940
0.082549 1.349911 -0.199291 0.471397 0.000000 -0.881921
0.082549 2.144810 -0.199291 0.471397 0.000000 -0.881921
0.119843 2.144810 -0.179357 0.471397 0.000000 -0.881921
0.119843 1.349911 -0.179357 0.634393 0.000000 -0.773011
0.119843 2.144810 -0.179357 0.634393 0.000000 -0.773011
0.152531 2.144810 -0.152531 0.634393 0.000000 -0.773011
0.152531 1.349911 -0.152531 0.773011 0.000000 -0.634393
0.152531 2.144810 -0.152531 0.773011 0.000000 -0.634393
0.179357 1.349911 -0.119843 0.773011 0.000000 -0.634393
0.179357 1.349911 -0.119843 0.881921 0.000000 -0.471397
0.179357 2.144810 -0.119843 0.881921 0.000000 -0.471397
0.199291 1.349911 -0.082549 0.881921 0.000000 -0.471397
0.199291 1.349911 -0.082549 0.956941 0.000000 -0.290284
0.199291 2.144810 -0.082549 0.956941 0.000000 -0.290284
0.211566 2.144810 -0.042083 0.956941 0.000000 -0.290284
0.211566 1.349911 -0.042083 0.995185 0.000000 -0.098018
0.211566 2.144810 -0.042083 0.995185 0.000000 -0.098018
0.215711 2.144810 -0.000000 0.995185 0.000000 -0.098018
0.215711 1.349911 -0.000000 0.995185 0.000000 0.098018
0.215711 2.144810 -0.000000 0.995185 0.000000 0.098018
0.211566 2.144810 0.042083 0.995185 0.000000 0.098018
0.211566 1.349911 0.042083 0.956941 0.000000 0.290283
0.211566 2.144810 0.042083 0.956941 0.000000 0.290283
0.199291 2.144810 0.082549 0.956941 0.000000 0.290283
0.199291 1.349911 0.082549 0.881921 0.000000 0.471397
0.199291 2.144810 0.082549 0.881921 0.000000 0.471397
0.179357 2.144810 0.119843 0.881921 0.000000 0.471397
0.179357 1.349911 0.119843 0.773011 0.000000 0.634393
0.179357 2.144810 0.119843 0.773011 0.000000 0.634393
0.152531 2.144810 0.152531 0.773011 0.000000 0.634393
0.152531 1.349911 0.152531 0.634393 0.000000 0.773011
0.152531 2.144810 0.152531 0.634393 0.000000 0.773011
0.119843 2.144810 0.179357 0.634393 0.000000 0.773011
0.119843 1.349911 0.179357 0.471397 0.000000 0.881921
0.119843 2.144810 0.179357 0.471397 0.000000 0.881921
0.082549 1.349911 0.199291 0.471397 0.000000 0.881921
0.082549 1.349911 0.199291 0.290284 0.000000 0.956940
0.082549 2.144810 0.199291 0.290284 0.000000 0.956940
0.042083 2.144810 0.211566 0.290284 0.000000 0.956940
0.042083 1.349911 0.211566 0.098016 0.000000 0.995185
0.042083 2.144810 0.211566 0.098016 0.000000 0.995185
-0.000000 2.144810 0.215711 0.098016 0.000000 0.995185
-0.000000 1.349911 0.215711 -0.098017 0.000000 0.995185
-0.000000 2.144810 0.215711 -0.098017 0.000000 0.995185
-0.042083 1.349911 0.211566 -0.098017 0.000000 0.995185
-0.042083 1.349911 0.211566 -0.290286 0.000000 0.956940
-0.042083 2.144810 0.211566 -0.290286 0.000000 0.956940
-0.082549 2.144810 0.199291 -0.290286 0.000000 0.956940
-0.082549 1.349911 0.199291 -0.471397 0.000000 0.881921
-0.082549 2.144810 0.199291 -0.471397 0.000000 0.881921
-0.119843 2.144810 0.179357 -0.471397 0.000000 0.881921
-0.119843 1.349911 0.179357 -0.634393 0.000000 0.773011
-0.119843 2.144810 0.179357 -0.634393 0.000000 0.773011
-0.152531 2.144810 0.152531 -0.634393 0.000000 0.773011
-0.152531 1.349911 0.152531 -0.773011 0.000000 0.634393
-0.152531 2.144810 0.152531 -0.773011 0.000000 0.634393
-0.179357 1.349911 0.119843 -0.773011 0.000000 0.634393
-0.179357 1.349911 0.119843 -0.881922 0.000000 0.471396
-0.179357 2.144810 0.119843 -0.881922 0.000000 0.471396
-0.199291 2.144810 0.082549 -0.881922 0.000000 0.471396
-0.199291 1.349911 0.082549 -0.956941 0.000000 0.290283
-0.199291 2.144810 0.082549 -0.956941 0.000000 0.290283
-0.211566 2.144810 0.042083 -0.956941 0.000000 0.290283
-0.211566 1.349911 0.042083 -0.995185 0.000000 0.098016
-0.211566 2.144810 0.042083 -0.995185 0.000000 0.098016
-0.215711 1.349911 -0.000000 -0.995185 0.000000 0.098016
-0.215711 1.349911 -0.000000 -0.995185 -0.000000 -0.098019
-0.215711 2.144810 -0.000000 -0.995185 -0.000000 -0.098019
-0.211566 2.144810 -0.042083 -0.995185 -0.000000 -0.098019
-0.211566 1.349911 -0.042083 -0.956940 -0.000000 -0.290286
-0.211566 2.144810 -0.042083 -0.956940 -0.000000 -0.290286
-0.199291 1.349911 -0.082549 -0.956940 -0.000000 -0.290286
-0.199291 1.349911 -0.082549 -0.881921 -0.000000 -0.471397
-0.199291 2.144810 -0.082549 -0.881921 -0.000000 -0.471397
-0.179357 2.144810 -0.119843 -0.881921 -0.000000 -0.471397
-0.179357 1.349911 -0.119843 -0.773010 -0.000000 -0.634394
-0.179357 2.144810 -0.119843 -0.773010 -0.000000 -0.634394
-0.152531 2.144810 -0.152531 -0.773010 -0.000000 -0.634394
-0.152531 1.349911 -0.152531 -0.634392 -0.000000 -0.773012
-0.152531 2.144810 -0.152531 -0.634392 -0.000000 -0.773012
-0.119842 1.349911 -0.179358 -0.634392 -0.000000 -0.773012
-0.119842 1.349911 -0.179358 -0.471396 -0.000000 -0.881922
-0.119842 2.144810 -0.179358 -0.471396 -0.000000 -0.881922
-0.082549 2.144810 -0.199291 -0.471396 -0.000000 -0.881922
0.042083 2.144810 -0.211567 -0.000000 1.000000 0.000000
0.000000 2.144810 -0.215711 -0.000000 1.000000 0.000000
0.082549 2.144810 -0.199291 -0.000000 1.000000 0.000000
-0.042083 1.349911 -0.211567 -0.098016 -0.000000 -0.995185
-0.042083 2.144810 -0.211567 -0.098016 -0.000000 -0.995185
0.000000 2.144810 -0.215711 -0.098016 -0.000000 -0.995185
-0.082549 1.349911 -0.199291 -0.290283 -0.000000 -0.956941
-0.082549 2.144810 -0.199291 -0.290283 -0.000000 -0.956941
-0.042083 1.349911 -0.211567 -0.290283 -0.000000 -0.956941
0.000000 -1.570709 -0.472273 0.000000 -1.000000 -0.000000
0.092136 -1.570709 -0.463199 0.000000 -1.000000 -0.000000
-0.092135 -1.570709 -0.463199 0.000000 -1.000000 -0.000000
0.000000 -1.570709 -0.472273 0.098017 0.000000 -0.995185
0.000000 0.914819 -0.472273 0.098017 0.000000 -0.995185
0.092136 -1.570709 -0.463199 0.098017 0.000000 -0.995185
0.092136 -1.570709 -0.463199 0.290285 0.000000 -0.956940
0.092136 0.914819 -0.463199 0.290285 0.000000 -0.956940
0.180731 -1.570709 -0.436323 0.290285 0.000000 -0.956940
0.180731 -1.570709 -0.436323 0.471397 0.000000 -0.881921
0.180731 0.914819 -0.436323 0.471397 0.000000 -0.881921
0.262381 -1.570709 -0.392681 0.471397 0.000000 -0.881921
0.262381 -1.570709 -0.392681 0.634393 0.000000 -0.773010
0.262381 0.914819 -0.392681 0.634393 0.000000 -0.773010
0.333948 0.914819 -0.333948 0.634393 0.000000 -0.773010
0.333948 -1.570709 -0.333948 0.773010 0.000000 -0.634393
0.333948 0.914819 -0.333948 0.773010 0.000000 -0.634393
0.392681 -1.570709 -0.262381 0.773010 0.000000 -0.634393
0.392681 -1.570709 -0.262381 0.881922 0.000000 -0.471396
0.392681 0.914819 -0.262381 0.881922 0.000000 -0.471396
0.436323 -1.570709 -0.180731 0.881922 0.000000 -0.471396
0.436323 -1.570709 -0.180731 0.956940 0.000000 -0.290285
0.436323 0.914819 -0.180731 0.956940 0.000000 -0.290285
0.463199 -1.570709 -0.092136 0.956940 0.000000 -0.290285
0.463199 -1.570709 -0.092136 0.995185 0.000000 -0.098017
0.463199 0.914819 -0.092136 0.995185 0.000000 -0.098017
0.472273 0.914819 -0.000000 0.995185 0.000000 -0.098017
0.472273 -1.570709 -0.000000 0.995185 0.000000 0.098017
0.472273 0.914819 -0.000000 0.995185 0.000000 0.098017
0.463199 -1.570709 0.092136 0.995185 0.000000 0.098017
0.463199 -1.570709 0.092136 0.956940 0.000000 0.290285
0.463199 0.914819 0.092136 0.956940 0.000000 0.290285
0.436323 0.914819 0.180731 0.956940 0.000000 0.290285
0.436323 -1.570709 0.180731 0.881922 0.000000 0.471396
0.436323 0.914819 0.180731 0.881922 0.000000 0.471396
0.392681 0.914819 0.262381 0.881922 0.000000 0.471396
0.392681 -1.570709 0.262381 0.773010 0.000000 0.634393
0.392681 0.914819 0.262381 0.773010 0.000000 0.634393
0.333948 0.914819 0.333948 0.773010 0.000000 0.634393
0.333948 -1.570709 0.333948 0.634393 0.000000 0.773010
0.333948 0.914819 0.333948 0.634393 0.000000 0.773010
0.262381 -1.570709 0.392681 0.634393 0.000000 0.773010
0.262381 -1.570709 0.392681 0.471397 0.000000 0.881921
0.262381 0.914819 0.392681 0.471397 0.000000 0.881921
0.180731 0.914819 0.436323 0.471397 0.000000 0.881921
0.180731 -1.570709 0.436323 0.290284 0.000000 0.956940
0.180731 0.914819 0.436323 0.290284 0.000000 0.956940
0.092136 0.914819 0.463199 0.290284 0.000000 0.956940
0.092136 -1.570709 0.463199 0.098017 0.000000 0.995185
0.092136 0.914819 0.463199 0.098017 0.000000 0.995185
-0.000000 0.914819 0.472273 0.098017 0.000000 0.995185
-0.000000 -1.570709 0.472273 -0.098017 0.000000 0.995185
-0.000000 0.914819 0.472273 -0.098017 0.000000 0.995185
-0.092136 -1.570709 0.463198 -0.098017 0.000000 0.995185
-0.092136 -1.570709 0.463198 -0.290285 0.000000 0.956940
-0.092136 0.914819 0.463198 -0.290285 0.000000 0.956940
-0.180731 0.914819 0.436323 -0.290285 0.000000 0.956940
-0.180731 -1.570709 0.436323 -0.471397 0.000000 0.881921
-0.180731 0.914819 0.436323 -0.471397 0.000000 0.881921
-0.262381 0.914819 0.392681 -0.471397 0.000000 0.881921
-0.262381 -1.570709 0.392681 -0.634393 0.000000 0.773010
-0.262381 0.914819 0.392681 -0.634393 0.000000 0.773010
-0.333948 0.914819 0.333947 -0.634393 0.000000 0.773010
-0.333948 -1.570709 0.333947 -0.773011 0.000000 0.634393
-0.333948 0.914819 0.333947 -0.773011 0.000000 0.634393
-0.392681 0.914819 0.262381 -0.773011 0.000000 0.634393
-0.392681 -1.570709 0.262381 -0.881922 0.000000 0.471396
-0.392681 0.914819 0.262381 -0.881922 0.000000 0.471396
-0.436324 0.914819 0.180731 -0.881922 0.000000 0.471396
-0.436324 -1.570709 0.180731 -0.956941 0.000000 0.290284
-0.436324 0.914819 0.180731 -0.956941 0.000000 0.290284
-0.463199 -1.570709 0.092136 -0.956941 0.000000 0.290284
-0.463199 -1.570709 0.092136 -0.995185 0.000000 0.098017
-0.463199 0.914819 0.092136 -0.995185 0.000000 0.098017
-0.472273 0.914819 -0.000000 -0.995185 0.000000 0.098017
-0.472273 -1.570709 -0.000000 -0.995185 -0.000000 -0.098018
-0.472273 0.914819 -0.000000 -0.995185 -0.000000 -0.098018
-0.463198 0.914819 -0.092136 -0.995185 -0.000000 -0.098018
-0.463198 -1.570709 -0.092136 -0.956940 -0.000000 -0.290286
-0.463198 0.914819 -0.092136 -0.956940 -0.000000 -0.290286
-0.436323 0.914819 -0.180732 -0.956940 -0.000000 -0.290286
-0.436323 -1.570709 -0.180732 -0.881921 -0.000000 -0.471398
-0.436323 0.914819 -0.180732 -0.881921 -0.000000 -0.471398
-0.392680 0.914819 -0.262381 -0.881921 -0.000000 -0.471398
-0.392680 -1.570709 -0.262381 -0.773009 -0.000000 -0.634395
-0.392680 0.914819 -0.262381 -0.773009 -0.000000 -0.634395
-0.333947 -1.570709 -0.333948 -0.773009 -0.000000 -0.634395
-0.333947 -1.570709 -0.333948 -0.634392 -0.000000 -0.773011
-0.333947 0.914819 -0.333948 -0.634392 -0.000000 -0.773011
-0.262380 -1.570709 -0.392681 -0.634392 -0.000000 -0.773011
-0.262380 -1.570709 -0.392681 -0.471396 -0.000000 -0.881922
-0.262380 0.914819 -0.392681 -0.471396 -0.000000 -0.881922
-0.180730 0.914819 -0.436324 -0.471396 -0.000000 -0.881922
-0.092135 -1.570709 -0.463199 -0.098017 -0.000000 -0.995185
-0.092135 0.914819 -0.463199 -0.098017 -0.000000 -0.995185
0.000000 0.914819 -0.472273 -0.098017 -0.000000 -0.995185
-0.180730 -1.570709 -0.436324 -0.290283 -0.000000 -0.956941
-0.180730 0.914819 -0.436324 -0.290283 -0.000000 -0.956941
-0.092135 0.914819 -0.463199 -0.290283 -0.000000 -0.956941
0.000000 0.914819 -0.472273 0.084536 0.506121 -0.858309
0.000000 1.349911 -0.215711 0.084536 0.506121 -0.858309
0.042083 1.349911 -0.211567 0.084536 0.506121 -0.858309
0.092136 0.914819 -0.463199 0.250360 0.506121 -0.825325
0.042083 1.349911 -0.211567 0.250360 0.506121 -0.825325
0.082549 1.349911 -0.199291 0.250360 0.506121 -0.825325
0.180731 0.914819 -0.436323 0.406562 0.506121 -0.760624
0.082549 1.349911 -0.199291 0.406562 0.506121 -0.760624
0.262381 0.914819 -0.392681 0.406562 0.506121 -0.760624
0.262381 0.914819 -0.392681 0.547140 0.506121 -0.666693
0.119843 1.349911 -0.179357 0.547140 0.506121 -0.666693
0.152531 1.349911 -0.152531 0.547140 0.506121 -0.666693
0.333948 0.914819 -0.333948 0.666692 0.506121 -0.547140
0.152531 1.349911 -0.152531 0.666692 0.506121 -0.547140
0.392681 0.914819 -0.262381 0.666692 0.506121 -0.547140
0.392681 0.914819 -0.262381 0.760624 0.506121 -0.406562
0.179357 1.349911 -0.119843 0.760624 0.506121 -0.406562
0.199291 1.349911 -0.082549 0.760624 0.506121 -0.406562
0.436323 0.914819 -0.180731 0.825325 0.506121 -0.250360
0.199291 1.349911 -0.082549 0.825325 0.506121 -0.250360
0.463199 0.914819 -0.092136 0.825325 0.506121 -0.250360
0.463199 0.914819 -0.092136 0.858309 0.506121 -0.084537
0.211566 1.349911 -0.042083 0.858309 0.506121 -0.084537
0.215711 1.349911 -0.000000 0.858309 0.506121 -0.084537
0.472273 0.914819 -0.000000 0.858309 0.506121 0.084537
0.215711 1.349911 -0.000000 0.858309 0.506121 0.084537
0.211566 1.349911 0.042083 0.858309 0.506121 0.084537
0.463199 0.914819 0.092136 0.825325 0.506121 0.250358
0.211566 1.349911 0.042083 0.825325 0.506121 0.250358
0.199291 1.349911 0.082549 0.825325 0.506121 0.250358
0.436323 0.914819 0.180731 0.760624 0.506121 0.406562
0.199291 1.349911 0.082549 0.760624 0.506121 0.406562
0.179357 1.349911 0.119843 0.760624 0.506121 0.406562
0.392681 0.914819 0.262381 0.666693 0.506121 0.547140
0.179357 1.349911 0.119843 0.666693 0.506121 0.547140
0.152531 1.349911 0.152531 0.666693 0.506121 0.547140
0.333948 0.914819 0.333948 0.547140 0.506121 0.666693
0.152531 1.349911 0.152531 0.547140 0.506121 0.666693
0.119843 1.349911 0.179357 0.547140 0.506121 0.666693
0.262381 0.914819 0.392681 0.406562 0.506121 0.760624
0.119843 1.349911 0.179357 0.406562 0.506121 0.760624
0.082549 1.349911 0.199291 0.406562 0.506121 0.760624
0.180731 0.914819 0.436323 0.250359 0.506121 0.825325
0.082549 1.349911 0.199291 0.250359 0.506121 0.825325
0.042083 1.349911 0.211566 0.250359 0.506121 0.825325
0.092136 0.914819 0.463199 0.084536 0.506121 0.858309
0.042083 1.349911 0.211566 0.084536 0.506121 0.858309
-0.000000 0.914819 0.472273 0.084536 0.506121 0.858309
-0.000000 0.914819 0.472273 -0.084536 0.506121 0.858309
-0.000000 1.349911 0.215711 -0.084536 0.506121 0.858309
-0.092136 0.914819 0.463198 -0.084536 0.506121 0.858309
-0.092136 0.914819 0.463198 -0.250361 0.506121 0.825325
-0.042083 1.349911 0.211566 -0.250361 0.506121 0.825325
-0.082549 1.349911 0.199291 -0.250361 0.506121 0.825325
-0.180731 0.914819 0.436323 -0.406562 0.506121 0.760624
-0.082549 1.349911 0.199291 -0.406562 0.506121 0.760624
-0.262381 0.914819 0.392681 -0.406562 0.506121 0.760624
-0.262381 0.914819 0.392681 -0.547140 0.506121 0.666692
-0.119843 1.349911 0.179357 -0.547140 0.506121 0.666692
-0.152531 1.349911 0.152531 -0.547140 0.506121 0.666692
-0.333948 0.914819 0.333947 -0.666693 0.506121 0.547140
-0.152531 1.349911 0.152531 -0.666693 0.506121 0.547140
-0.179357 1.349911 0.119843 -0.666693 0.506121 0.547140
-0.392681 0.914819 0.262381 -0.760624 0.506121 0.406561
-0.179357 1.349911 0.119843 -0.760624 0.506121 0.406561
-0.199291 1.349911 0.082549 -0.760624 0.506121 0.406561
-0.436324 0.914819 0.180731 -0.825325 0.506121 0.250358
-0.199291 1.349911 0.082549 -0.825325 0.506121 0.250358
-0.211566 1.349911 0.042083 -0.825325 0.506121 0.250358
-0.463199 0.914819 0.092136 -0.858309 0.506121 0.084535
-0.211566 1.349911 0.042083 -0.858309 0.506121 0.084535
-0.215711 1.349911 -0.000000 -0.858309 0.506121 0.084535
-0.472273 0.914819 -0.000000 -0.858309 0.506121 -0.084537
-0.215711 1.349911 -0.000000 -0.858309 0.506121 -0.084537
-0.463198 0.914819 -0.092136 -0.858309 0.506121 -0.084537
-0.463198 0.914819 -0.092136 -0.825325 0.506121 -0.250360
-0.211566 1.349911 -0.042083 -0.825325 0.506121 -0.250360
-0.199291 1.349911 -0.082549 -0.825325 0.506121 -0.250360
-0.436323 0.914819 -0.180732 -0.760624 0.506121 -0.406563
-0.199291 1.349911 -0.082549 -0.760624 0.506121 -0.406563
-0.392680 0.914819 -0.262381 -0.760624 0.506121 -0.406563
-0.392680 0.914819 -0.262381 -0.666692 0.506121 -0.547141
-0.179357 1.349911 -0.119843 -0.666692 0.506121 -0.547141
-0.333947 0.914819 -0.333948 -0.666692 0.506121 -0.547141
-0.333947 0.914819 -0.333948 -0.547140 0.506121 -0.666693
-0.152531 1.349911 -0.152531 -0.547140 0.506121 -0.666693
-0.262380 0.914819 -0.392681 -0.547140 0.506121 -0.666693
-0.262380 0.914819 -0.392681 -0.406561 0.506121 -0.760624
-0.119842 1.349911 -0.179358 -0.406561 0.506121 -0.760624
-0.082549 1.349911 -0.199291 -0.406561 0.506121 -0.760624
-0.092135 0.914819 -0.463199 -0.084535 0.506121 -0.858310
-0.042083 1.349911 -0.211567 -0.084535 0.506121 -0.858310
0.000000 1.349911 -0.215711 -0.084535 0.506121 -0.858310
-0.180730 0.914819 -0.436324 -0.250359 0.506121 -0.825325
-0.082549 1.349911 -0.199291 -0.250359 0.506121 -0.825325
-0.042083 1.349911 -0.211567 -0.250359 0.506121 -0.825325
0.042083 1.349911 -0.211567 0.098017 0.000000 -0.995185
0.082549 1.349911 -0.199291 0.290285 0.000000 -0.956940
0.119843 1.349911 -0.179357 0.471397 0.000000 -0.881921
0.152531 1.349911 -0.152531 0.634393 0.000000 -0.773011
0.199291 1.349911 -0.082549 0.825325 0.506121 -0.250359
0.211566 1.349911 -0.042083 0.825325 0.506121 -0.250359
0.463199 0.914819 -0.092136 0.825325 0.506121 -0.250359
0.262381 -1.570709 -0.392681 0.000000 -1.000000 0.000000
0.333948 -1.570709 -0.333948 0.000000 -1.000000 0.000000
0.392681 -1.570709 -0.262381 0.000000 -1.000000 0.000000
0.211566 1.349911 -0.042083 0.956941 0.000000 -0.290284
0.215711 1.349911 -0.000000 0.995185 0.000000 -0.098018
0.211566 1.349911 0.042083 0.995185 0.000000 0.098018
0.199291 1.349911 0.082549 0.956941 0.000000 0.290283
0.179357 1.349911 0.119843 0.881921 0.000000 0.471397
0.152531 1.349911 0.152531 0.773011 0.000000 0.634393
0.119843 1.349911 0.179357 0.634393 0.000000 0.773011
-0.333947 -1.570709 -0.333948 0.000000 -1.000000 0.000000
-0.333948 -1.570709 0.333947 0.000000 -1.000000 0.000000
-0.436323 -1.570709 -0.180732 0.000000 -1.000000 0.000000
0.042083 1.349911 0.211566 0.290284 0.000000 0.956940
-0.000000 1.349911 0.215711 0.098016 0.000000 0.995185
0.152531 1.349911 -0.152531 0.666693 0.506121 -0.547140
0.179357 1.349911 -0.119843 0.666693 0.506121 -0.547140
0.392681 0.914819 -0.262381 0.666693 0.506121 -0.547140
-0.082549 1.349911 0.199291 -0.290286 0.000000 0.956940
-0.119843 1.349911 0.179357 -0.471397 0.000000 0.881921
-0.152531 1.349911 0.152531 -0.634393 0.000000 0.773011
0.199291 2.144810 -0.082549 0.881921 0.000000 -0.471397
-0.199291 1.349911 0.082549 -0.881922 0.000000 0.471396
-0.211566 1.349911 0.042083 -0.956941 0.000000 0.290283
0.092136 0.914819 -0.463199 0.098017 0.000000 -0.995185
-0.211566 1.349911 -0.042083 -0.995185 0.000000 -0.098019
0.262381 0.914819 -0.392681 0.471397 0.000000 -0.881921
-0.179357 1.349911 -0.119843 -0.881921 0.000000 -0.471397
-0.152531 1.349911 -0.152531 -0.773010 0.000000 -0.634394
-0.211566 1.349911 -0.042083 -0.858309 0.506121 -0.084537
-0.082549 1.349911 -0.199291 -0.471396 0.000000 -0.881922
-0.119842 2.144810 -0.179358 -0.000000 1.000000 0.000000
-0.082549 2.144810 -0.199291 0.000000 1.000000 0.000000
-0.199291 2.144810 0.082549 0.000000 1.000000 0.000000
-0.179357 2.144810 0.119843 0.000000 1.000000 0.000000
-0.119843 2.144810 0.179357 0.000000 1.000000 0.000000
-0.211566 2.144810 -0.042083 -0.000000 1.000000 -0.000000
-0.119842 2.144810 -0.179358 -0.634392 0.000000 -0.773012
-0.199291 2.144810 -0.082549 0.000000 1.000000 0.000000
-0.211566 2.144810 0.042083 0.000000 1.000000 0.000000
0.119843 1.349911 -0.179357 0.406562 0.506121 -0.760624
-0.472273 -1.570709 -0.000000 -0.000000 -1.000000 0.000000
-0.392681 -1.570709 0.262381 -0.000000 -1.000000 0.000000
0.082549 2.144810 0.199291 0.000000 1.000000 0.000000
-0.000000 2.144810 0.215711 0.000000 1.000000 0.000000
0.042083 2.144810 0.211566 0.000000 1.000000 0.000000
0.119843 2.144810 0.179357 0.000000 1.000000 0.000000
-0.042083 2.144810 0.211566 0.000000 1.000000 -0.000000
-0.082549 2.144810 0.199291 0.000000 1.000000 -0.000000
0.211566 2.144810 0.042083 0.000000 1.000000 0.000000
0.179357 2.144810 0.119843 0.000000 1.000000 0.000000
0.199291 2.144810 0.082549 0.000000 1.000000 0.000000
-0.042083 2.144810 -0.211567 0.000000 1.000000 0.000000
0.119843 2.144810 -0.179357 -0.000000 1.000000 0.000000
0.211566 2.144810 -0.042083 -0.000000 1.000000 0.000000
0.180731 0.914819 -0.436323 0.290285 0.000000 -0.956940
0.215711 2.144810 -0.000000 0.000000 1.000000 0.000000
-0.179357 2.144810 0.119843 -0.773011 0.000000 0.634393
0.152531 2.144810 -0.152531 -0.000000 1.000000 0.000000
0.179357 2.144810 -0.119843 -0.000000 1.000000 0.000000
0.199291 2.144810 -0.082549 -0.000000 1.000000 0.000000
0.000000 1.349911 -0.215711 -0.098016 0.000000 -0.995185
0.262381 -1.570709 0.392681 0.000000 -1.000000 0.000000
0.180731 -1.570709 0.436323 0.000000 -1.000000 0.000000
0.092136 -1.570709 0.463199 0.000000 -1.000000 0.000000
0.152531 2.144810 0.152531 0.000000 1.000000 0.000000
-0.152531 2.144810 -0.152531 0.000000 1.000000 0.000000
0.436323 -1.570709 -0.180731 0.000000 -1.000000 -0.000000
0.463199 -1.570709 -0.092136 0.000000 -1.000000 -0.000000
0.472273 -1.570709 -0.000000 0.000000 -1.000000 -0.000000
0.463199 -1.570709 0.092136 0.000000 -1.000000 0.000000
0.392681 -1.570709 0.262381 0.000000 -1.000000 -0.000000
-0.042083 2.144810 0.211566 -0.098017 0.000000 0.995185
0.333948 -1.570709 0.333948 0.000000 -1.000000 0.000000
-0.463198 -1.570709 -0.092136 0.000000 -1.000000 0.000000
-0.092136 -1.570709 0.463198 0.000000 -1.000000 -0.000000
-0.000000 -1.570709 0.472273 0.000000 -1.000000 -0.000000
-0.179357 2.144810 -0.119843 0.000000 1.000000 0.000000
-0.262380 0.914819 -0.392681 -0.634392 0.000000 -0.773011
-0.180731 -1.570709 0.436323 0.000000 -1.000000 -0.000000
-0.262381 -1.570709 0.392681 0.000000 -1.000000 -0.000000
-0.215711 2.144810 -0.000000 0.000000 1.000000 0.000000
-0.180730 -1.570709 -0.436324 -0.000000 -1.000000 -0.000000
-0.262380 -1.570709 -0.392681 -0.000000 -1.000000 -0.000000
-0.463199 -1.570709 0.092136 0.000000 -1.000000 -0.000000
-0.436324 -1.570709 0.180731 0.000000 -1.000000 -0.000000
-0.042083 2.144810 -0.211567 -0.290283 0.000000 -0.956941
-0.392680 -1.570709 -0.262381 -0.000000 -1.000000 -0.000000
-0.152531 2.144810 0.152531 0.000000 1.000000 0.000000
-0.199291 2.144810 -0.082549 -0.956940 0.000000 -0.290286
0.392681 0.914819 -0.262381 0.773010 0.000000 -0.634393
0.082549 2.144810 0.199291 0.471397 -0.000000 0.881921
0.333948 -1.570709 -0.333948 0.634393 0.000000 -0.773010
-0.333947 0.914819 -0.333948 -0.773009 0.000000 -0.634395
0.436323 0.914819 -0.180731 0.881922 0.000000 -0.471396
0.472273 -1.570709 -0.000000 0.995185 0.000000 -0.098017
-0.463199 0.914819 0.092136 -0.956941 0.000000 0.290284
0.436323 -1.570709 0.180731 0.956940 0.000000 0.290285
0.392681 -1.570709 0.262381 0.881922 0.000000 0.471396
0.333948 -1.570709 0.333948 0.773010 0.000000 0.634393
-0.215711 2.144810 -0.000000 -0.995185 0.000000 0.098016
0.180731 -1.570709 0.436323 0.471397 0.000000 0.881921
0.092136 -1.570709 0.463199 0.290284 0.000000 0.956940
-0.000000 -1.570709 0.472273 0.098017 0.000000 0.995185
0.463199 0.914819 0.092136 0.995185 -0.000000 0.098017
-0.180731 -1.570709 0.436323 -0.290285 0.000000 0.956940
-0.262381 -1.570709 0.392681 -0.471397 0.000000 0.881921
-0.333948 -1.570709 0.333947 -0.634393 0.000000 0.773010
-0.392681 -1.570709 0.262381 -0.773011 0.000000 0.634393
-0.436324 -1.570709 0.180731 -0.881922 0.000000 0.471396
-0.472273 -1.570709 -0.000000 -0.995185 0.000000 0.098017
-0.463198 -1.570709 -0.092136 -0.995185 0.000000 -0.098018
-0.436323 -1.570709 -0.180732 -0.956940 0.000000 -0.290286
-0.392680 -1.570709 -0.262381 -0.881921 0.000000 -0.471398
-0.092136 0.914819 0.463198 -0.098017 0.000000 0.995185
0.463199 0.914819 -0.092136 0.956940 0.000000 -0.290285
-0.180730 -1.570709 -0.436324 -0.471396 0.000000 -0.881922
0.000000 -1.570709 -0.472273 -0.098017 0.000000 -0.995185
-0.092135 -1.570709 -0.463199 -0.290283 0.000000 -0.956941
0.092136 0.914819 -0.463199 0.084536 0.506121 -0.858309
0.180731 0.914819 -0.436323 0.250360 0.506121 -0.825325
0.179357 2.144810 -0.119843 0.773011 0.000000 -0.634393
0.333948 0.914819 -0.333948 0.547141 0.506121 -0.666692
0.262381 0.914819 -0.392681 0.547141 0.506121 -0.666692
0.152531 1.349911 -0.152531 0.547141 0.506121 -0.666692
0.180731 -1.570709 -0.436323 0.000000 -1.000000 0.000000
0.436323 0.914819 -0.180731 0.760624 0.506121 -0.406562
-0.199291 1.349911 -0.082549 -0.760624 0.506121 -0.406562
-0.179357 1.349911 -0.119843 -0.760624 0.506121 -0.406562
-0.392680 0.914819 -0.262381 -0.760624 0.506121 -0.406562
0.472273 0.914819 -0.000000 0.858309 0.506121 -0.084536
0.463199 0.914819 -0.092136 0.858309 0.506121 -0.084536
0.215711 1.349911 -0.000000 0.858309 0.506121 -0.084536
0.463199 0.914819 0.092136 0.858309 0.506121 0.084536
0.472273 0.914819 -0.000000 0.858309 0.506121 0.084536
0.211566 1.349911 0.042083 0.858309 0.506121 0.084536
0.436323 0.914819 0.180731 0.825325 0.506121 0.250360
0.463199 0.914819 0.092136 0.825325 0.506121 0.250360
0.199291 1.349911 0.082549 0.825325 0.506121 0.250360
0.392681 0.914819 0.262381 0.760624 0.506121 0.406562
0.333948 0.914819 0.333948 0.666692 0.506121 0.547141
0.392681 0.914819 0.262381 0.666692 0.506121 0.547141
0.152531 1.349911 0.152531 0.666692 0.506121 0.547141
0.262381 0.914819 0.392681 0.547141 0.506121 0.666692
0.333948 0.914819 0.333948 0.547141 0.506121 0.666692
0.119843 1.349911 0.179357 0.547141 0.506121 0.666692
0.180731 0.914819 0.436323 0.406562 0.506121 0.760624
0.092136 0.914819 0.463199 0.250359 0.506121 0.825325
-0.119843 1.349911 0.179357 -0.406562 0.506121 0.760624
-0.152531 1.349911 -0.152531 -0.547139 0.506121 -0.666694
-0.119842 1.349911 -0.179358 -0.547139 0.506121 -0.666694
-0.262380 0.914819 -0.392681 -0.547139 0.506121 -0.666694
-0.180731 0.914819 0.436323 -0.250360 0.506121 0.825325
-0.092136 0.914819 0.463198 -0.250360 0.506121 0.825325
-0.082549 1.349911 0.199291 -0.250360 0.506121 0.825325
-0.042083 1.349911 0.211566 -0.084536 0.506121 0.858309
-0.333948 0.914819 0.333947 -0.547140 0.506121 0.666692
-0.392681 0.914819 0.262381 -0.666693 0.506121 0.547140
-0.436324 0.914819 0.180731 -0.760624 0.506121 0.406561
-0.463199 0.914819 0.092136 -0.825325 0.506121 0.250359
-0.436324 0.914819 0.180731 -0.825325 0.506121 0.250359
-0.211566 1.349911 0.042083 -0.825325 0.506121 0.250359
-0.472273 0.914819 -0.000000 -0.858309 0.506121 0.084536
-0.463199 0.914819 0.092136 -0.858309 0.506121 0.084536
-0.215711 1.349911 -0.000000 -0.858309 0.506121 0.084536
0.262381 0.914819 0.392681 0.634393 -0.000000 0.773010
-0.436323 0.914819 -0.180732 -0.825325 0.506121 -0.250361
-0.463198 0.914819 -0.092136 -0.825325 0.506121 -0.250361
-0.199291 1.349911 -0.082549 -0.825325 0.506121 -0.250361
-0.152531 1.349911 -0.152531 -0.666692 0.506121 -0.547141
0.042083 1.349911 0.211566 0.084535 0.506121 0.858309
-0.000000 1.349911 0.215711 0.084535 0.506121 0.858309
-0.000000 0.914819 0.472273 0.084535 0.506121 0.858309
0.436323 -1.570709 0.180731 0.000000 -1.000000 0.000000
-0.180730 0.914819 -0.436324 -0.406561 0.506121 -0.760624
0.000000 0.914819 -0.472273 -0.084536 0.506121 -0.858309
-0.092135 0.914819 -0.463199 -0.084536 0.506121 -0.858309
0.000000 1.349911 -0.215711 -0.084536 0.506121 -0.858309
-0.092135 0.914819 -0.463199 -0.250358 0.506121 -0.825326
-0.180730 0.914819 -0.436324 -0.250358 0.506121 -0.825326
-0.042083 1.349911 -0.211567 -0.250358 0.506121 -0.825326
3 0 1 2
3 3 4 5
3 6 7 8
3 9 10 11
3 12 13 14
3 15 16 17
3 18 19 20
3 21 22 23
3 24 25 26
3 27 28 29
3 30 31 32
3 33 34 35
3 36 37 38
3 39 40 41
3 42 43 44
3 45 46 47
3 48 49 50
3 51 52 53
3 54 55 56
3 57 58 59
3 60 61 62
3 63 64 65
3 66 67 68
3 69 70 71
3 72 73 74
3 75 76 77
3 78 79 80
3 81 82 83
3 84 85 86
3 87 88 89
3 90 91 92
3 93 94 95
3 96 97 98
3 99 100 101
3 102 103 104
3 105 106 107
3 108 109 110
3 111 112 113
3 114 115 116
3 117 118 119
3 120 121 122
3 123 124 125
3 126 127 128
3 129 130 131
3 132 133 134
3 135 136 137
3 138 139 140
3 141 142 143
3 144 145 146
3 147 148 149
3 150 151 152
3 153 154 155
3 156 157 158
3 159 160 161
3 162 163 164
3 165 166 167
3 168 169 170
3 171 172 173
3 174 175 176
3 177 178 179
3 180 181 182
3 183 184 185
3 186 187 188
3 189 190 191
3 192 193 194
3 195 196 197
3 198 199 200
3 201 202 203
3 204 205 206
3 207 208 209
3 210 211 212
3 213 214 215
3 216 217 218
3 219 220 221
3 222 223 224
3 225 226 227
3 228 229 230
3 231 232 233
3 234 235 236
3 237 238 239
3 240 241 242
3 243 244 245
3 246 247 248
3 249 250 251
3 252 253 254
3 255 256 257
3 258 259 260
3 261 262 263
3 264 265 266
3 267 268 269
3 270 271 272
3 273 274 275
3 276 277 278
3 279 280 281
3 282 283 284
3 285 286 287
3 288 289 290
3 291 292 293
3 294 0 2
3 295 3 5
3 296 6 8
3 297 9 11
3 298 299 300
3 301 302 303
3 304 18 20
3 305 21 23
3 306 24 26
3 307 27 29
3 308 30 32
3 309 33 35
3 310 36 38
3 311 312 313
3 314 42 44
3 315 45 47
3 316 317 318
3 319 51 53
3 320 54 56
3 321 57 59
3 16 322 17
3 323 63 65
3 324 66 68
3 103 325 104
3 326 72 74
3 109 327 110
3 328 78 80
3 329 81 83
3 271 330 272
3 331 87 89
3 92 91 332
3 333 332 91
3 334 335 336
3 337 92 332
3 85 338 86
3 339 337 332
3 92 337 340
3 205 341 206
3 92 340 336
3 342 313 343
3 344 345 346
3 347 345 344
3 348 345 349
3 350 351 352
3 353 333 91
3 347 336 349
3 354 92 355
3 340 334 336
3 106 356 107
3 355 350 357
3 351 350 347
3 61 358 62
3 359 354 360
3 355 360 354
3 361 360 355
3 92 336 355
3 336 347 355
3 350 355 347
3 362 93 95
3 363 364 365
3 101 100 301
3 347 366 351
3 101 301 303
3 332 367 339
3 303 368 101
3 368 369 101
3 369 370 101
3 370 371 101
3 101 371 372
3 49 373 50
3 372 374 101
3 313 342 375
3 374 363 365
3 101 374 365
3 376 365 377
3 367 378 339
3 187 379 188
3 312 380 381
3 337 382 340
3 383 101 384
3 385 343 386
3 380 312 384
3 385 342 343
3 97 387 98
3 101 376 380
3 311 384 312
3 388 311 313
3 335 389 336
3 343 313 312
3 76 390 77
3 115 391 116
3 40 392 41
3 393 111 113
3 384 101 380
3 184 394 185
3 118 395 119
3 396 123 125
3 169 397 170
3 398 129 131
3 399 132 134
3 400 135 137
3 70 401 71
3 402 141 143
3 403 144 146
3 404 147 149
3 127 405 128
3 406 153 155
3 407 156 158
3 408 159 161
3 409 162 164
3 410 165 167
3 345 347 349
3 411 171 173
3 412 174 176
3 413 177 179
3 414 180 182
3 151 415 152
3 121 416 122
3 417 189 191
3 418 192 194
3 419 195 197
3 420 198 200
3 421 201 203
3 13 422 14
3 423 424 425
3 100 426 301
3 427 213 215
3 428 429 430
3 431 432 433
3 434 435 436
3 437 438 439
3 440 228 230
3 441 442 443
3 444 445 446
3 447 237 239
3 448 240 242
3 253 449 254
3 450 451 452
3 453 454 455
3 247 456 248
3 457 255 257
3 458 258 260
3 459 261 263
3 460 461 462
3 463 464 465
3 139 466 140
3 467 468 469
3 280 470 281
3 471 472 473
3 371 474 372
3 475 285 287
3 476 477 478
3 479 480 481
3 365 376 101
