ply
format ascii 1.0
comment Created by Blender 2.69 (sub 0) - www.blender.org, source file: ''
element vertex 426
property float x
property float y
property float z
property float nx
property float ny
property float nz
element face 252
property list uchar uint vertex_indices
end_header
0.000000 -1.000000 -0.670894 0.096729 -0.161608 -0.982103
0.000000 1.000000 -1.000000 0.096729 -0.161608 -0.982103
0.195090 1.000000 -0.980785 0.096729 -0.161608 -0.982103
0.130885 -1.000000 -0.658003 0.286469 -0.161608 -0.944361
0.195090 1.000000 -0.980785 0.286469 -0.161608 -0.944361
0.256740 -1.000000 -0.619825 0.286469 -0.161608 -0.944361
0.256740 -1.000000 -0.619825 0.465200 -0.161608 -0.870328
0.382683 1.000000 -0.923880 0.465200 -0.161608 -0.870328
0.555570 1.000000 -0.831470 0.465200 -0.161608 -0.870328
0.372729 -1.000000 -0.557828 0.626054 -0.161608 -0.762849
0.555570 1.000000 -0.831470 0.626054 -0.161608 -0.762849
0.474394 -1.000000 -0.474394 0.626054 -0.161608 -0.762849
0.474394 -1.000000 -0.474394 0.762849 -0.161608 -0.626054
0.707107 1.000000 -0.707107 0.762849 -0.161608 -0.626054
0.557828 -1.000000 -0.372729 0.762849 -0.161608 -0.626054
0.557828 -1.000000 -0.372729 0.870329 -0.161608 -0.465200
0.831470 1.000000 -0.555570 0.870329 -0.161608 -0.465200
0.619825 -1.000000 -0.256740 0.870329 -0.161608 -0.465200
0.619825 -1.000000 -0.256740 0.944361 -0.161608 -0.286469
0.923880 1.000000 -0.382683 0.944361 -0.161608 -0.286469
0.980785 1.000000 -0.195090 0.944361 -0.161608 -0.286469
0.658003 -1.000000 -0.130885 0.982103 -0.161608 -0.096729
0.980785 1.000000 -0.195090 0.982103 -0.161608 -0.096729
1.000000 1.000000 -0.000000 0.982103 -0.161608 -0.096729
0.670894 -1.000000 -0.000000 0.982103 -0.161608 0.096729
1.000000 1.000000 -0.000000 0.982103 -0.161608 0.096729
0.980785 1.000000 0.195090 0.982103 -0.161608 0.096729
0.658003 -1.000000 0.130885 0.944361 -0.161608 0.286469
0.980785 1.000000 0.195090 0.944361 -0.161608 0.286469
0.619825 -1.000000 0.256740 0.944361 -0.161608 0.286469
0.619825 -1.000000 0.256740 0.870329 -0.161608 0.465200
0.923880 1.000000 0.382683 0.870329 -0.161608 0.465200
0.831470 1.000000 0.555570 0.870329 -0.161608 0.465200
0.557828 -1.000000 0.372729 0.762849 -0.161608 0.626054
0.831470 1.000000 0.555570 0.762849 -0.161608 0.626054
0.707107 1.000000 0.707107 0.762849 -0.161608 0.626054
0.474394 -1.000000 0.474394 0.626054 -0.161608 0.762849
0.707107 1.000000 0.707107 0.626054 -0.161608 0.762849
0.555570 1.000000 0.831470 0.626054 -0.161608 0.762849
0.372729 -1.000000 0.557828 0.465200 -0.161608 0.870328
0.555570 1.000000 0.831470 0.465200 -0.161608 0.870328
0.382683 1.000000 0.923880 0.465200 -0.161608 0.870328
0.256740 -1.000000 0.619825 0.286468 -0.161608 0.944361
0.382683 1.000000 0.923880 0.286468 -0.161608 0.944361
0.195090 1.000000 0.980785 0.286468 -0.161608 0.944361
0.130885 -1.000000 0.658003 0.096728 -0.161608 0.982103
0.195090 1.000000 0.980785 0.096728 -0.161608 0.982103
-0.000000 -1.000000 0.670894 0.096728 -0.161608 0.982103
-0.000000 -1.000000 0.670894 -0.096729 -0.161608 0.982103
-0.000000 1.000000 1.000000 -0.096729 -0.161608 0.982103
-0.195091 1.000000 0.980785 -0.096729 -0.161608 0.982103
-0.130885 -1.000000 0.658003 -0.286469 -0.161608 0.944361
-0.195091 1.000000 0.980785 -0.286469 -0.161608 0.944361
-0.382684 1.000000 0.923879 -0.286469 -0.161608 0.944361
-0.256740 -1.000000 0.619825 -0.465201 -0.161608 0.870328
-0.382684 1.000000 0.923879 -0.465201 -0.161608 0.870328
-0.555571 1.000000 0.831469 -0.465201 -0.161608 0.870328
-0.372729 -1.000000 0.557828 -0.626055 -0.161608 0.762849
-0.555571 1.000000 0.831469 -0.626055 -0.161608 0.762849
-0.474394 -1.000000 0.474393 -0.626055 -0.161608 0.762849
-0.474394 -1.000000 0.474393 -0.762849 -0.161608 0.626054
-0.707107 1.000000 0.707106 -0.762849 -0.161608 0.626054
-0.557828 -1.000000 0.372728 -0.762849 -0.161608 0.626054
-0.557828 -1.000000 0.372728 -0.870329 -0.161608 0.465200
-0.831470 1.000000 0.555570 -0.870329 -0.161608 0.465200
-0.923880 1.000000 0.382683 -0.870329 -0.161608 0.465200
-0.619825 -1.000000 0.256739 -0.944362 -0.161608 0.286468
-0.923880 1.000000 0.382683 -0.944362 -0.161608 0.286468
-0.980785 1.000000 0.195089 -0.944362 -0.161608 0.286468
-0.658003 -1.000000 0.130884 -0.982103 -0.161608 0.096728
-0.980785 1.000000 0.195089 -0.982103 -0.161608 0.096728
-1.000000 1.000000 -0.000001 -0.982103 -0.161608 0.096728
-0.670894 -1.000000 -0.000001 -0.982103 -0.161608 -0.096730
-1.000000 1.000000 -0.000001 -0.982103 -0.161608 -0.096730
-0.980785 1.000000 -0.195091 -0.982103 -0.161608 -0.096730
-0.658003 -1.000000 -0.130886 -0.944361 -0.161608 -0.286471
-0.980785 1.000000 -0.195091 -0.944361 -0.161608 -0.286471
-0.619825 -1.000000 -0.256741 -0.944361 -0.161608 -0.286471
-0.619825 -1.000000 -0.256741 -0.870328 -0.161608 -0.465201
-0.923879 1.000000 -0.382684 -0.870328 -0.161608 -0.465201
-0.557828 -1.000000 -0.372730 -0.870328 -0.161608 -0.465201
-0.557828 -1.000000 -0.372730 -0.762848 -0.161608 -0.626055
-0.831469 1.000000 -0.555571 -0.762848 -0.161608 -0.626055
-0.707106 1.000000 -0.707108 -0.762848 -0.161608 -0.626055
-0.474393 -1.000000 -0.474394 -0.626053 -0.161608 -0.762850
-0.707106 1.000000 -0.707108 -0.626053 -0.161608 -0.762850
-0.555569 1.000000 -0.831470 -0.626053 -0.161608 -0.762850
-0.372728 -1.000000 -0.557829 -0.465199 -0.161608 -0.870329
-0.555569 1.000000 -0.831470 -0.465199 -0.161608 -0.870329
-0.382682 1.000000 -0.923880 -0.465199 -0.161608 -0.870329
-0.195089 1.000000 -0.980786 0.000000 1.000000 0.000000
-0.382682 1.000000 -0.923880 0.000000 1.000000 0.000000
-0.338237 1.000000 -0.816579 0.000000 1.000000 0.000000
-0.130884 -1.000000 -0.658003 -0.096728 -0.161608 -0.982103
-0.195089 1.000000 -0.980786 -0.096728 -0.161608 -0.982103
0.000000 1.000000 -1.000000 -0.096728 -0.161608 -0.982103
-0.256739 -1.000000 -0.619826 -0.286467 -0.161608 -0.944362
-0.382682 1.000000 -0.923880 -0.286467 -0.161608 -0.944362
-0.195089 1.000000 -0.980786 -0.286467 -0.161608 -0.944362
-0.130884 -1.000000 -0.658003 -0.000000 -1.000000 -0.000000
0.000000 -1.000000 -0.670894 -0.000000 -1.000000 -0.000000
-0.619825 -1.000000 -0.256741 -0.000000 -1.000000 -0.000000
-0.338237 1.000000 -0.816579 0.466328 0.146239 0.872441
-0.491045 1.000000 -0.734902 0.466328 0.146239 0.872441
-0.241633 -0.699421 -0.583356 0.466328 0.146239 0.872441
-0.707107 1.000000 0.707106 0.000000 1.000000 0.000000
-0.555571 1.000000 0.831469 0.000000 1.000000 0.000000
-0.491046 1.000000 0.734901 0.000000 1.000000 0.000000
0.980785 1.000000 0.195090 -0.000000 1.000000 -0.000000
1.000000 1.000000 -0.000000 -0.000000 1.000000 -0.000000
0.866876 1.000000 0.172432 -0.000000 1.000000 -0.000000
-0.980785 1.000000 0.195089 0.000000 1.000000 0.000000
-0.923880 1.000000 0.382683 0.000000 1.000000 0.000000
-0.816579 1.000000 0.338237 0.000000 1.000000 0.000000
0.707107 1.000000 0.707107 -0.000000 1.000000 -0.000000
0.831470 1.000000 0.555570 -0.000000 1.000000 -0.000000
0.624982 1.000000 0.624982 -0.000000 1.000000 -0.000000
-0.923879 1.000000 -0.382684 0.000000 1.000000 0.000000
-0.980785 1.000000 -0.195091 0.000000 1.000000 0.000000
-0.866875 1.000000 -0.172433 0.000000 1.000000 0.000000
0.707107 1.000000 -0.707107 -0.000000 1.000000 0.000000
0.555570 1.000000 -0.831470 -0.000000 1.000000 0.000000
0.624982 1.000000 -0.624982 -0.000000 1.000000 0.000000
0.195090 1.000000 0.980785 0.000000 1.000000 -0.000000
0.382683 1.000000 0.923880 0.000000 1.000000 -0.000000
0.172432 1.000000 0.866876 0.000000 1.000000 -0.000000
-0.555569 1.000000 -0.831470 0.000000 1.000000 0.000000
-0.707106 1.000000 -0.707108 0.000000 1.000000 0.000000
-0.624982 1.000000 -0.624983 0.000000 1.000000 0.000000
-0.382684 1.000000 0.923879 0.000000 1.000000 -0.000000
-0.195091 1.000000 0.980785 0.000000 1.000000 -0.000000
-0.338238 1.000000 0.816579 0.000000 1.000000 -0.000000
0.980785 1.000000 -0.195090 -0.000000 1.000000 0.000000
0.923880 1.000000 -0.382683 -0.000000 1.000000 0.000000
0.866876 1.000000 -0.172432 -0.000000 1.000000 0.000000
0.000000 1.000000 -1.000000 0.000000 1.000000 0.000000
0.000000 1.000000 -0.883859 0.000000 1.000000 0.000000
-0.831470 1.000000 0.555570 0.000000 1.000000 0.000000
-0.624983 1.000000 0.624982 0.000000 1.000000 0.000000
0.923880 1.000000 0.382683 0.000000 1.000000 -0.000000
-1.000000 1.000000 -0.000001 0.000000 1.000000 0.000000
-0.866876 1.000000 0.172431 0.000000 1.000000 0.000000
0.382683 1.000000 -0.923880 -0.000000 1.000000 0.000000
0.195090 1.000000 -0.980785 -0.000000 1.000000 0.000000
0.338238 1.000000 -0.816579 -0.000000 1.000000 0.000000
0.555570 1.000000 0.831470 -0.000000 1.000000 -0.000000
0.491046 1.000000 0.734902 -0.000000 1.000000 -0.000000
-0.831469 1.000000 -0.555571 0.000000 1.000000 0.000000
-0.816579 1.000000 -0.338239 0.000000 1.000000 0.000000
0.831470 1.000000 -0.555570 -0.000000 1.000000 0.000000
-0.000000 1.000000 1.000000 0.000000 1.000000 -0.000000
-0.491045 1.000000 -0.734902 0.000000 1.000000 0.000000
-0.734902 1.000000 0.491045 0.000000 1.000000 0.000000
0.734902 1.000000 0.491046 -0.000000 1.000000 -0.000000
-0.883859 1.000000 -0.000001 0.000000 1.000000 0.000000
0.491046 1.000000 -0.734902 -0.000000 1.000000 0.000000
-0.734901 1.000000 -0.491047 0.000000 1.000000 0.000000
-0.000000 1.000000 0.883859 0.000000 1.000000 0.000000
0.734902 1.000000 -0.491046 -0.000000 1.000000 0.000000
0.241634 -0.699421 -0.583356 -0.000000 1.000000 0.000000
0.123184 -0.699421 -0.619287 -0.000000 1.000000 0.000000
-0.525006 -0.699421 -0.350799 -0.000000 1.000000 0.000000
-0.491046 1.000000 0.734901 0.466329 0.146240 -0.872440
-0.338238 1.000000 0.816579 0.466329 0.146240 -0.872440
-0.241634 -0.699421 0.583356 0.466329 0.146240 -0.872440
0.883859 1.000000 -0.000000 -0.984486 0.146239 0.096963
0.866876 1.000000 -0.172432 -0.984486 0.146239 0.096963
0.631420 -0.699421 -0.000000 -0.984486 0.146239 0.096963
-0.624982 1.000000 -0.624983 0.764699 0.146239 0.627574
-0.734901 1.000000 -0.491047 0.764699 0.146239 0.627574
-0.446481 -0.699421 -0.446482 0.764699 0.146239 0.627574
-0.172433 1.000000 0.866875 0.096964 0.146239 -0.984486
-0.000000 1.000000 0.883859 0.096964 0.146239 -0.984486
-0.000000 -0.699421 0.631420 0.096964 0.146239 -0.984486
0.816579 1.000000 -0.338238 -0.872440 0.146239 0.466329
0.734902 1.000000 -0.491046 -0.872440 0.146239 0.466329
0.525007 -0.699421 -0.350798 -0.872440 0.146239 0.466329
-0.816579 1.000000 -0.338239 0.946652 0.146239 0.287165
-0.866875 1.000000 -0.172433 0.946652 0.146239 0.287165
-0.583355 -0.699421 -0.241635 0.946652 0.146239 0.287165
0.624982 1.000000 -0.624982 -0.627573 0.146239 0.764700
0.491046 1.000000 -0.734902 -0.627573 0.146239 0.764700
0.350798 -0.699421 -0.525007 -0.627573 0.146239 0.764700
0.172432 1.000000 0.866876 -0.287164 0.146239 -0.946653
0.338238 1.000000 0.816579 -0.287164 0.146239 -0.946653
0.241634 -0.699421 0.583356 -0.287164 0.146239 -0.946653
-0.883859 1.000000 -0.000001 0.984486 0.146240 -0.096963
-0.866876 1.000000 0.172431 0.984486 0.146240 -0.096963
-0.619287 -0.699421 0.123183 0.984486 0.146240 -0.096963
0.338238 1.000000 -0.816579 -0.287164 0.146239 0.946652
0.172432 1.000000 -0.866876 -0.287164 0.146239 0.946652
0.241634 -0.699421 -0.583356 -0.287164 0.146239 0.946652
0.491046 1.000000 0.734902 -0.627573 0.146239 -0.764700
0.624982 1.000000 0.624982 -0.627573 0.146239 -0.764700
0.350798 -0.699421 0.525006 -0.627573 0.146239 -0.764700
-0.816579 1.000000 0.338237 0.872440 0.146240 -0.466328
-0.734902 1.000000 0.491045 0.872440 0.146240 -0.466328
-0.525007 -0.699421 0.350798 0.872440 0.146240 -0.466328
0.734902 1.000000 0.491046 -0.872440 0.146239 -0.466329
0.816579 1.000000 0.338238 -0.872440 0.146239 -0.466329
0.583356 -0.699421 0.241634 -0.872440 0.146239 -0.466329
-0.172431 1.000000 -0.866876 0.287162 0.146239 0.946653
-0.338237 1.000000 -0.816579 0.287162 0.146239 0.946653
-0.123183 -0.699421 -0.619288 0.287162 0.146239 0.946653
-0.624983 1.000000 0.624982 0.627573 0.146240 -0.764700
-0.491046 1.000000 0.734901 0.627573 0.146240 -0.764700
-0.350798 -0.699421 0.525006 0.627573 0.146240 -0.764700
0.866876 1.000000 0.172432 -0.984486 0.146239 -0.096963
0.883859 1.000000 -0.000000 -0.984486 0.146239 -0.096963
0.631420 -0.699421 -0.000000 -0.984486 0.146239 -0.096963
-0.491045 1.000000 -0.734902 0.627572 0.146239 0.764701
-0.624982 1.000000 -0.624983 0.627572 0.146239 0.764701
-0.350797 -0.699421 -0.525007 0.627572 0.146239 0.764701
-0.338238 1.000000 0.816579 0.287164 0.146240 -0.946652
-0.172433 1.000000 0.866875 0.287164 0.146240 -0.946652
-0.123184 -0.699421 0.619287 0.287164 0.146240 -0.946652
0.866876 1.000000 -0.172432 -0.946652 0.146239 0.287164
0.816579 1.000000 -0.338238 -0.946652 0.146239 0.287164
0.583356 -0.699421 -0.241634 -0.946652 0.146239 0.287164
-0.734901 1.000000 -0.491047 0.872439 0.146239 0.466330
-0.816579 1.000000 -0.338239 0.872439 0.146239 0.466330
-0.525006 -0.699421 -0.350799 0.872439 0.146239 0.466330
0.734902 1.000000 -0.491046 -0.764700 0.146239 0.627573
0.624982 1.000000 -0.624982 -0.764700 0.146239 0.627573
0.446481 -0.699421 -0.446481 -0.764700 0.146239 0.627573
-0.000000 1.000000 0.883859 -0.096963 0.146240 -0.984486
0.172432 1.000000 0.866876 -0.096963 0.146240 -0.984486
0.123184 -0.699421 0.619287 -0.096963 0.146240 -0.984486
-0.866875 1.000000 -0.172433 0.984486 0.146240 0.096964
-0.883859 1.000000 -0.000001 0.984486 0.146240 0.096964
-0.631420 -0.699421 -0.000001 0.984486 0.146240 0.096964
0.491046 1.000000 -0.734902 -0.466329 0.146239 0.872440
0.338238 1.000000 -0.816579 -0.466329 0.146239 0.872440
0.241634 -0.699421 -0.583356 -0.466329 0.146239 0.872440
0.338238 1.000000 0.816579 -0.466329 0.146239 -0.872440
0.491046 1.000000 0.734902 -0.466329 0.146239 -0.872440
0.350798 -0.699421 0.525006 -0.466329 0.146239 -0.872440
-0.866876 1.000000 0.172431 0.946653 0.146240 -0.287163
-0.816579 1.000000 0.338237 0.946653 0.146240 -0.287163
-0.583356 -0.699421 0.241633 0.946653 0.146240 -0.287163
0.172432 1.000000 -0.866876 -0.096964 0.146239 0.984486
0.000000 1.000000 -0.883859 -0.096964 0.146239 0.984486
0.000000 -0.699421 -0.631420 -0.096964 0.146239 0.984486
0.624982 1.000000 0.624982 -0.764700 0.146239 -0.627573
0.734902 1.000000 0.491046 -0.764700 0.146239 -0.627573
0.446481 -0.699421 0.446481 -0.764700 0.146239 -0.627573
0.000000 1.000000 -0.883859 0.096963 0.146239 0.984486
-0.172431 1.000000 -0.866876 0.096963 0.146239 0.984486
-0.123183 -0.699421 -0.619288 0.096963 0.146239 0.984486
-0.734902 1.000000 0.491045 0.764701 0.146240 -0.627572
-0.624983 1.000000 0.624982 0.764701 0.146240 -0.627572
-0.525007 -0.699421 0.350798 0.764701 0.146240 -0.627572
0.816579 1.000000 0.338238 -0.946653 0.146239 -0.287164
0.866876 1.000000 0.172432 -0.946653 0.146239 -0.287164
0.619287 -0.699421 0.123184 -0.946653 0.146239 -0.287164
0.130885 -1.000000 -0.658003 0.096728 -0.161608 -0.982103
0.000000 -1.000000 -0.670894 0.096728 -0.161608 -0.982103
0.195090 1.000000 -0.980785 0.096728 -0.161608 -0.982103
-0.446481 -0.699421 -0.446482 0.627572 0.146239 0.764701
0.372729 -1.000000 -0.557828 0.465200 -0.161608 -0.870329
0.256740 -1.000000 -0.619825 0.465200 -0.161608 -0.870329
0.555570 1.000000 -0.831470 0.465200 -0.161608 -0.870329
0.619825 -1.000000 0.256740 0.000000 -1.000000 0.000000
0.557828 -1.000000 0.372729 0.000000 -1.000000 0.000000
0.474394 -1.000000 0.474394 0.000000 -1.000000 0.000000
0.923880 1.000000 0.382683 0.944361 -0.161608 0.286469
-0.446481 -0.699421 0.446481 0.764701 0.146240 -0.627572
0.658003 -1.000000 -0.130885 0.944361 -0.161608 -0.286469
0.670894 -1.000000 -0.000000 0.982103 -0.161608 -0.096729
0.658003 -1.000000 0.130885 0.982103 -0.161608 0.096728
0.670894 -1.000000 -0.000000 0.982103 -0.161608 0.096728
0.980785 1.000000 0.195090 0.982103 -0.161608 0.096728
0.525007 -0.699421 0.350798 -0.764700 0.146239 -0.627573
0.557828 -1.000000 0.372729 0.870329 -0.161608 0.465200
0.474394 -1.000000 0.474394 0.762849 -0.161608 0.626054
0.372729 -1.000000 0.557828 0.626055 -0.161608 0.762849
0.474394 -1.000000 0.474394 0.626055 -0.161608 0.762849
0.555570 1.000000 0.831470 0.626055 -0.161608 0.762849
0.256740 -1.000000 0.619825 0.465200 -0.161608 0.870329
0.372729 -1.000000 0.557828 0.465200 -0.161608 0.870329
0.382683 1.000000 0.923880 0.465200 -0.161608 0.870329
0.130885 -1.000000 0.658003 0.286469 -0.161608 0.944361
0.256740 -1.000000 0.619825 0.286469 -0.161608 0.944361
0.195090 1.000000 0.980785 0.286469 -0.161608 0.944361
-0.583355 -0.699421 -0.241635 0.872439 0.146239 0.466330
-0.130885 -1.000000 0.658003 -0.096729 -0.161608 0.982103
-0.256740 -1.000000 0.619825 -0.286469 -0.161608 0.944361
-0.372729 -1.000000 0.557828 -0.465201 -0.161608 0.870328
-0.670894 -1.000000 -0.000001 0.000000 -1.000000 0.000000
-0.658003 -1.000000 -0.130886 0.000000 -1.000000 0.000000
0.658003 -1.000000 -0.130885 0.000000 -1.000000 -0.000000
0.670894 -1.000000 -0.000000 0.000000 -1.000000 -0.000000
0.256740 -1.000000 -0.619825 0.000000 -1.000000 -0.000000
-0.619825 -1.000000 0.256739 -0.870329 -0.161608 0.465199
-0.557828 -1.000000 0.372728 -0.870329 -0.161608 0.465199
-0.923880 1.000000 0.382683 -0.870329 -0.161608 0.465199
-0.658003 -1.000000 0.130884 -0.944362 -0.161608 0.286468
-0.670894 -1.000000 -0.000001 -0.982103 -0.161608 0.096728
-0.658003 -1.000000 -0.130886 -0.982103 -0.161608 -0.096729
-0.670894 -1.000000 -0.000001 -0.982103 -0.161608 -0.096729
-0.980785 1.000000 -0.195091 -0.982103 -0.161608 -0.096729
-0.000000 -1.000000 0.670894 0.000000 -1.000000 0.000000
-0.130885 -1.000000 0.658003 0.000000 -1.000000 0.000000
-0.619287 -0.699421 -0.123185 0.946652 0.146239 0.287165
-0.474393 -1.000000 -0.474394 -0.762848 -0.161608 -0.626055
-0.372728 -1.000000 -0.557829 -0.626053 -0.161608 -0.762850
-0.256739 -1.000000 -0.619826 -0.465199 -0.161608 -0.870329
-0.172431 1.000000 -0.866876 -0.000000 1.000000 0.000000
0.000000 -1.000000 -0.670894 -0.096728 -0.161608 -0.982103
-0.130884 -1.000000 -0.658003 -0.286467 -0.161608 -0.944362
0.000000 -0.699421 -0.631420 -0.000000 1.000000 0.000000
-0.123183 -0.699421 -0.619288 -0.000000 1.000000 0.000000
0.474394 -1.000000 -0.474394 0.000000 -1.000000 -0.000000
0.557828 -1.000000 -0.372729 0.000000 -1.000000 -0.000000
-0.241633 -0.699421 -0.583356 0.000000 1.000000 0.000000
-0.350797 -0.699421 -0.525007 0.000000 1.000000 0.000000
-0.446481 -0.699421 -0.446482 0.000000 1.000000 0.000000
-0.241633 -0.699421 -0.583356 0.287162 0.146239 0.946653
0.619825 -1.000000 -0.256740 0.000000 -1.000000 -0.000000
0.883859 1.000000 -0.000000 -0.000000 1.000000 0.000000
0.831470 1.000000 -0.555570 0.870328 -0.161608 -0.465200
0.923880 1.000000 -0.382683 0.870328 -0.161608 -0.465200
0.619825 -1.000000 -0.256740 0.870328 -0.161608 -0.465200
-0.372728 -1.000000 -0.557829 0.000000 -1.000000 0.000000
-0.256739 -1.000000 -0.619826 0.000000 -1.000000 0.000000
0.256740 -1.000000 0.619825 -0.000000 -1.000000 -0.000000
0.130885 -1.000000 0.658003 -0.000000 -1.000000 -0.000000
-0.372729 -1.000000 0.557828 0.000000 -1.000000 -0.000000
-0.256740 -1.000000 0.619825 0.000000 -1.000000 -0.000000
0.446481 -0.699421 0.446481 -0.627573 0.146239 -0.764700
-0.619825 -1.000000 0.256739 0.000000 -1.000000 -0.000000
-0.474394 -1.000000 0.474393 0.000000 -1.000000 -0.000000
-0.557828 -1.000000 0.372728 0.000000 -1.000000 -0.000000
-0.658003 -1.000000 0.130884 0.000000 -1.000000 -0.000000
-0.474393 -1.000000 -0.474394 0.000000 -1.000000 0.000000
-0.557828 -1.000000 -0.372730 0.000000 -1.000000 0.000000
-0.707107 1.000000 0.707106 -0.762850 -0.161608 0.626054
-0.831470 1.000000 0.555570 -0.762850 -0.161608 0.626054
-0.557828 -1.000000 0.372728 -0.762850 -0.161608 0.626054
0.130885 -1.000000 -0.658003 0.000000 -1.000000 0.000000
-0.491045 1.000000 -0.734902 0.466327 0.146239 0.872441
-0.350797 -0.699421 -0.525007 0.466327 0.146239 0.872441
-0.241633 -0.699421 -0.583356 0.466327 0.146239 0.872441
0.446481 -0.699421 -0.446481 0.000000 1.000000 0.000000
-0.000000 -0.699421 0.631420 0.000000 1.000000 0.000000
0.631420 -0.699421 -0.000000 0.000000 1.000000 0.000000
-0.525006 -0.699421 -0.350799 0.764699 0.146239 0.627574
0.372729 -1.000000 -0.557828 0.000000 -1.000000 0.000000
0.816579 1.000000 -0.338238 0.000000 1.000000 0.000000
0.619287 -0.699421 -0.123184 -0.984486 0.146239 0.096963
0.583356 -0.699421 0.241634 0.000000 1.000000 0.000000
0.816579 1.000000 0.338238 0.000000 1.000000 -0.000000
-0.123184 -0.699421 0.619287 0.000000 1.000000 -0.000000
-0.583356 -0.699421 0.241633 0.000000 1.000000 -0.000000
-0.631420 -0.699421 -0.000001 0.000000 1.000000 0.000000
-0.619287 -0.699421 0.123183 0.000000 1.000000 0.000000
0.172432 1.000000 -0.866876 -0.000000 1.000000 -0.000000
0.123184 -0.699421 -0.619287 -0.287164 0.146239 0.946652
0.338238 1.000000 0.816579 0.000000 1.000000 0.000000
-0.172433 1.000000 0.866875 0.000000 1.000000 0.000000
-0.583355 -0.699421 -0.241635 0.000000 1.000000 0.000000
-0.619287 -0.699421 -0.123185 0.000000 1.000000 0.000000
-0.707107 1.000000 0.707106 -0.626055 -0.161608 0.762849
0.123184 -0.699421 0.619287 -0.000000 1.000000 -0.000000
0.241634 -0.699421 0.583356 -0.000000 1.000000 -0.000000
-0.446481 -0.699421 0.446481 0.000000 1.000000 -0.000000
0.350798 -0.699421 0.525006 -0.000000 1.000000 -0.000000
0.446481 -0.699421 0.446481 -0.000000 1.000000 -0.000000
0.525007 -0.699421 0.350798 0.000000 1.000000 0.000000
0.583356 -0.699421 -0.241634 0.000000 1.000000 -0.000000
0.525007 -0.699421 -0.350798 0.000000 1.000000 -0.000000
0.619287 -0.699421 -0.123184 -0.000000 1.000000 0.000000
-0.350798 -0.699421 0.525006 -0.000000 1.000000 0.000000
-0.241634 -0.699421 0.583356 -0.000000 1.000000 0.000000
-0.525007 -0.699421 0.350798 0.000000 1.000000 -0.000000
0.350798 -0.699421 -0.525007 -0.000000 1.000000 0.000000
0.831470 1.000000 -0.555570 0.762849 -0.161608 -0.626054
0.619287 -0.699421 0.123184 -0.000000 1.000000 -0.000000
0.195090 1.000000 0.980785 0.096729 -0.161608 0.982103
-0.000000 1.000000 1.000000 0.096729 -0.161608 0.982103
-0.000000 -1.000000 0.670894 0.096729 -0.161608 0.982103
-0.350798 -0.699421 0.525006 0.466329 0.146240 -0.872440
0.658003 -1.000000 0.130885 0.000000 -1.000000 0.000000
-0.123184 -0.699421 0.619287 0.096963 0.146239 -0.984486
-0.172433 1.000000 0.866875 0.096963 0.146239 -0.984486
-0.000000 -0.699421 0.631420 0.096963 0.146239 -0.984486
0.583356 -0.699421 -0.241634 -0.872440 0.146239 0.466328
0.816579 1.000000 -0.338238 -0.872440 0.146239 0.466328
0.525007 -0.699421 -0.350798 -0.872440 0.146239 0.466328
0.446481 -0.699421 -0.446481 -0.627573 0.146239 0.764700
0.123184 -0.699421 0.619287 -0.287164 0.146240 -0.946653
0.172432 1.000000 0.866876 -0.287164 0.146240 -0.946653
0.241634 -0.699421 0.583356 -0.287164 0.146240 -0.946653
-0.631420 -0.699421 -0.000001 0.984486 0.146240 -0.096963
-0.831469 1.000000 -0.555571 -0.870328 -0.161608 -0.465201
0.382683 1.000000 -0.923880 0.286469 -0.161608 -0.944361
-0.583356 -0.699421 0.241633 0.872440 0.146240 -0.466328
0.525007 -0.699421 0.350798 -0.872440 0.146239 -0.466328
0.734902 1.000000 0.491046 -0.872440 0.146239 -0.466328
0.583356 -0.699421 0.241634 -0.872440 0.146239 -0.466328
0.372729 -1.000000 0.557828 0.000000 -1.000000 0.000000
-0.446481 -0.699421 0.446481 0.627573 0.146240 -0.764700
0.619287 -0.699421 0.123184 -0.984486 0.146239 -0.096963
-0.241634 -0.699421 0.583356 0.287164 0.146239 -0.946652
-0.338238 1.000000 0.816579 0.287164 0.146239 -0.946652
-0.123184 -0.699421 0.619287 0.287164 0.146239 -0.946652
0.619287 -0.699421 -0.123184 -0.946652 0.146239 0.287164
0.525007 -0.699421 -0.350798 -0.764700 0.146239 0.627573
-0.000000 -0.699421 0.631420 -0.096963 0.146240 -0.984486
-0.619287 -0.699421 -0.123185 0.984486 0.146239 0.096964
-0.866875 1.000000 -0.172433 0.984486 0.146239 0.096964
-0.631420 -0.699421 -0.000001 0.984486 0.146239 0.096964
0.350798 -0.699421 -0.525007 -0.466329 0.146239 0.872440
0.241634 -0.699421 0.583356 -0.466328 0.146240 -0.872440
0.338238 1.000000 0.816579 -0.466328 0.146240 -0.872440
0.350798 -0.699421 0.525006 -0.466328 0.146240 -0.872440
-0.619287 -0.699421 0.123183 0.946653 0.146240 -0.287163
0.123184 -0.699421 -0.619287 -0.096964 0.146239 0.984486
0.000000 -0.699421 -0.631420 0.096963 0.146239 0.984486
-0.980785 1.000000 -0.195091 -0.944361 -0.161608 -0.286470
-0.923879 1.000000 -0.382684 -0.944361 -0.161608 -0.286470
-0.619825 -1.000000 -0.256741 -0.944361 -0.161608 -0.286470
0.583356 -0.699421 0.241634 -0.946652 0.146239 -0.287164
0.816579 1.000000 0.338238 -0.946652 0.146239 -0.287164
0.619287 -0.699421 0.123184 -0.946652 0.146239 -0.287164
0.707107 1.000000 -0.707107 0.626054 -0.161608 -0.762849
3 0 1 2
3 3 4 5
3 6 7 8
3 9 10 11
3 12 13 14
3 15 16 17
3 18 19 20
3 21 22 23
3 24 25 26
3 27 28 29
3 30 31 32
3 33 34 35
3 36 37 38
3 39 40 41
3 42 43 44
3 45 46 47
3 48 49 50
3 51 52 53
3 54 55 56
3 57 58 59
3 60 61 62
3 63 64 65
3 66 67 68
3 69 70 71
3 72 73 74
3 75 76 77
3 78 79 80
3 81 82 83
3 84 85 86
3 87 88 89
3 90 91 92
3 93 94 95
3 96 97 98
3 99 100 101
3 102 103 104
3 105 106 107
3 108 109 110
3 111 112 113
3 114 115 116
3 117 118 119
3 120 121 122
3 123 124 125
3 126 127 128
3 129 130 131
3 132 133 134
3 135 90 136
3 137 105 138
3 139 108 110
3 140 111 141
3 142 143 144
3 145 114 146
3 147 117 148
3 149 120 122
3 150 123 125
3 91 126 151
3 106 129 107
3 143 135 136
3 109 132 134
3 112 137 152
3 115 139 153
3 118 140 154
3 121 142 155
3 124 145 146
3 127 147 156
3 130 150 157
3 133 149 158
3 159 160 161
3 162 163 164
3 165 166 167
3 168 169 170
3 171 172 173
3 174 175 176
3 177 178 179
3 180 181 182
3 183 184 185
3 186 187 188
3 189 190 191
3 192 193 194
3 195 196 197
3 198 199 200
3 201 202 203
3 204 205 206
3 207 208 209
3 210 211 212
3 213 214 215
3 216 217 218
3 219 220 221
3 222 223 224
3 225 226 227
3 228 229 230
3 231 232 233
3 234 235 236
3 237 238 239
3 240 241 242
3 243 244 245
3 246 247 248
3 249 250 251
3 252 253 254
3 255 256 257
3 211 258 212
3 259 260 261
3 262 263 264
3 28 265 29
3 250 266 251
3 267 18 20
3 268 21 23
3 269 270 271
3 244 272 245
3 273 30 32
3 274 33 35
3 275 276 277
3 278 279 280
3 281 282 283
3 220 284 221
3 285 48 50
3 286 51 53
3 287 54 56
3 288 289 101
3 290 291 292
3 293 294 295
3 296 66 68
3 297 69 71
3 298 299 300
3 264 301 302
3 178 303 179
3 304 81 83
3 305 84 86
3 306 87 89
3 307 90 92
3 308 93 95
3 309 96 98
3 160 310 311
3 100 292 101
3 312 313 292
3 314 315 316
3 202 317 203
3 313 318 292
3 109 319 110
3 291 264 292
3 262 264 291
3 320 321 322
3 99 323 324
3 323 99 101
3 301 325 326
3 327 302 328
3 193 329 194
3 325 301 264
3 330 331 332
3 333 331 330
3 288 331 333
3 334 101 335
3 142 144 155
3 288 101 331
3 336 337 338
3 327 331 302
3 334 323 101
3 100 339 292
3 264 302 101
3 340 341 342
3 343 344 345
3 138 105 107
3 169 346 170
3 141 111 113
3 121 155 122
3 148 117 119
3 292 347 312
3 133 348 134
3 151 126 128
3 166 349 167
3 345 344 350
3 264 101 292
3 152 137 138
3 351 139 110
3 154 140 141
3 352 344 353
3 90 307 136
3 156 147 148
3 158 149 122
3 157 150 125
3 92 91 151
3 354 355 353
3 356 143 136
3 319 109 134
3 113 112 152
3 143 356 144
3 119 118 154
3 190 357 191
3 358 124 146
3 128 127 156
3 359 130 157
3 348 133 158
3 360 361 354
3 139 351 153
3 311 314 161
3 160 311 161
3 316 161 314
3 159 161 354
3 129 131 107
3 161 360 354
3 159 354 353
3 115 153 116
3 58 362 59
3 363 364 344
3 365 352 353
3 366 367 364
3 350 367 368
3 344 364 350
3 343 369 370
3 371 369 345
3 352 372 373
3 365 372 352
3 374 365 353
3 375 159 353
3 124 358 125
3 344 375 353
3 343 375 344
3 130 359 131
3 13 376 14
3 377 345 350
3 378 379 380
3 381 162 164
3 291 382 262
3 114 116 146
3 383 384 385
3 386 387 388
3 369 343 345
3 389 180 182
3 390 391 392
3 393 186 188
3 79 394 80
3 4 395 5
3 396 195 197
3 397 398 399
3 264 400 325
3 401 204 206
3 402 207 209
3 101 302 331
3 403 404 405
3 406 216 218
3 367 350 364
3 407 222 224
3 408 225 227
3 409 410 411
3 412 231 233
3 413 414 415
3 416 237 239
3 417 240 242
3 318 290 292
3 418 246 248
3 419 420 421
3 422 423 424
3 10 425 11
