ply
format ascii 1.0
comment Created by Blender 2.69 (sub 0) - www.blender.org, source file: ''
element vertex 64
property float x
property float y
property float z
element face 124
property list uchar uint vertex_indices
end_header
0.000000 -0.044750 -1.000000
0.000000 0.044750 -1.000000
0.195090 0.044750 -0.980785
0.195090 -0.044750 -0.980785
0.382683 0.044750 -0.923880
0.382683 -0.044750 -0.923880
0.555570 0.044750 -0.831470
0.555570 -0.044750 -0.831470
0.707107 0.044750 -0.707107
0.707107 -0.044750 -0.707107
0.831470 0.044750 -0.555570
0.831470 -0.044750 -0.555570
0.923880 0.044750 -0.382683
0.923880 -0.044750 -0.382683
0.980785 0.044750 -0.195090
0.980785 -0.044750 -0.195090
1.000000 0.044750 -0.000000
1.000000 -0.044750 -0.000000
0.980785 0.044750 0.195090
0.980785 -0.044750 0.195090
0.923880 -0.044750 0.382683
0.923880 0.044750 0.382683
0.831470 0.044750 0.555570
0.831470 -0.044750 0.555570
0.707107 -0.044750 0.707107
0.707107 0.044750 0.707107
0.555570 0.044750 0.831470
0.555570 -0.044750 0.831470
0.382683 0.044750 0.923880
0.382683 -0.044750 0.923880
0.195090 -0.044750 0.980785
0.195090 0.044750 0.980785
-0.000000 -0.044750 1.000000
-0.000000 0.044750 1.000000
-0.195091 0.044750 0.980785
-0.195091 -0.044750 0.980785
-0.382684 0.044750 0.923879
-0.382684 -0.044750 0.923879
-0.555571 -0.044750 0.831469
-0.555571 0.044750 0.831469
-0.707107 -0.044750 0.707106
-0.707107 0.044750 0.707106
-0.831470 -0.044750 0.555570
-0.831470 0.044750 0.555570
-0.923880 0.044750 0.382683
-0.923880 -0.044750 0.382683
-0.980785 0.044750 0.195089
-0.980785 -0.044750 0.195089
-1.000000 -0.044750 -0.000001
-1.000000 0.044750 -0.000001
-0.980785 0.044750 -0.195091
-0.980785 -0.044750 -0.195091
-0.923879 0.044750 -0.382684
-0.923879 -0.044750 -0.382684
-0.831469 -0.044750 -0.555571
-0.831469 0.044750 -0.555571
-0.707106 -0.044750 -0.707108
-0.707106 0.044750 -0.707108
-0.555569 -0.044750 -0.831470
-0.555569 0.044750 -0.831470
-0.382682 -0.044750 -0.923880
-0.195089 -0.044750 -0.980786
-0.195089 0.044750 -0.980786
-0.382682 0.044750 -0.923880
3 0 1 2
3 3 2 4
3 5 4 6
3 7 6 8
3 9 8 10
3 11 10 12
3 13 12 14
3 15 14 16
3 17 16 18
3 19 18 20
3 20 21 22
3 23 22 24
3 24 25 26
3 27 26 28
3 29 28 30
3 30 31 32
3 32 33 34
3 35 34 36
3 37 36 38
3 38 39 40
3 40 41 42
3 42 43 44
3 45 44 46
3 47 46 48
3 48 49 50
3 51 50 52
3 53 52 54
3 54 55 56
3 56 57 58
3 58 59 60
3 4 2 57
3 61 62 1
3 60 63 62
3 0 3 61
3 3 0 2
3 5 3 4
3 7 5 6
3 9 7 8
3 11 9 10
3 13 11 12
3 15 13 14
3 17 15 16
3 19 17 18
3 28 31 30
3 23 20 22
3 46 49 48
3 27 24 26
3 29 27 28
3 27 29 61
3 31 4 34
3 35 32 34
3 37 35 36
3 51 53 47
3 41 43 42
3 25 22 21
3 45 42 44
3 47 45 46
3 17 19 20
3 51 48 50
3 53 51 52
3 52 50 49
3 57 59 58
3 36 39 38
3 18 21 20
3 63 59 57
3 37 40 30
3 2 62 57
3 62 63 57
3 4 57 52
3 56 40 53
3 4 52 49
3 59 63 60
3 49 46 4
3 46 44 4
3 44 43 4
3 4 43 39
3 39 41 40
3 39 36 34
3 4 39 34
3 55 57 56
3 26 31 28
3 31 26 21
3 2 1 62
3 26 25 21
3 18 31 21
3 8 12 10
3 8 14 12
3 16 31 18
3 14 31 16
3 8 31 14
3 6 4 8
3 22 25 24
3 0 61 1
3 61 60 62
3 3 5 61
3 5 7 61
3 7 9 61
3 9 11 61
3 11 13 61
3 61 13 20
3 31 33 32
3 13 15 20
3 15 17 20
3 20 23 61
3 23 24 61
3 48 51 47
3 24 27 61
3 57 55 52
3 35 30 32
3 29 30 40
3 4 31 8
3 40 37 38
3 35 37 30
3 60 61 29
3 47 42 45
3 40 60 29
3 60 40 56
3 53 42 47
3 58 60 56
3 52 55 54
3 54 56 53
3 34 33 31
3 42 53 40
3 43 41 39
