ply
format ascii 1.0
comment Created by Blender 2.78 (sub 0) - www.blender.org, source file: 'godis.blend'
element vertex 268
property float x
property float y
property float z
property float nx
property float ny
property float nz
element face 140
property list uchar uint vertex_indices
end_header
-0.000000 0.123837 -0.030951 0.130340 -0.053389 -0.990031
0.006359 0.005513 -0.023733 0.130340 -0.053389 -0.990031
-0.000000 0.005513 -0.024570 0.130340 -0.053389 -0.990031
0.008011 0.123837 -0.029896 0.382138 -0.053389 -0.922562
0.012285 0.005513 -0.021278 0.382138 -0.053389 -0.922562
0.006359 0.005513 -0.023733 0.382138 -0.053389 -0.922562
0.015475 0.123837 -0.026804 0.607893 -0.053389 -0.792222
0.017373 0.005513 -0.017373 0.607893 -0.053389 -0.792222
0.012285 0.005513 -0.021278 0.607893 -0.053389 -0.792222
0.021885 0.123837 -0.021885 0.792222 -0.053389 -0.607894
0.021278 0.005513 -0.012285 0.792222 -0.053389 -0.607894
0.017373 0.005513 -0.017373 0.792222 -0.053389 -0.607894
0.026804 0.123837 -0.015475 0.922562 -0.053389 -0.382137
0.023733 0.005513 -0.006359 0.922562 -0.053389 -0.382137
0.021278 0.005513 -0.012285 0.922562 -0.053389 -0.382137
0.029896 0.123837 -0.008011 0.990031 -0.053389 -0.130340
0.024570 0.005513 -0.000000 0.990031 -0.053389 -0.130340
0.023733 0.005513 -0.006359 0.990031 -0.053389 -0.130340
0.030951 0.123837 -0.000000 0.990031 -0.053389 0.130340
0.023733 0.005513 0.006359 0.990031 -0.053389 0.130340
0.024570 0.005513 -0.000000 0.990031 -0.053389 0.130340
0.029896 0.123837 0.008011 0.922562 -0.053389 0.382137
0.021278 0.005513 0.012285 0.922562 -0.053389 0.382137
0.023733 0.005513 0.006359 0.922562 -0.053389 0.382137
0.026804 0.123837 0.015475 0.792222 -0.053389 0.607893
0.017373 0.005513 0.017373 0.792222 -0.053389 0.607893
0.021278 0.005513 0.012285 0.792222 -0.053389 0.607893
0.021885 0.123837 0.021885 0.607893 -0.053389 0.792222
0.012285 0.005513 0.021278 0.607893 -0.053389 0.792222
0.017373 0.005513 0.017373 0.607893 -0.053389 0.792222
0.015475 0.123837 0.026804 0.382138 -0.053389 0.922562
0.006359 0.005513 0.023733 0.382138 -0.053389 0.922562
0.012285 0.005513 0.021278 0.382138 -0.053389 0.922562
0.008011 0.123837 0.029896 0.130340 -0.053389 0.990031
0.000000 0.005513 0.024570 0.130340 -0.053389 0.990031
0.006359 0.005513 0.023733 0.130340 -0.053389 0.990031
0.000000 0.123837 0.030951 -0.130340 -0.053389 0.990031
-0.006359 0.005513 0.023733 -0.130340 -0.053389 0.990031
0.000000 0.005513 0.024570 -0.130340 -0.053389 0.990031
-0.006359 0.005513 0.023733 -0.382137 -0.053389 0.922562
-0.015475 0.123837 0.026804 -0.382137 -0.053389 0.922562
-0.012285 0.005513 0.021278 -0.382137 -0.053389 0.922562
-0.015475 0.123837 0.026804 -0.607893 -0.053389 0.792222
-0.017373 0.005513 0.017373 -0.607893 -0.053389 0.792222
-0.012285 0.005513 0.021278 -0.607893 -0.053389 0.792222
-0.021885 0.123837 0.021885 -0.792222 -0.053389 0.607893
-0.021278 0.005513 0.012285 -0.792222 -0.053389 0.607893
-0.017373 0.005513 0.017373 -0.792222 -0.053389 0.607893
-0.026804 0.123837 0.015475 -0.922562 -0.053389 0.382138
-0.023733 0.005513 0.006359 -0.922562 -0.053389 0.382138
-0.021278 0.005513 0.012285 -0.922562 -0.053389 0.382138
-0.029896 0.123837 0.008011 -0.990031 -0.053389 0.130341
-0.024570 0.005513 0.000000 -0.990031 -0.053389 0.130341
-0.023733 0.005513 0.006359 -0.990031 -0.053389 0.130341
-0.030951 0.123837 0.000000 -0.990031 -0.053389 -0.130340
-0.023733 0.005513 -0.006359 -0.990031 -0.053389 -0.130340
-0.024570 0.005513 0.000000 -0.990031 -0.053389 -0.130340
-0.029896 0.123837 -0.008011 -0.922562 -0.053389 -0.382137
-0.021278 0.005513 -0.012285 -0.922562 -0.053389 -0.382137
-0.023733 0.005513 -0.006359 -0.922562 -0.053389 -0.382137
-0.026804 0.123837 -0.015475 -0.792222 -0.053389 -0.607892
-0.017373 0.005513 -0.017373 -0.792222 -0.053389 -0.607892
-0.021278 0.005513 -0.012285 -0.792222 -0.053389 -0.607892
-0.021885 0.123837 -0.021885 -0.607894 -0.053389 -0.792221
-0.012285 0.005513 -0.021278 -0.607894 -0.053389 -0.792221
-0.017373 0.005513 -0.017373 -0.607894 -0.053389 -0.792221
-0.030951 0.123837 0.000000 0.000000 1.000000 -0.000000
0.015475 0.123837 0.026804 0.000000 1.000000 -0.000000
0.015475 0.123837 -0.026804 0.000000 1.000000 -0.000000
-0.008011 0.123837 -0.029896 -0.130340 -0.053389 -0.990031
-0.000000 0.005513 -0.024570 -0.130340 -0.053389 -0.990031
-0.006359 0.005513 -0.023733 -0.130340 -0.053389 -0.990031
-0.015475 0.123837 -0.026804 -0.382138 -0.053389 -0.922562
-0.006359 0.005513 -0.023733 -0.382138 -0.053389 -0.922562
-0.012285 0.005513 -0.021278 -0.382138 -0.053389 -0.922562
0.023733 0.005513 -0.006359 0.894190 -0.251475 -0.370385
0.020054 0.000119 -0.011578 0.894190 -0.251475 -0.370385
0.021278 0.005513 -0.012285 0.894190 -0.251475 -0.370385
0.022367 0.000119 0.005993 0.000000 -1.000000 0.000000
-0.016374 0.000119 0.016374 0.000000 -1.000000 0.000000
-0.005993 0.000119 -0.022367 0.000000 -1.000000 0.000000
-0.017373 0.005513 0.017373 -0.767857 -0.251475 0.589199
-0.020054 0.000119 0.011578 -0.767857 -0.251475 0.589199
-0.016374 0.000119 0.016374 -0.767857 -0.251475 0.589199
-0.024570 0.005513 0.000000 -0.959584 -0.251475 -0.126331
-0.022367 0.000119 -0.005993 -0.959584 -0.251475 -0.126331
-0.023156 0.000119 0.000000 -0.959584 -0.251475 -0.126331
0.006359 0.005513 -0.023733 0.126332 -0.251475 -0.959584
0.000000 0.000119 -0.023156 0.126332 -0.251475 -0.959584
-0.000000 0.005513 -0.024570 0.126332 -0.251475 -0.959584
0.023733 0.005513 0.006359 0.894190 -0.251475 0.370385
0.020054 0.000119 0.011578 0.894190 -0.251475 0.370385
0.022367 0.000119 0.005993 0.894190 -0.251475 0.370385
-0.012285 0.005513 -0.021278 -0.589199 -0.251475 -0.767857
-0.016374 0.000119 -0.016374 -0.589199 -0.251475 -0.767857
-0.017373 0.005513 -0.017373 -0.589199 -0.251475 -0.767857
0.006359 0.005513 0.023733 0.370386 -0.251475 0.894189
0.011578 0.000119 0.020054 0.370386 -0.251475 0.894189
0.012285 0.005513 0.021278 0.370386 -0.251475 0.894189
0.017373 0.005513 -0.017373 0.589198 -0.251475 -0.767858
0.011578 0.000119 -0.020054 0.589198 -0.251475 -0.767858
0.012285 0.005513 -0.021278 0.589198 -0.251475 -0.767858
-0.006359 0.005513 0.023733 -0.370385 -0.251475 0.894190
-0.011578 0.000119 0.020054 -0.370385 -0.251475 0.894190
-0.005993 0.000119 0.022367 -0.370385 -0.251475 0.894190
-0.023733 0.005513 0.006359 -0.894190 -0.251475 0.370385
-0.020054 0.000119 0.011578 -0.894190 -0.251475 0.370385
-0.021278 0.005513 0.012285 -0.894190 -0.251475 0.370385
0.024570 0.005513 -0.000000 0.959583 -0.251475 -0.126332
0.022367 0.000119 -0.005993 0.959583 -0.251475 -0.126332
0.023733 0.005513 -0.006359 0.959583 -0.251475 -0.126332
-0.023733 0.005513 -0.006359 -0.894190 -0.251475 -0.370385
-0.020054 0.000119 -0.011578 -0.894190 -0.251475 -0.370385
-0.022367 0.000119 -0.005993 -0.894190 -0.251475 -0.370385
0.017373 0.005513 0.017373 0.767858 -0.251475 0.589198
0.020054 0.000119 0.011578 0.767858 -0.251475 0.589198
0.021278 0.005513 0.012285 0.767858 -0.251475 0.589198
-0.006359 0.005513 -0.023733 -0.370386 -0.251475 -0.894189
-0.011578 0.000119 -0.020054 -0.370386 -0.251475 -0.894189
-0.012285 0.005513 -0.021278 -0.370386 -0.251475 -0.894189
0.006359 0.005513 0.023733 0.126332 -0.251475 0.959584
0.000000 0.000119 0.023156 0.126332 -0.251475 0.959584
0.005993 0.000119 0.022367 0.126332 -0.251475 0.959584
0.021278 0.005513 -0.012285 0.767858 -0.251475 -0.589198
0.016374 0.000119 -0.016374 0.767858 -0.251475 -0.589198
0.017373 0.005513 -0.017373 0.767858 -0.251475 -0.589198
-0.012285 0.005513 0.021278 -0.589198 -0.251475 0.767858
-0.016374 0.000119 0.016374 -0.589198 -0.251475 0.767858
-0.011578 0.000119 0.020054 -0.589198 -0.251475 0.767858
-0.024570 0.005513 0.000000 -0.959584 -0.251475 0.126332
-0.022367 0.000119 0.005993 -0.959584 -0.251475 0.126332
-0.023733 0.005513 0.006359 -0.959584 -0.251475 0.126332
0.023733 0.005513 0.006359 0.959584 -0.251475 0.126331
0.023156 0.000119 -0.000000 0.959584 -0.251475 0.126331
0.024570 0.005513 -0.000000 0.959584 -0.251475 0.126331
-0.017373 0.005513 -0.017373 -0.767858 -0.251475 -0.589197
-0.020054 0.000119 -0.011578 -0.767858 -0.251475 -0.589197
-0.021278 0.005513 -0.012285 -0.767858 -0.251475 -0.589197
0.017373 0.005513 0.017373 0.589198 -0.251475 0.767858
0.011578 0.000119 0.020054 0.589198 -0.251475 0.767858
0.016374 0.000119 0.016374 0.589198 -0.251475 0.767858
-0.000000 0.005513 -0.024570 -0.126332 -0.251475 -0.959583
-0.005993 0.000119 -0.022367 -0.126332 -0.251475 -0.959583
-0.006359 0.005513 -0.023733 -0.126332 -0.251475 -0.959583
0.012285 0.005513 -0.021278 0.370385 -0.251475 -0.894190
0.005993 0.000119 -0.022367 0.370385 -0.251475 -0.894190
0.006359 0.005513 -0.023733 0.370385 -0.251475 -0.894190
0.000000 0.005513 0.024570 -0.126331 -0.251475 0.959584
-0.005993 0.000119 0.022367 -0.126331 -0.251475 0.959584
0.000000 0.000119 0.023156 -0.126331 -0.251475 0.959584
0.008011 0.123837 -0.029896 0.130340 -0.053389 -0.990031
0.015475 0.123837 -0.026804 0.382138 -0.053389 -0.922562
0.021885 0.123837 -0.021885 0.607893 -0.053389 -0.792222
0.021885 0.123837 -0.021885 0.792222 -0.053389 -0.607893
0.026804 0.123837 -0.015475 0.792222 -0.053389 -0.607893
0.021278 0.005513 -0.012285 0.792222 -0.053389 -0.607893
0.026804 0.123837 -0.015475 0.922562 -0.053389 -0.382138
0.029896 0.123837 -0.008011 0.922562 -0.053389 -0.382138
0.023733 0.005513 -0.006359 0.922562 -0.053389 -0.382138
0.030951 0.123837 -0.000000 0.990031 -0.053389 -0.130340
0.029896 0.123837 0.008011 0.990031 -0.053389 0.130340
0.026804 0.123837 0.015475 0.922562 -0.053389 0.382137
0.021885 0.123837 0.021885 0.792222 -0.053389 0.607893
0.021885 0.123837 0.021885 0.607894 -0.053389 0.792221
0.015475 0.123837 0.026804 0.607894 -0.053389 0.792221
0.012285 0.005513 0.021278 0.607894 -0.053389 0.792221
0.008011 0.123837 0.029896 0.382138 -0.053389 0.922562
0.000000 0.123837 0.030951 0.130340 -0.053389 0.990031
-0.008011 0.123837 0.029896 -0.130340 -0.053389 0.990031
-0.008011 0.123837 0.029896 -0.382137 -0.053389 0.922562
-0.021885 0.123837 0.021885 -0.607893 -0.053389 0.792222
-0.021885 0.123837 0.021885 -0.792221 -0.053389 0.607894
-0.026804 0.123837 0.015475 -0.792221 -0.053389 0.607894
-0.021278 0.005513 0.012285 -0.792221 -0.053389 0.607894
-0.029896 0.123837 0.008011 -0.922562 -0.053389 0.382138
-0.029896 0.123837 0.008011 -0.990031 -0.053389 0.130340
-0.030951 0.123837 0.000000 -0.990031 -0.053389 0.130340
-0.024570 0.005513 0.000000 -0.990031 -0.053389 0.130340
-0.030951 0.123837 0.000000 -0.990031 -0.053389 -0.130339
-0.029896 0.123837 -0.008011 -0.990031 -0.053389 -0.130339
-0.023733 0.005513 -0.006359 -0.990031 -0.053389 -0.130339
-0.026804 0.123837 -0.015475 -0.922562 -0.053389 -0.382137
-0.026804 0.123837 -0.015475 -0.792222 -0.053389 -0.607893
-0.021885 0.123837 -0.021885 -0.792222 -0.053389 -0.607893
-0.017373 0.005513 -0.017373 -0.792222 -0.053389 -0.607893
-0.015475 0.123837 -0.026804 -0.607894 -0.053389 -0.792221
0.008011 0.123837 -0.029896 0.000000 1.000000 0.000000
-0.000000 0.123837 -0.030951 0.000000 1.000000 0.000000
-0.008011 0.123837 -0.029896 0.000000 1.000000 0.000000
-0.015475 0.123837 -0.026804 0.000000 1.000000 0.000000
-0.021885 0.123837 -0.021885 0.000000 1.000000 0.000000
-0.026804 0.123837 -0.015475 0.000000 1.000000 0.000000
-0.029896 0.123837 -0.008011 0.000000 1.000000 0.000000
-0.029896 0.123837 0.008011 0.000000 1.000000 0.000000
-0.015475 0.123837 0.026804 0.000000 1.000000 0.000000
-0.026804 0.123837 0.015475 0.000000 1.000000 0.000000
-0.021885 0.123837 0.021885 0.000000 1.000000 0.000000
-0.008011 0.123837 0.029896 0.000000 1.000000 0.000000
0.000000 0.123837 0.030951 0.000000 1.000000 0.000000
0.008011 0.123837 0.029896 0.000000 1.000000 0.000000
0.021885 0.123837 0.021885 0.000000 1.000000 0.000000
0.030951 0.123837 -0.000000 0.000000 1.000000 0.000000
0.026804 0.123837 0.015475 0.000000 1.000000 0.000000
0.029896 0.123837 0.008011 0.000000 1.000000 0.000000
0.029896 0.123837 -0.008011 0.000000 1.000000 0.000000
0.026804 0.123837 -0.015475 0.000000 1.000000 0.000000
0.021885 0.123837 -0.021885 0.000000 1.000000 0.000000
-0.000000 0.123837 -0.030951 -0.130340 -0.053389 -0.990031
-0.008011 0.123837 -0.029896 -0.382138 -0.053389 -0.922562
0.022367 0.000119 -0.005993 0.894190 -0.251475 -0.370385
0.000000 0.000119 -0.023156 -0.000000 -1.000000 0.000000
0.005993 0.000119 -0.022367 -0.000000 -1.000000 0.000000
0.011578 0.000119 -0.020054 0.000000 -1.000000 0.000000
0.016374 0.000119 -0.016374 0.000000 -1.000000 0.000000
0.020054 0.000119 -0.011578 0.000000 -1.000000 0.000000
0.022367 0.000119 -0.005993 0.000000 -1.000000 0.000000
0.023156 0.000119 -0.000000 0.000000 -1.000000 -0.000000
0.020054 0.000119 0.011578 0.000000 -1.000000 0.000000
0.016374 0.000119 0.016374 0.000000 -1.000000 0.000000
0.011578 0.000119 0.020054 0.000000 -1.000000 0.000000
0.005993 0.000119 0.022367 0.000000 -1.000000 0.000000
0.000000 0.000119 0.023156 0.000000 -1.000000 0.000000
-0.005993 0.000119 0.022367 0.000000 -1.000000 0.000000
-0.011578 0.000119 0.020054 0.000000 -1.000000 0.000000
-0.020054 0.000119 0.011578 0.000000 -1.000000 0.000000
-0.022367 0.000119 0.005993 0.000000 -1.000000 0.000000
-0.023156 0.000119 0.000000 0.000000 -1.000000 0.000000
-0.022367 0.000119 -0.005993 0.000000 -1.000000 0.000000
-0.020054 0.000119 -0.011578 0.000000 -1.000000 0.000000
-0.016374 0.000119 -0.016374 0.000000 -1.000000 0.000000
-0.011578 0.000119 -0.020054 0.000000 -1.000000 0.000000
-0.017373 0.005513 0.017373 -0.767858 -0.251475 0.589198
-0.021278 0.005513 0.012285 -0.767858 -0.251475 0.589198
-0.020054 0.000119 0.011578 -0.767858 -0.251475 0.589198
-0.023733 0.005513 -0.006359 -0.959584 -0.251475 -0.126331
0.006359 0.005513 -0.023733 0.126332 -0.251475 -0.959583
0.005993 0.000119 -0.022367 0.126332 -0.251475 -0.959583
0.000000 0.000119 -0.023156 0.126332 -0.251475 -0.959583
0.021278 0.005513 0.012285 0.894190 -0.251475 0.370385
-0.012285 0.005513 -0.021278 -0.589199 -0.251475 -0.767858
-0.011578 0.000119 -0.020054 -0.589199 -0.251475 -0.767858
-0.016374 0.000119 -0.016374 -0.589199 -0.251475 -0.767858
0.005993 0.000119 0.022367 0.370386 -0.251475 0.894189
0.016374 0.000119 -0.016374 0.589198 -0.251475 -0.767858
-0.012285 0.005513 0.021278 -0.370385 -0.251475 0.894190
-0.022367 0.000119 0.005993 -0.894190 -0.251475 0.370385
0.024570 0.005513 -0.000000 0.959584 -0.251475 -0.126332
0.023156 0.000119 -0.000000 0.959584 -0.251475 -0.126332
0.022367 0.000119 -0.005993 0.959584 -0.251475 -0.126332
-0.021278 0.005513 -0.012285 -0.894190 -0.251475 -0.370385
0.016374 0.000119 0.016374 0.767858 -0.251475 0.589198
-0.005993 0.000119 -0.022367 -0.370386 -0.251475 -0.894189
0.000000 0.005513 0.024570 0.126332 -0.251475 0.959584
0.021278 0.005513 -0.012285 0.767858 -0.251475 -0.589199
0.020054 0.000119 -0.011578 0.767858 -0.251475 -0.589199
0.016374 0.000119 -0.016374 0.767858 -0.251475 -0.589199
-0.017373 0.005513 0.017373 -0.589198 -0.251475 0.767858
-0.023156 0.000119 0.000000 -0.959584 -0.251475 0.126332
0.023733 0.005513 0.006359 0.959584 -0.251475 0.126332
0.022367 0.000119 0.005993 0.959584 -0.251475 0.126332
0.023156 0.000119 -0.000000 0.959584 -0.251475 0.126332
-0.016374 0.000119 -0.016374 -0.767858 -0.251475 -0.589197
0.012285 0.005513 0.021278 0.589198 -0.251475 0.767858
-0.000000 0.005513 -0.024570 -0.126332 -0.251475 -0.959584
0.000000 0.000119 -0.023156 -0.126332 -0.251475 -0.959584
-0.005993 0.000119 -0.022367 -0.126332 -0.251475 -0.959584
0.011578 0.000119 -0.020054 0.370385 -0.251475 -0.894190
-0.006359 0.005513 0.023733 -0.126331 -0.251475 0.959584
3 0 1 2
3 3 4 5
3 6 7 8
3 9 10 11
3 12 13 14
3 15 16 17
3 18 19 20
3 21 22 23
3 24 25 26
3 27 28 29
3 30 31 32
3 33 34 35
3 36 37 38
3 39 40 41
3 42 43 44
3 45 46 47
3 48 49 50
3 51 52 53
3 54 55 56
3 57 58 59
3 60 61 62
3 63 64 65
3 66 67 68
3 69 70 71
3 72 73 74
3 75 76 77
3 78 79 80
3 81 82 83
3 84 85 86
3 87 88 89
3 90 91 92
3 93 94 95
3 96 97 98
3 99 100 101
3 102 103 104
3 105 106 107
3 108 109 110
3 111 112 113
3 114 115 116
3 117 118 119
3 120 121 122
3 123 124 125
3 126 127 128
3 129 130 131
3 132 133 134
3 135 136 137
3 138 139 140
3 141 142 143
3 144 145 146
3 147 148 149
3 0 150 1
3 3 151 4
3 6 152 7
3 153 154 155
3 156 157 158
3 15 159 16
3 18 160 19
3 21 161 22
3 24 162 25
3 163 164 165
3 30 166 31
3 33 167 34
3 36 168 37
3 39 169 40
3 42 170 43
3 171 172 173
3 48 174 49
3 175 176 177
3 178 179 180
3 57 181 58
3 182 183 184
3 63 185 64
3 68 186 187
3 187 188 68
3 189 190 66
3 191 192 66
3 66 193 194
3 195 196 194
3 194 197 67
3 198 199 67
3 67 200 201
3 202 203 201
3 201 204 205
3 205 206 68
3 68 188 189
3 190 191 66
3 193 195 194
3 197 198 67
3 200 202 201
3 201 205 68
3 68 189 66
3 66 194 67
3 67 201 68
3 69 207 70
3 72 208 73
3 75 209 76
3 80 210 211
3 211 212 213
3 213 214 215
3 215 216 78
3 78 217 218
3 218 219 78
3 220 221 222
3 222 223 79
3 79 224 225
3 225 226 227
3 227 228 80
3 229 230 80
3 80 211 213
3 213 215 78
3 78 219 220
3 220 222 79
3 79 225 227
3 228 229 80
3 80 213 78
3 78 220 79
3 79 227 80
3 231 232 233
3 84 234 85
3 235 236 237
3 90 238 91
3 239 240 241
3 96 242 97
3 99 243 100
3 102 244 103
3 105 245 106
3 246 247 248
3 111 249 112
3 114 250 115
3 117 251 118
3 120 252 121
3 253 254 255
3 126 256 127
3 129 257 130
3 258 259 260
3 135 261 136
3 138 262 139
3 263 264 265
3 144 266 145
3 147 267 148
