ply
format ascii 1.0
comment Created by Blender 2.78 (sub 0) - www.blender.org, source file: 'godis.blend'
element vertex 288
property float x
property float y
property float z
property float nx
property float ny
property float nz
element face 572
property list uchar uint vertex_indices
end_header
0.017435 0.007133 -0.017435 0.706076 -0.053835 -0.706076
0.021278 0.005513 -0.012285 0.862697 -0.087252 -0.498093
0.017373 0.005513 -0.017373 0.704398 -0.087252 -0.704398
-0.023817 0.007133 -0.006382 -0.964507 -0.053835 -0.258431
-0.021278 0.005513 -0.012285 -0.862697 -0.087252 -0.498062
-0.023733 0.005513 -0.006359 -0.962218 -0.087252 -0.257820
0.006382 0.007133 -0.023817 0.258431 -0.053835 -0.964507
-0.000000 0.005513 -0.024570 0.000000 -0.087252 -0.996185
-0.000000 0.007133 -0.024657 0.000000 -0.053835 -0.998535
-0.006359 0.005513 -0.023733 -0.257820 -0.087252 -0.962218
-0.006382 0.007133 -0.023817 -0.258431 -0.053835 -0.964507
0.006382 0.007133 0.023817 0.258431 -0.053835 0.964507
0.012285 0.005513 0.021278 0.498093 -0.087252 0.862697
0.012329 0.007133 0.021354 0.499252 -0.053835 0.864742
-0.012329 0.007133 -0.021354 -0.499252 -0.053835 -0.864742
-0.017373 0.005513 -0.017373 -0.704398 -0.087252 -0.704398
-0.017435 0.007133 -0.017435 -0.706076 -0.053835 -0.706076
0.017373 0.005513 0.017373 0.704398 -0.087252 0.704398
0.017435 0.007133 0.017435 0.706076 -0.053835 0.706076
-0.007981 0.121704 0.029785 -0.258431 -0.053835 0.964507
-0.015475 0.123837 0.026804 -0.376049 0.658986 0.651357
-0.015418 0.121704 0.026704 -0.499252 -0.053835 0.864742
0.021354 0.007133 0.012329 0.864742 -0.053835 0.499252
0.023733 0.005513 0.006359 0.962218 -0.087252 0.257820
0.023817 0.007133 0.006382 0.964507 -0.053835 0.258431
0.012329 0.007133 -0.021354 0.499252 -0.053835 -0.864742
0.012285 0.005513 -0.021278 0.498093 -0.087252 -0.862697
0.000000 0.007133 0.024657 0.000000 -0.053835 0.998535
0.006359 0.005513 0.023733 0.257820 -0.087252 0.962218
-0.024570 0.005513 0.000000 -0.996185 -0.087252 0.000000
-0.024657 0.007133 0.000000 -0.998535 -0.053835 0.000000
-0.023817 0.007133 0.006382 -0.964507 -0.053835 0.258431
-0.021278 0.005513 0.012285 -0.862697 -0.087252 0.498093
-0.021354 0.007133 0.012329 -0.864742 -0.053835 0.499252
-0.012329 0.007133 0.021354 -0.499252 -0.053835 0.864742
-0.017373 0.005513 0.017373 -0.704398 -0.087252 0.704398
-0.012285 0.005513 0.021278 -0.498062 -0.087252 0.862697
-0.017435 0.007133 0.017435 -0.706076 -0.053835 0.706076
-0.012285 0.005513 -0.021278 -0.498093 -0.087252 -0.862697
0.024570 0.005513 -0.000000 0.996185 -0.087252 0.000000
0.024657 0.007133 -0.000000 0.998535 -0.053835 0.000000
0.016111 0.000119 -0.016111 0.378857 -0.844325 -0.378857
0.012113 0.002693 -0.020980 0.476028 -0.305918 -0.824488
0.017130 0.002693 -0.017130 0.673177 -0.305918 -0.673177
-0.023733 0.005513 0.006359 -0.962218 -0.087252 0.257820
0.023817 0.007133 -0.006382 0.964507 -0.053835 -0.258431
0.021354 0.007133 -0.012329 0.864742 -0.053835 -0.499252
-0.006382 0.007133 0.023817 -0.258431 -0.053835 0.964507
0.000000 0.005513 0.024570 0.000000 -0.087252 0.996185
-0.021354 0.007133 -0.012329 -0.864742 -0.053835 -0.499252
0.006359 0.005513 -0.023733 0.257820 -0.087252 -0.962218
0.023733 0.005513 -0.006359 0.962218 -0.087252 -0.257820
-0.020980 0.002693 -0.012113 -0.824488 -0.305918 -0.475997
-0.022009 0.000119 -0.005897 -0.517563 -0.844325 -0.138676
-0.023400 0.002693 -0.006270 -0.919614 -0.305918 -0.246406
-0.011392 0.000119 -0.019732 -0.267891 -0.844325 -0.464034
-0.017130 0.002693 -0.017130 -0.673177 -0.305918 -0.673177
-0.012113 0.002693 -0.020980 -0.476028 -0.305918 -0.824488
0.011392 0.000119 -0.019732 0.267891 -0.844325 -0.464034
0.006270 0.002693 -0.023400 0.246406 -0.305918 -0.919614
-0.006270 0.002693 0.023400 -0.246406 -0.305918 0.919614
-0.011392 0.000119 0.019732 -0.267891 -0.844325 0.464034
-0.005897 0.000119 0.022009 -0.138676 -0.844325 0.517563
0.005897 0.000119 0.022009 0.138676 -0.844325 0.517563
0.012113 0.002693 0.020980 0.476028 -0.305918 0.824488
0.006270 0.002693 0.023400 0.246406 -0.305918 0.919614
0.000000 0.000119 -0.022785 0.000000 -0.844325 -0.535813
-0.006270 0.002693 -0.023400 -0.246406 -0.305918 -0.919614
0.000000 0.002693 -0.024226 0.000000 -0.305918 -0.952055
-0.005897 0.000119 -0.022009 -0.138676 -0.844325 -0.517563
-0.016111 0.000119 -0.016111 -0.378857 -0.844325 -0.378857
-0.022785 0.000119 0.000000 -0.535813 -0.844325 0.000000
-0.024226 0.002693 0.000000 -0.952055 -0.305918 0.000000
-0.023400 0.002693 0.006270 -0.919614 -0.305918 0.246406
-0.020980 0.002693 0.012113 -0.824488 -0.305918 0.476028
-0.016111 0.000119 0.016111 -0.378857 -0.844325 0.378857
-0.017130 0.002693 0.017130 -0.673177 -0.305918 0.673177
0.019732 0.000119 -0.011392 0.464034 -0.844325 -0.267891
0.020980 0.002693 -0.012113 0.824488 -0.305918 -0.476028
-0.012113 0.002693 0.020980 -0.476028 -0.305918 0.824488
0.017130 0.002693 0.017130 0.673177 -0.305918 0.673177
0.019732 0.000119 0.011392 0.464034 -0.844325 0.267891
0.020980 0.002693 0.012113 0.824488 -0.305918 0.476028
0.016111 0.000119 0.016111 0.378857 -0.844325 0.378857
0.000000 0.000119 0.022785 0.000000 -0.844325 0.535813
0.000000 0.002693 0.024226 0.000000 -0.305918 0.952055
-0.022009 0.000119 0.005897 -0.517563 -0.844325 0.138676
0.023400 0.002693 0.006270 0.919614 -0.305918 0.246406
0.022785 0.000119 -0.000000 0.535813 -0.844325 0.000000
0.024226 0.002693 -0.000000 0.952055 -0.305918 0.000000
0.022009 0.000119 0.005897 0.517563 -0.844325 0.138676
0.022009 0.000119 -0.005897 0.517563 -0.844325 -0.138676
0.023400 0.002693 -0.006270 0.919614 -0.305918 -0.246406
0.021278 0.005513 0.012285 0.862697 -0.087252 0.498093
-0.019732 0.000119 0.011392 -0.464034 -0.844325 0.267891
-0.014056 0.000119 0.014057 0.000000 -0.999969 0.000000
-0.026804 0.123837 -0.015475 -0.651357 0.658986 -0.376049
-0.019556 0.123837 -0.019556 0.462478 0.756432 0.462478
-0.021885 0.123837 -0.021885 -0.531846 0.658986 -0.531846
-0.023806 0.120897 0.013744 0.864620 0.056825 -0.499191
-0.020378 0.008603 0.005460 0.910489 0.333842 -0.243965
-0.026552 0.120897 0.007115 0.964354 0.056825 -0.258400
0.026804 0.123837 -0.015475 0.651357 0.658956 -0.376049
0.019556 0.123837 -0.019556 -0.462478 0.756432 0.462478
0.023951 0.123837 -0.013828 -0.566424 0.756432 0.327006
0.021885 0.123837 0.021885 0.531846 0.658986 0.531846
0.023951 0.123837 0.013828 -0.566424 0.756432 -0.327006
0.019556 0.123837 0.019556 -0.462478 0.756432 -0.462478
-0.008011 0.123837 0.029896 -0.194647 0.658986 0.726524
-0.013828 0.123837 0.023951 0.327006 0.756432 -0.566424
-0.030951 0.123837 0.000000 -0.752129 0.658986 0.000000
-0.026714 0.123837 -0.007158 0.631764 0.756432 0.169256
-0.029896 0.123837 -0.008011 -0.726524 0.658986 -0.194647
-0.000000 0.123837 -0.030951 0.000000 0.658986 -0.752129
-0.007158 0.123837 -0.026714 0.169256 0.756432 0.631764
0.000000 0.123837 -0.027656 0.000000 0.756432 0.654042
0.015475 0.123837 -0.026804 0.376049 0.658986 -0.651357
0.007158 0.123837 -0.026714 -0.169256 0.756432 0.631764
0.013828 0.123837 -0.023951 -0.327006 0.756432 0.566424
0.030951 0.123837 -0.000000 0.752129 0.658986 0.000000
0.026714 0.123837 0.007158 -0.631764 0.756432 -0.169256
0.029896 0.123837 0.008011 0.726524 0.658986 0.194647
0.000000 0.123837 0.030951 0.000000 0.658956 0.752129
0.007158 0.123837 0.026714 -0.169256 0.756432 -0.631764
0.000000 0.123837 0.027656 0.000000 0.756432 -0.654042
-0.026804 0.123837 0.015475 -0.651357 0.658986 0.376049
-0.026714 0.123837 0.007158 0.631764 0.756432 -0.169256
-0.029896 0.123837 0.008011 -0.726524 0.658956 0.194647
-0.013828 0.123837 -0.023951 0.327006 0.756432 0.566424
-0.015475 0.123837 -0.026804 -0.376049 0.658986 -0.651357
0.026714 0.123837 -0.007158 -0.631764 0.756432 0.169256
0.029896 0.123837 -0.008011 0.726524 0.658986 -0.194647
0.013828 0.123837 0.023951 -0.327006 0.756432 -0.566424
0.015475 0.123837 0.026804 0.376049 0.658986 0.651357
-0.019556 0.123837 0.019556 0.462478 0.756432 -0.462478
-0.021885 0.123837 0.021885 -0.531846 0.658986 0.531846
-0.023951 0.123837 -0.013828 0.566424 0.756432 0.327006
0.021885 0.123837 -0.021885 0.531846 0.658956 -0.531846
0.026804 0.123837 0.015475 0.651357 0.658956 0.376049
-0.007158 0.123837 0.026714 0.169256 0.756432 -0.631764
0.008011 0.123837 -0.029896 0.194647 0.658986 -0.726524
-0.027656 0.123837 0.000000 0.654042 0.756432 0.000000
-0.008011 0.123837 -0.029896 -0.194647 0.658956 -0.726524
0.027656 0.123837 -0.000000 -0.654042 0.756432 0.000000
0.008011 0.123837 0.029896 0.194647 0.658986 0.726524
-0.023951 0.123837 0.013828 0.566424 0.756432 -0.327006
0.020378 0.008603 -0.005460 -0.910489 0.333842 0.243965
0.019092 0.005909 -0.000000 -0.477767 0.878475 0.000000
0.021097 0.008603 -0.000000 -0.942595 0.333842 0.000000
0.019437 0.120897 0.019437 -0.705954 0.056825 -0.705954
0.010548 0.008603 0.018270 -0.471297 0.333842 -0.816309
0.013744 0.120897 0.023806 -0.499191 0.056825 -0.864620
0.013744 0.120897 -0.023806 -0.499191 0.056825 0.864620
0.014918 0.008603 -0.014918 -0.666524 0.333842 0.666524
0.019437 0.120897 -0.019437 -0.705954 0.056825 0.705954
-0.021097 0.008603 0.000000 0.942595 0.333842 0.000000
-0.027489 0.120897 0.000000 0.998383 0.056825 0.000000
0.005460 0.008603 0.020378 -0.243965 0.333842 -0.910489
0.007115 0.120897 0.026552 -0.258400 0.056825 -0.964354
0.018270 0.008603 -0.010548 -0.816309 0.333842 0.471297
0.023806 0.120897 -0.013744 -0.864620 0.056825 0.499191
-0.026552 0.120897 -0.007115 0.964354 0.056825 0.258370
-0.020378 0.008603 -0.005460 0.910489 0.333842 0.243965
0.000000 0.008603 0.021097 0.000000 0.333842 -0.942595
0.000000 0.120897 0.027489 0.000000 0.056825 -0.998383
0.026552 0.120897 -0.007115 -0.964354 0.056825 0.258400
-0.018270 0.008603 -0.010548 0.816309 0.333842 0.471297
-0.023806 0.120897 -0.013744 0.864620 0.056825 0.499161
-0.005460 0.008603 0.020378 0.243965 0.333842 -0.910489
-0.007115 0.120897 0.026552 0.258400 0.056825 -0.964354
0.027489 0.120897 -0.000000 -0.998383 0.056825 0.000000
-0.014918 0.008603 -0.014918 0.666524 0.333842 0.666524
-0.019437 0.120897 -0.019437 0.705954 0.056825 0.705954
-0.010548 0.008603 0.018270 0.471297 0.333842 -0.816309
-0.013744 0.120897 0.023806 0.499191 0.056825 -0.864620
0.020378 0.008603 0.005460 -0.910489 0.333842 -0.243965
0.026552 0.120897 0.007115 -0.964354 0.056825 -0.258400
-0.010548 0.008603 -0.018270 0.471297 0.333842 0.816309
-0.013744 0.120897 -0.023806 0.499191 0.056825 0.864620
-0.014918 0.008603 0.014918 0.666524 0.333842 -0.666524
-0.019437 0.120897 0.019437 0.705954 0.056825 -0.705954
0.018270 0.008603 0.010548 -0.816309 0.333842 -0.471297
0.023806 0.120897 0.013744 -0.864620 0.056825 -0.499191
-0.005460 0.008603 -0.020378 0.243965 0.333842 0.910489
-0.007115 0.120897 -0.026552 0.258400 0.056825 0.964354
0.000000 0.120897 -0.027489 0.000000 0.056825 0.998383
0.005460 0.008603 -0.020378 -0.243965 0.333842 0.910489
0.007115 0.120897 -0.026552 -0.258400 0.056825 0.964354
-0.018270 0.008603 0.010548 0.816309 0.333842 -0.471297
0.014918 0.008603 0.014918 -0.666524 0.333842 -0.666524
0.000000 0.008603 -0.021097 0.000000 0.333842 0.942595
0.010548 0.008603 -0.018270 -0.471297 0.333842 0.816309
0.013500 0.005909 0.013500 -0.337840 0.878475 -0.337840
0.009120 0.005909 0.015796 0.000000 1.000000 0.000000
0.009546 0.005909 0.016534 -0.238868 0.878475 -0.413770
-0.016534 0.005909 -0.009546 0.413770 0.878475 0.238868
-0.013500 0.005909 -0.013500 0.337840 0.878475 0.337840
-0.009546 0.005909 0.016534 0.238868 0.878475 -0.413770
0.018442 0.005909 0.004941 -0.461501 0.878475 -0.123630
-0.009546 0.005909 -0.016534 0.238868 0.878475 0.413770
-0.013500 0.005909 0.013500 0.337840 0.878475 -0.337840
0.016534 0.005909 0.009546 -0.413770 0.878475 -0.238868
-0.004941 0.005909 -0.018442 0.123630 0.878475 0.461501
0.004941 0.005909 -0.018442 -0.123630 0.878475 0.461501
-0.016534 0.005909 0.009546 0.413770 0.878475 -0.238868
0.000000 0.005909 -0.019092 0.000000 0.878475 0.477767
0.009546 0.005909 -0.016534 -0.238868 0.878475 0.413770
-0.018442 0.005909 0.004941 0.461501 0.878475 -0.123630
0.013500 0.005909 -0.013500 -0.337840 0.878475 0.337840
-0.019092 0.005909 0.000000 0.477767 0.878475 0.000000
0.004941 0.005909 0.018442 -0.123630 0.878475 -0.461501
0.016534 0.005909 -0.009546 -0.413770 0.878475 0.238868
-0.018442 0.005909 -0.004941 0.461501 0.878475 0.123630
0.000000 0.005909 0.019092 0.000000 0.878475 -0.477767
0.018442 0.005909 -0.004941 -0.461501 0.878475 0.123630
-0.004941 0.005909 0.018442 0.123630 0.878475 -0.461501
-0.012897 0.005909 0.012897 0.000000 1.000000 0.000000
0.012897 0.005909 -0.012897 0.000000 1.000000 0.000000
-0.004721 0.005909 -0.017618 0.000000 1.000000 0.000000
-0.018240 0.005909 0.000000 0.000000 1.000000 0.000000
0.004721 0.005909 0.017618 0.000000 0.999969 0.000000
0.015796 0.005909 -0.009120 0.000000 1.000000 0.000000
-0.017618 0.005909 -0.004721 0.000000 1.000000 0.000000
0.000000 0.005909 0.018240 0.000000 1.000000 0.000000
0.017618 0.005909 -0.004721 0.000000 1.000000 0.000000
-0.015796 0.005909 -0.009120 0.000000 1.000000 0.000000
-0.004721 0.005909 0.017618 0.000000 1.000000 0.000000
0.018240 0.005909 -0.000000 0.000000 1.000000 0.000000
-0.012897 0.005909 -0.012897 0.000000 1.000000 0.000000
-0.009120 0.005909 0.015796 0.000000 1.000000 0.000000
0.017618 0.005909 0.004721 0.000000 1.000000 0.000000
-0.009120 0.005909 -0.015796 0.000000 1.000000 0.000000
0.015796 0.005909 0.009120 0.000000 1.000000 0.000000
0.004721 0.005909 -0.017618 0.000000 1.000000 0.000000
-0.015796 0.005909 0.009120 0.000000 1.000000 0.000000
0.012897 0.005909 0.012897 0.000000 1.000000 0.000000
0.000000 0.005909 -0.018240 0.000000 1.000000 0.000000
0.009120 0.005909 -0.015796 0.000000 1.000000 0.000000
-0.017618 0.005909 0.004721 0.000000 1.000000 0.000000
0.014056 0.000119 -0.014056 0.000000 -1.000000 0.000000
0.019202 0.000119 0.005145 0.000000 -1.000000 0.000000
0.017216 0.000119 0.009939 0.000000 -1.000000 0.000000
-0.005145 0.000119 -0.019202 0.000000 -0.999969 0.000000
0.005897 0.000119 -0.022009 0.138676 -0.844325 -0.517563
0.009939 0.000119 -0.017216 0.000000 -1.000000 0.000000
0.005145 0.000119 -0.019202 0.000000 -1.000000 0.000000
-0.017216 0.000119 0.009939 0.000000 -1.000000 0.000000
0.009939 0.000119 0.017216 0.000000 -1.000000 0.000000
0.014057 0.000119 0.014056 0.000000 -1.000000 0.000000
-0.019879 0.000119 0.000000 0.000000 -1.000000 0.000000
-0.019202 0.000119 0.005145 0.000000 -1.000000 0.000000
0.011392 0.000119 0.019732 0.267891 -0.844325 0.464034
0.017216 0.000119 -0.009939 0.000000 -1.000000 0.000000
0.000000 0.000119 0.019879 0.000000 -1.000000 0.000000
0.005145 0.000119 0.019202 0.000000 -1.000000 0.000000
-0.017216 0.000119 -0.009939 0.000000 -1.000000 0.000000
-0.019202 0.000119 -0.005145 0.000000 -1.000000 0.000000
0.019879 0.000119 -0.000000 0.000000 -1.000000 0.000000
0.019202 0.000119 -0.005145 0.000000 -1.000000 0.000000
-0.019732 0.000119 -0.011392 -0.464034 -0.844325 -0.267891
-0.014057 0.000119 -0.014056 0.000000 -1.000000 0.000000
-0.009939 0.000119 0.017216 0.000000 -1.000000 0.000000
-0.005145 0.000119 0.019202 0.000000 -1.000000 0.000000
-0.009939 0.000119 -0.017216 0.000000 -1.000000 0.000000
0.000000 0.000119 -0.019879 0.000000 -0.999969 0.000000
-0.006359 0.005513 0.023733 -0.257820 -0.087252 0.962218
0.021804 0.121704 0.021804 0.706076 -0.053835 0.706076
0.026704 0.121704 0.015418 0.864742 -0.053835 0.499252
0.030836 0.121704 -0.000000 0.998535 -0.053835 0.000000
0.029785 0.121704 -0.007981 0.964507 -0.053835 -0.258431
0.015418 0.121704 -0.026704 0.499252 -0.053835 -0.864742
0.007981 0.121704 -0.029785 0.258431 -0.053835 -0.964507
-0.021804 0.121704 -0.021804 -0.706076 -0.053835 -0.706076
-0.026704 0.121704 -0.015418 -0.864742 -0.053835 -0.499252
0.000000 0.121704 0.030836 0.000000 -0.053835 0.998535
0.026704 0.121704 -0.015418 0.864742 -0.053835 -0.499252
-0.030836 0.121704 0.000000 -0.998535 -0.053835 0.000000
-0.029785 0.121704 0.007981 -0.964507 -0.053835 0.258431
0.029785 0.121704 0.007981 0.964507 -0.053835 0.258431
-0.007981 0.121704 -0.029785 -0.258431 -0.053835 -0.964507
-0.015418 0.121704 -0.026704 -0.499252 -0.053835 -0.864742
-0.026704 0.121704 0.015418 -0.864742 -0.053835 0.499252
-0.021804 0.121704 0.021804 -0.706076 -0.053835 0.706076
-0.029785 0.121704 -0.007981 -0.964507 -0.053835 -0.258431
0.007981 0.121704 0.029785 0.258431 -0.053835 0.964507
0.021804 0.121704 -0.021804 0.706076 -0.053835 -0.706076
0.015418 0.121704 0.026704 0.499252 -0.053835 0.864742
-0.000000 0.121704 -0.030836 0.000000 -0.053835 -0.998535
3 0 1 2
3 3 4 5
3 6 7 8
3 8 9 10
3 11 12 13
3 14 15 16
3 13 17 18
3 19 20 21
3 22 23 24
3 25 2 26
3 27 28 11
3 3 29 30
3 31 32 33
3 34 35 36
3 33 35 37
3 14 9 38
3 24 39 40
3 41 42 43
3 30 44 31
3 45 1 46
3 47 48 27
3 16 4 49
3 25 50 6
3 40 51 45
3 52 53 54
3 55 56 57
3 58 59 42
3 60 61 62
3 63 64 65
3 66 67 68
3 69 57 67
3 70 52 56
3 54 71 72
3 71 73 72
3 74 75 76
3 59 66 68
3 77 43 78
3 79 75 61
3 80 81 82
3 64 83 80
3 60 84 85
3 86 74 73
3 87 88 89
3 82 90 87
3 91 78 92
3 88 92 89
3 85 63 65
3 18 93 22
3 94 95 75
3 96 97 98
3 99 100 101
3 102 103 104
3 105 106 107
3 108 109 20
3 110 111 112
3 113 114 115
3 116 117 118
3 119 120 121
3 122 123 124
3 125 126 127
3 98 128 129
3 102 130 131
3 105 132 133
3 20 134 135
3 112 136 96
3 116 103 137
3 121 106 138
3 108 124 139
3 113 117 140
3 127 141 110
3 129 114 142
3 119 130 143
3 133 123 144
3 135 145 125
3 146 147 148
3 149 150 151
3 152 153 154
3 101 155 156
3 151 157 158
3 154 159 160
3 161 155 162
3 158 163 164
3 160 146 165
3 161 166 167
3 164 168 169
3 165 148 170
3 167 171 172
3 169 173 174
3 170 175 176
3 172 177 178
3 174 179 180
3 176 181 182
3 178 183 184
3 185 186 187
3 180 188 99
3 182 189 149
3 184 190 185
3 187 191 152
3 192 193 194
3 171 195 196
3 168 197 173
3 175 147 198
3 171 199 177
3 173 200 179
3 175 201 181
3 177 202 183
3 190 203 186
3 179 204 188
3 181 192 189
3 183 205 190
3 191 203 206
3 188 207 100
3 189 194 150
3 153 206 208
3 100 209 155
3 157 194 210
3 153 211 159
3 155 212 162
3 157 213 163
3 146 211 214
3 162 195 166
3 168 213 215
3 216 217 218
3 206 217 208
3 207 219 209
3 194 220 210
3 211 217 221
3 209 222 212
3 210 223 213
3 211 224 214
3 212 225 195
3 215 223 226
3 214 227 147
3 196 225 228
3 215 229 197
3 198 227 230
3 199 228 231
3 197 216 200
3 198 232 201
3 199 218 202
3 205 233 203
3 204 216 234
3 192 232 235
3 202 236 205
3 206 233 237
3 207 234 238
3 239 240 95
3 83 241 81
3 66 242 69
3 243 244 245
3 86 246 94
3 83 247 248
3 58 239 244
3 86 249 250
3 63 247 251
3 41 252 239
3 53 249 71
3 63 253 254
3 91 252 77
3 53 255 256
3 62 253 84
3 91 257 258
3 259 260 255
3 62 261 262
3 90 257 88
3 70 263 260
3 75 261 61
3 90 241 240
3 69 263 55
3 243 264 66
3 48 65 28
3 89 51 39
3 92 1 51
3 93 87 23
3 87 39 23
3 73 32 44
3 48 60 85
3 12 80 17
3 80 93 17
3 35 79 36
3 78 2 1
3 50 68 7
3 32 76 35
3 29 73 44
3 5 72 29
3 56 4 15
3 67 38 9
3 7 67 9
3 65 12 28
3 265 79 60
3 42 50 26
3 57 15 38
3 5 52 54
3 43 26 2
3 266 22 267
3 268 45 269
3 270 6 271
3 272 49 273
3 19 27 274
3 269 46 275
3 276 31 277
3 278 40 268
3 279 14 280
3 281 37 282
3 282 34 21
3 277 33 281
3 283 30 276
3 274 11 284
3 285 25 270
3 267 24 278
3 47 36 265
3 286 18 266
3 280 16 272
3 284 13 286
3 287 10 279
3 271 8 287
3 273 3 283
3 275 0 285
3 102 285 137
3 96 283 112
3 140 287 113
3 113 279 142
3 144 286 133
3 129 272 98
3 133 266 105
3 138 278 121
3 116 285 270
3 144 274 284
3 110 283 276
3 127 281 125
3 135 21 20
3 125 282 135
3 142 280 129
3 119 278 268
3 110 277 127
3 131 275 102
3 108 274 122
3 98 273 96
3 116 271 140
3 131 268 269
3 105 267 138
3 19 34 47
3 117 152 118
3 114 185 115
3 106 149 107
3 134 99 145
3 115 187 117
3 128 184 114
3 120 182 106
3 134 174 180
3 97 178 128
3 120 170 176
3 139 174 109
3 97 167 172
3 130 170 143
3 124 169 139
3 111 167 136
3 104 165 130
3 123 164 124
3 141 161 111
3 103 160 104
3 132 158 123
3 126 156 141
3 118 154 103
3 107 151 132
3 145 101 126
3 0 46 1
3 3 49 4
3 6 50 7
3 8 7 9
3 11 28 12
3 14 38 15
3 13 12 17
3 19 108 20
3 22 93 23
3 25 0 2
3 27 48 28
3 3 5 29
3 31 44 32
3 34 37 35
3 33 32 35
3 14 10 9
3 24 23 39
3 41 58 42
3 30 29 44
3 45 51 1
3 47 265 48
3 16 15 4
3 25 26 50
3 40 39 51
3 52 259 53
3 55 70 56
3 58 243 59
3 60 79 61
3 63 251 64
3 66 69 67
3 69 55 57
3 70 259 52
3 54 53 71
3 71 86 73
3 74 94 75
3 59 243 66
3 77 41 43
3 79 76 75
3 80 83 81
3 64 251 83
3 60 62 84
3 86 94 74
3 87 90 88
3 82 81 90
3 91 77 78
3 88 91 92
3 85 84 63
3 18 17 93
3 94 246 95
3 96 136 97
3 99 188 100
3 102 137 103
3 105 138 106
3 108 139 109
3 110 141 111
3 113 142 114
3 116 140 117
3 119 143 120
3 122 144 123
3 125 145 126
3 98 97 128
3 102 104 130
3 105 107 132
3 20 109 134
3 112 111 136
3 116 118 103
3 121 120 106
3 108 122 124
3 113 115 117
3 127 126 141
3 129 128 114
3 119 131 130
3 133 132 123
3 135 134 145
3 146 214 147
3 149 189 150
3 152 191 153
3 101 100 155
3 151 150 157
3 154 153 159
3 161 156 155
3 158 157 163
3 160 159 146
3 161 162 166
3 164 163 168
3 165 146 148
3 167 166 171
3 169 168 173
3 170 148 175
3 172 171 177
3 174 173 179
3 176 175 181
3 178 177 183
3 185 190 186
3 180 179 188
3 182 181 189
3 184 183 190
3 187 186 191
3 192 235 193
3 171 166 195
3 168 215 197
3 175 148 147
3 171 196 199
3 173 197 200
3 175 198 201
3 177 199 202
3 190 205 203
3 179 200 204
3 181 201 192
3 183 202 205
3 191 186 203
3 188 204 207
3 189 192 194
3 153 191 206
3 100 207 209
3 157 150 194
3 153 208 211
3 155 209 212
3 157 210 213
3 146 159 211
3 162 212 195
3 168 163 213
3 218 231 228
3 228 225 222
3 222 219 238
3 238 234 216
3 216 229 226
3 226 223 220
3 220 193 235
3 235 232 230
3 230 227 224
3 224 221 217
3 217 237 233
3 233 236 217
3 218 228 222
3 222 238 218
3 216 226 230
3 220 235 230
3 230 224 217
3 217 236 218
3 218 238 216
3 226 220 230
3 230 217 216
3 206 237 217
3 207 238 219
3 194 193 220
3 211 208 217
3 209 219 222
3 210 220 223
3 211 221 224
3 212 222 225
3 215 213 223
3 214 224 227
3 196 195 225
3 215 226 229
3 198 147 227
3 199 196 228
3 197 229 216
3 198 230 232
3 199 231 218
3 205 236 233
3 204 200 216
3 192 201 232
3 202 218 236
3 206 203 233
3 207 204 234
3 95 246 250
3 250 249 95
3 256 255 242
3 260 263 242
3 242 264 245
3 245 244 239
3 239 252 258
3 258 257 240
3 240 241 248
3 248 247 254
3 254 253 262
3 262 261 95
3 95 249 256
3 255 260 242
3 242 245 239
3 239 258 240
3 240 248 95
3 254 262 95
3 95 256 242
3 242 239 95
3 248 254 95
3 83 248 241
3 66 264 242
3 243 58 244
3 86 250 246
3 83 251 247
3 58 41 239
3 86 71 249
3 63 254 247
3 41 77 252
3 53 256 249
3 63 84 253
3 91 258 252
3 53 259 255
3 62 262 253
3 91 88 257
3 259 70 260
3 62 61 261
3 90 240 257
3 70 55 263
3 75 95 261
3 90 81 241
3 69 242 263
3 243 245 264
3 48 85 65
3 89 92 51
3 92 78 1
3 93 82 87
3 87 89 39
3 73 74 32
3 48 265 60
3 12 64 80
3 80 82 93
3 35 76 79
3 78 43 2
3 50 59 68
3 32 74 76
3 29 72 73
3 5 54 72
3 56 52 4
3 67 57 38
3 7 68 67
3 65 64 12
3 265 36 79
3 42 59 50
3 57 56 15
3 5 4 52
3 43 42 26
3 266 18 22
3 268 40 45
3 270 25 6
3 272 16 49
3 19 47 27
3 269 45 46
3 276 30 31
3 278 24 40
3 279 10 14
3 281 33 37
3 282 37 34
3 277 31 33
3 283 3 30
3 274 27 11
3 285 0 25
3 267 22 24
3 47 34 36
3 286 13 18
3 280 14 16
3 284 11 13
3 287 8 10
3 271 6 8
3 273 49 3
3 275 46 0
3 102 275 285
3 96 273 283
3 140 271 287
3 113 287 279
3 144 284 286
3 129 280 272
3 133 286 266
3 138 267 278
3 116 137 285
3 144 122 274
3 110 112 283
3 127 277 281
3 135 282 21
3 125 281 282
3 142 279 280
3 119 121 278
3 110 276 277
3 131 269 275
3 108 19 274
3 98 272 273
3 116 270 271
3 131 119 268
3 105 266 267
3 19 21 34
3 117 187 152
3 114 184 185
3 106 182 149
3 134 180 99
3 115 185 187
3 128 178 184
3 120 176 182
3 134 109 174
3 97 172 178
3 120 143 170
3 139 169 174
3 97 136 167
3 130 165 170
3 124 164 169
3 111 161 167
3 104 160 165
3 123 158 164
3 141 156 161
3 103 154 160
3 132 151 158
3 126 101 156
3 118 152 154
3 107 149 151
3 145 99 101
