ply
format ascii 1.0
comment Created by Blender 2.78 (sub 0) - www.blender.org, source file: 'pokal.blend'
element vertex 660
property float x
property float y
property float z
property float nx
property float ny
property float nz
element face 272
property list uchar uint vertex_indices
end_header
0.030387 0.133793 -0.030387 -0.092235 0.986400 0.136046
0.015498 0.133370 -0.037416 -0.092235 0.986400 0.136046
0.028483 0.133352 -0.028483 -0.092235 0.986400 0.136046
-0.000000 0.132396 -0.044292 0.135768 0.669562 -0.730242
0.016535 0.133812 -0.039919 0.135768 0.669562 -0.730242
0.017026 0.132419 -0.041105 0.135768 0.669562 -0.730242
0.031319 0.132396 -0.031319 0.612362 0.669561 -0.420357
0.039919 0.133812 -0.016535 0.612362 0.669561 -0.420357
0.041105 0.132419 -0.017026 0.612362 0.669561 -0.420357
0.044292 0.132396 0.000000 0.730242 0.669562 0.135768
0.039919 0.133812 0.016535 0.730242 0.669562 0.135768
0.041105 0.132419 0.017026 0.730242 0.669562 0.135768
0.031319 0.132396 0.031319 0.420357 0.669561 0.612362
0.016535 0.133812 0.039919 0.420357 0.669561 0.612362
0.017026 0.132419 0.041105 0.420357 0.669561 0.612362
-0.000000 0.132396 0.044292 -0.135768 0.669562 0.730242
-0.016535 0.133812 0.039919 -0.135768 0.669562 0.730242
-0.017026 0.132419 0.041105 -0.135768 0.669562 0.730242
-0.031319 0.132396 0.031319 -0.612362 0.669562 0.420357
-0.039919 0.133812 0.016535 -0.612362 0.669562 0.420357
-0.041105 0.132419 0.017026 -0.612362 0.669562 0.420357
-0.044292 0.132396 -0.000000 -0.730242 0.669562 -0.135768
-0.039919 0.133812 -0.016535 -0.730242 0.669562 -0.135768
-0.041105 0.132419 -0.017026 -0.730242 0.669562 -0.135768
-0.031319 0.132396 -0.031319 -0.420357 0.669561 -0.612362
-0.016535 0.133812 -0.039919 -0.420357 0.669561 -0.612362
-0.017026 0.132419 -0.041105 -0.420357 0.669561 -0.612362
0.016535 0.133812 -0.039919 0.420357 0.669561 -0.612362
0.031319 0.132396 -0.031319 0.420357 0.669561 -0.612362
0.017026 0.132419 -0.041105 0.420357 0.669561 -0.612362
0.039919 0.133812 -0.016535 0.730242 0.669562 -0.135768
0.044292 0.132396 0.000000 0.730242 0.669562 -0.135768
0.041105 0.132419 -0.017026 0.730242 0.669562 -0.135768
0.039919 0.133812 0.016535 0.612362 0.669561 0.420357
0.031319 0.132396 0.031319 0.612362 0.669561 0.420357
0.041105 0.132419 0.017026 0.612362 0.669561 0.420357
0.016535 0.133812 0.039919 0.135767 0.669562 0.730242
-0.000000 0.132396 0.044292 0.135767 0.669562 0.730242
0.017026 0.132419 0.041105 0.135767 0.669562 0.730242
-0.016535 0.133812 0.039919 -0.420357 0.669562 0.612362
-0.031319 0.132396 0.031319 -0.420357 0.669562 0.612362
-0.017026 0.132419 0.041105 -0.420357 0.669562 0.612362
-0.039919 0.133812 0.016535 -0.730242 0.669562 0.135768
-0.044292 0.132396 -0.000000 -0.730242 0.669562 0.135768
-0.041105 0.132419 0.017026 -0.730242 0.669562 0.135768
-0.039919 0.133812 -0.016535 -0.612362 0.669562 -0.420357
-0.031319 0.132396 -0.031319 -0.612362 0.669562 -0.420357
-0.041105 0.132419 -0.017026 -0.612362 0.669562 -0.420357
-0.016535 0.133812 -0.039919 -0.135768 0.669562 -0.730242
-0.000000 0.132396 -0.044292 -0.135768 0.669562 -0.730242
-0.017026 0.132419 -0.041105 -0.135768 0.669562 -0.730242
0.027399 0.003324 0.011349 0.739201 -0.599859 0.306187
0.025278 0.000262 0.010470 0.739201 -0.599859 0.306187
0.029615 0.000262 0.000000 0.739201 -0.599859 0.306187
0.027399 0.003324 -0.011349 0.739201 -0.599859 -0.306187
0.025278 0.000262 -0.010470 0.739201 -0.599859 -0.306187
0.020941 0.000262 -0.020941 0.739201 -0.599859 -0.306187
0.011349 0.003324 -0.027399 0.306187 -0.599859 -0.739201
0.010470 0.000262 -0.025278 0.306187 -0.599859 -0.739201
-0.000000 0.000262 -0.029615 0.306187 -0.599859 -0.739201
-0.011349 0.003324 -0.027399 -0.306187 -0.599859 -0.739201
-0.010470 0.000262 -0.025278 -0.306187 -0.599859 -0.739201
-0.020941 0.000262 -0.020941 -0.306187 -0.599859 -0.739201
-0.027399 0.003324 -0.011349 -0.739201 -0.599859 -0.306187
-0.025278 0.000262 -0.010470 -0.739201 -0.599859 -0.306187
-0.029615 0.000262 -0.000000 -0.739201 -0.599859 -0.306187
-0.027399 0.003324 0.011349 -0.739201 -0.599859 0.306187
-0.025278 0.000262 0.010470 -0.739201 -0.599859 0.306187
-0.020941 0.000262 0.020941 -0.739201 -0.599859 0.306187
-0.011349 0.003324 0.027399 -0.306187 -0.599859 0.739201
-0.010470 0.000262 0.025278 -0.306187 -0.599859 0.739201
-0.000000 0.000262 0.029615 -0.306187 -0.599859 0.739201
0.011349 0.003324 0.027399 0.306187 -0.599859 0.739201
0.010470 0.000262 0.025278 0.306187 -0.599859 0.739201
0.020941 0.000262 0.020941 0.306187 -0.599859 0.739201
0.000000 0.133793 -0.042974 -0.030979 0.986399 0.161420
0.015498 0.133370 -0.037416 -0.030979 0.986399 0.161420
0.016535 0.133812 -0.039919 -0.030979 0.986399 0.161420
-0.030387 0.133793 0.030387 0.092235 0.986400 -0.136046
-0.015498 0.133370 0.037416 0.092235 0.986400 -0.136046
-0.028483 0.133352 0.028483 0.092235 0.986400 -0.136046
0.042974 0.133793 0.000000 -0.161420 0.986399 -0.030979
0.037416 0.133370 0.015498 -0.161420 0.986399 -0.030979
0.039919 0.133812 0.016535 -0.161420 0.986399 -0.030979
-0.000000 0.133793 0.042974 0.030979 0.986399 -0.161420
-0.015498 0.133370 0.037416 0.030979 0.986399 -0.161420
-0.016535 0.133812 0.039919 0.030979 0.986399 -0.161420
0.042974 0.133793 0.000000 -0.161419 0.986400 0.030979
0.037416 0.133370 -0.015498 -0.161419 0.986400 0.030979
0.040280 0.133352 0.000000 -0.161419 0.986400 0.030979
-0.042974 0.133793 -0.000000 0.161420 0.986399 0.030979
-0.037416 0.133370 -0.015498 0.161420 0.986399 0.030979
-0.039919 0.133812 -0.016535 0.161420 0.986399 0.030979
-0.042974 0.133793 -0.000000 0.161419 0.986400 -0.030979
-0.037416 0.133370 0.015498 0.161419 0.986400 -0.030979
-0.040280 0.133352 -0.000000 0.161419 0.986400 -0.030979
0.030387 0.133793 0.030387 -0.136046 0.986400 -0.092235
0.037416 0.133370 0.015498 -0.136046 0.986400 -0.092235
0.028483 0.133352 0.028483 -0.136046 0.986400 -0.092235
-0.030387 0.133793 -0.030387 0.136046 0.986399 0.092235
-0.037416 0.133370 -0.015498 0.136046 0.986399 0.092235
-0.028483 0.133352 -0.028483 0.136046 0.986399 0.092235
0.030387 0.133793 -0.030387 -0.136047 0.986399 0.092236
0.037416 0.133370 -0.015498 -0.136047 0.986399 0.092236
0.039919 0.133812 -0.016535 -0.136047 0.986399 0.092236
0.030387 0.133793 0.030387 -0.092236 0.986399 -0.136047
0.015498 0.133370 0.037416 -0.092236 0.986399 -0.136047
0.016535 0.133812 0.039919 -0.092236 0.986399 -0.136047
-0.030387 0.133793 0.030387 0.136047 0.986399 -0.092236
-0.037416 0.133370 0.015498 0.136047 0.986399 -0.092236
-0.039919 0.133812 0.016535 0.136047 0.986399 -0.092236
-0.000000 0.133793 0.042974 -0.030979 0.986399 -0.161419
0.015498 0.133370 0.037416 -0.030979 0.986399 -0.161419
-0.000000 0.133352 0.040280 -0.030979 0.986399 -0.161419
-0.030387 0.133793 -0.030387 0.092236 0.986399 0.136047
-0.015498 0.133370 -0.037416 0.092236 0.986399 0.136047
-0.016535 0.133812 -0.039919 0.092236 0.986399 0.136047
0.000000 0.133793 -0.042974 0.030979 0.986400 0.161419
-0.015498 0.133370 -0.037416 0.030979 0.986400 0.161419
0.000000 0.133352 -0.040280 0.030979 0.986400 0.161419
-0.000658 0.003324 -0.031827 -0.306185 -0.599859 -0.739202
0.000000 0.002770 -0.031651 -0.306185 -0.599859 -0.739202
-0.000000 0.000262 -0.029615 -0.306185 -0.599859 -0.739202
-0.031827 0.003324 0.000658 -0.739202 -0.599859 0.306185
-0.031651 0.002770 -0.000000 -0.739202 -0.599859 0.306185
-0.029615 0.000262 -0.000000 -0.739202 -0.599859 0.306185
-0.022971 0.003324 -0.022039 -0.739201 -0.599859 -0.306188
-0.022380 0.002770 -0.022380 -0.739201 -0.599859 -0.306188
-0.020941 0.000262 -0.020941 -0.739201 -0.599859 -0.306188
-0.022039 0.003324 0.022971 -0.306190 -0.599859 0.739200
-0.022380 0.002770 0.022380 -0.306190 -0.599859 0.739200
-0.020941 0.000262 0.020941 -0.306190 -0.599859 0.739200
0.000658 0.003324 0.031827 0.306185 -0.599859 0.739202
-0.000000 0.002770 0.031651 0.306185 -0.599859 0.739202
-0.000000 0.000262 0.029615 0.306185 -0.599859 0.739202
0.022971 0.003324 0.022039 0.739201 -0.599859 0.306187
0.022380 0.002770 0.022380 0.739201 -0.599859 0.306187
0.020941 0.000262 0.020941 0.739201 -0.599859 0.306187
0.031827 0.003324 -0.000658 0.739202 -0.599859 -0.306185
0.031651 0.002770 0.000000 0.739202 -0.599859 -0.306185
0.029615 0.000262 0.000000 0.739202 -0.599859 -0.306185
0.022039 0.003324 -0.022971 0.306187 -0.599859 -0.739201
0.022380 0.002770 -0.022380 0.306187 -0.599859 -0.739201
0.020941 0.000262 -0.020941 0.306187 -0.599859 -0.739201
0.010197 0.008802 -0.024617 -0.124170 0.730888 0.671107
-0.000000 0.009650 -0.027427 -0.124170 0.730888 0.671107
-0.000000 0.008800 -0.026501 -0.124170 0.730888 0.671107
0.024617 0.008802 -0.010197 -0.562345 0.730888 0.386743
0.019394 0.009650 -0.019394 -0.562345 0.730888 0.386743
0.018739 0.008800 -0.018739 -0.562345 0.730888 0.386743
0.024617 0.008802 0.010197 -0.671107 0.730888 -0.124170
0.027427 0.009650 0.000000 -0.671107 0.730888 -0.124170
0.026501 0.008800 0.000000 -0.671107 0.730888 -0.124170
0.010197 0.008802 0.024617 -0.386743 0.730888 -0.562346
0.019394 0.009650 0.019394 -0.386743 0.730888 -0.562346
0.018739 0.008800 0.018739 -0.386743 0.730888 -0.562346
-0.010197 0.008802 0.024617 0.124170 0.730888 -0.671107
-0.000000 0.009650 0.027427 0.124170 0.730888 -0.671107
-0.000000 0.008800 0.026501 0.124170 0.730888 -0.671107
-0.024617 0.008802 0.010197 0.562345 0.730889 -0.386742
-0.019394 0.009650 0.019394 0.562345 0.730889 -0.386742
-0.018739 0.008800 0.018739 0.562345 0.730889 -0.386742
-0.024617 0.008802 -0.010197 0.671107 0.730888 0.124170
-0.027427 0.009650 -0.000000 0.671107 0.730888 0.124170
-0.026501 0.008800 -0.000000 0.671107 0.730888 0.124170
-0.010197 0.008802 -0.024617 0.386743 0.730888 0.562346
-0.019394 0.009650 -0.019394 0.386743 0.730888 0.562346
-0.018739 0.008800 -0.018739 0.386743 0.730888 0.562346
0.010197 0.008802 -0.024617 -0.388595 0.726873 0.566259
0.019394 0.009650 -0.019394 -0.388595 0.726873 0.566259
0.010553 0.009662 -0.025476 -0.388595 0.726873 0.566259
0.024617 0.008802 -0.010197 -0.675184 0.726873 0.125627
0.027427 0.009650 0.000000 -0.675184 0.726873 0.125627
0.025476 0.009662 -0.010553 -0.675184 0.726873 0.125627
0.024617 0.008802 0.010197 -0.566259 0.726873 -0.388595
0.019394 0.009650 0.019394 -0.566259 0.726873 -0.388595
0.025476 0.009662 0.010553 -0.566259 0.726873 -0.388595
0.010197 0.008802 0.024617 -0.125627 0.726874 -0.675184
-0.000000 0.009650 0.027427 -0.125627 0.726874 -0.675184
0.010553 0.009662 0.025476 -0.125627 0.726874 -0.675184
-0.010197 0.008802 0.024617 0.388595 0.726873 -0.566259
-0.019394 0.009650 0.019394 0.388595 0.726873 -0.566259
-0.010553 0.009662 0.025476 0.388595 0.726873 -0.566259
-0.024617 0.008802 0.010197 0.675184 0.726873 -0.125627
-0.027427 0.009650 -0.000000 0.675184 0.726873 -0.125627
-0.025476 0.009662 0.010553 0.675184 0.726873 -0.125627
-0.024617 0.008802 -0.010197 0.566260 0.726873 0.388595
-0.019394 0.009650 -0.019394 0.566260 0.726873 0.388595
-0.025476 0.009662 -0.010553 0.566260 0.726873 0.388595
-0.010197 0.008802 -0.024617 0.125627 0.726873 0.675184
-0.000000 0.009650 -0.027427 0.125627 0.726873 0.675184
-0.010553 0.009662 -0.025476 0.125627 0.726873 0.675184
-0.000658 0.003324 -0.031827 -0.000000 -0.303492 -0.952834
0.000658 0.003324 -0.031827 -0.000000 -0.303492 -0.952834
0.000000 0.002770 -0.031651 -0.000000 -0.303492 -0.952834
0.000658 0.080992 -0.036851 0.000000 -0.352419 -0.935842
-0.000658 0.080992 -0.036851 0.000000 -0.352419 -0.935842
-0.000000 0.082389 -0.037377 0.000000 -0.352419 -0.935842
0.022039 0.003324 -0.022971 0.673756 -0.303489 -0.673756
0.022971 0.003324 -0.022039 0.673756 -0.303489 -0.673756
0.022380 0.002770 -0.022380 0.673756 -0.303489 -0.673756
0.026523 0.080992 -0.025592 0.661739 -0.352418 -0.661742
0.025592 0.080992 -0.026523 0.661739 -0.352418 -0.661742
0.026429 0.082389 -0.026429 0.661739 -0.352418 -0.661742
0.031827 0.003324 -0.000658 0.952834 -0.303492 0.000000
0.031827 0.003324 0.000658 0.952834 -0.303492 0.000000
0.031651 0.002770 0.000000 0.952834 -0.303492 0.000000
0.036851 0.080992 0.000658 0.935842 -0.352419 0.000000
0.036851 0.080992 -0.000658 0.935842 -0.352419 0.000000
0.037377 0.082389 0.000000 0.935842 -0.352419 0.000000
0.022971 0.003324 0.022039 0.673756 -0.303489 0.673756
0.022039 0.003324 0.022971 0.673756 -0.303489 0.673756
0.022380 0.002770 0.022380 0.673756 -0.303489 0.673756
0.025592 0.080992 0.026523 0.661742 -0.352417 0.661739
0.026523 0.080992 0.025592 0.661742 -0.352417 0.661739
0.026429 0.082389 0.026429 0.661742 -0.352417 0.661739
0.000658 0.003324 0.031827 0.000000 -0.303492 0.952834
-0.000658 0.003324 0.031827 0.000000 -0.303492 0.952834
-0.000000 0.002770 0.031651 0.000000 -0.303492 0.952834
-0.000658 0.080992 0.036851 0.000000 -0.352419 0.935842
0.000658 0.080992 0.036851 0.000000 -0.352419 0.935842
-0.000000 0.082389 0.037377 0.000000 -0.352419 0.935842
-0.022039 0.003324 0.022971 -0.673755 -0.303492 0.673755
-0.022971 0.003324 0.022039 -0.673755 -0.303492 0.673755
-0.022380 0.002770 0.022380 -0.673755 -0.303492 0.673755
-0.026523 0.080992 0.025592 -0.661739 -0.352417 0.661742
-0.025592 0.080992 0.026523 -0.661739 -0.352417 0.661742
-0.026429 0.082389 0.026429 -0.661739 -0.352417 0.661742
-0.031827 0.003324 0.000658 -0.952834 -0.303492 0.000000
-0.031827 0.003324 -0.000658 -0.952834 -0.303492 0.000000
-0.031651 0.002770 -0.000000 -0.952834 -0.303492 0.000000
-0.036851 0.080992 -0.000658 -0.935842 -0.352419 -0.000000
-0.036851 0.080992 0.000658 -0.935842 -0.352419 -0.000000
-0.037377 0.082389 -0.000000 -0.935842 -0.352419 -0.000000
-0.022971 0.003324 -0.022039 -0.673756 -0.303492 -0.673756
-0.022039 0.003324 -0.022971 -0.673756 -0.303492 -0.673756
-0.022380 0.002770 -0.022380 -0.673756 -0.303492 -0.673756
-0.025592 0.080992 -0.026523 -0.661742 -0.352417 -0.661739
-0.026523 0.080992 -0.025592 -0.661742 -0.352417 -0.661739
-0.026429 0.082389 -0.026429 -0.661742 -0.352417 -0.661739
0.000658 0.080992 -0.036851 0.370101 -0.254319 -0.893503
0.013261 0.082343 -0.032015 0.370101 -0.254319 -0.893503
0.013125 0.080992 -0.031687 0.370101 -0.254319 -0.893503
-0.000658 0.080992 -0.036851 0.000000 -0.064546 -0.997915
0.000658 0.066027 -0.035883 0.000000 -0.064546 -0.997915
-0.000658 0.066027 -0.035883 0.000000 -0.064546 -0.997915
0.022971 0.003324 -0.022039 0.705632 -0.064546 -0.705632
0.022756 0.018999 -0.023688 0.705632 -0.064546 -0.705632
0.023688 0.018999 -0.022756 0.705632 -0.064546 -0.705632
0.026523 0.080992 -0.025592 0.893503 -0.254319 -0.370101
0.032015 0.082343 -0.013261 0.893503 -0.254319 -0.370101
0.031687 0.080992 -0.013125 0.893503 -0.254319 -0.370101
0.032841 0.018999 0.000658 0.997915 -0.064546 0.000000
0.031827 0.003324 -0.000658 0.997915 -0.064546 0.000000
0.032841 0.018999 -0.000658 0.997915 -0.064546 0.000000
0.036851 0.080992 0.000658 0.893503 -0.254319 0.370101
0.032015 0.082343 0.013261 0.893503 -0.254319 0.370101
0.031687 0.080992 0.013125 0.893503 -0.254319 0.370101
0.022039 0.003324 0.022971 0.705632 -0.064546 0.705632
0.023688 0.018999 0.022756 0.705632 -0.064546 0.705632
0.022756 0.018999 0.023688 0.705632 -0.064546 0.705632
0.025592 0.080992 0.026523 0.370101 -0.254319 0.893503
0.013261 0.082343 0.032015 0.370101 -0.254319 0.893503
0.013125 0.080992 0.031687 0.370101 -0.254319 0.893503
-0.000658 0.003324 0.031827 0.000000 -0.064546 0.997915
0.000658 0.018999 0.032841 0.000000 -0.064546 0.997915
-0.000658 0.018999 0.032841 0.000000 -0.064546 0.997915
-0.000658 0.080992 0.036851 -0.370101 -0.254319 0.893503
-0.013261 0.082343 0.032015 -0.370101 -0.254319 0.893503
-0.013125 0.080992 0.031687 -0.370101 -0.254319 0.893503
-0.022971 0.003324 0.022039 -0.705632 -0.064547 0.705632
-0.022756 0.018999 0.023688 -0.705632 -0.064547 0.705632
-0.023688 0.018999 0.022756 -0.705632 -0.064547 0.705632
-0.026523 0.080992 0.025592 -0.893502 -0.254322 0.370100
-0.032015 0.082343 0.013261 -0.893502 -0.254322 0.370100
-0.031687 0.080992 0.013125 -0.893502 -0.254322 0.370100
-0.031827 0.003324 -0.000658 -0.997915 -0.064546 0.000000
-0.032841 0.018999 0.000658 -0.997915 -0.064546 0.000000
-0.032841 0.018999 -0.000658 -0.997915 -0.064546 0.000000
-0.036851 0.080992 -0.000658 -0.893502 -0.254322 -0.370101
-0.032015 0.082343 -0.013261 -0.893502 -0.254322 -0.370101
-0.031687 0.080992 -0.013125 -0.893502 -0.254322 -0.370101
-0.022039 0.003324 -0.022971 -0.705632 -0.064547 -0.705632
-0.023688 0.018999 -0.022756 -0.705632 -0.064547 -0.705632
-0.022756 0.018999 -0.023688 -0.705632 -0.064547 -0.705632
-0.025592 0.080992 -0.026523 -0.370101 -0.254319 -0.893503
-0.013261 0.082343 -0.032015 -0.370101 -0.254319 -0.893503
-0.013125 0.080992 -0.031687 -0.370101 -0.254319 -0.893503
0.036851 0.080992 -0.000658 0.913751 -0.170298 -0.368860
0.032015 0.082343 -0.013261 0.913751 -0.170298 -0.368860
0.037377 0.082389 0.000000 0.913751 -0.170298 -0.368860
0.025592 0.080992 -0.026523 0.385296 -0.170296 -0.906943
0.013261 0.082343 -0.032015 0.385296 -0.170296 -0.906943
0.026429 0.082389 -0.026429 0.385296 -0.170296 -0.906943
-0.000658 0.080992 -0.036851 -0.368861 -0.170298 -0.913751
-0.013261 0.082343 -0.032015 -0.368861 -0.170298 -0.913751
-0.000000 0.082389 -0.037377 -0.368861 -0.170298 -0.913751
-0.026523 0.080992 -0.025592 -0.906943 -0.170297 -0.385296
-0.032015 0.082343 -0.013261 -0.906943 -0.170297 -0.385296
-0.026429 0.082389 -0.026429 -0.906943 -0.170297 -0.385296
-0.036851 0.080992 0.000658 -0.913751 -0.170298 0.368860
-0.032015 0.082343 0.013261 -0.913751 -0.170298 0.368860
-0.037377 0.082389 -0.000000 -0.913751 -0.170298 0.368860
-0.025592 0.080992 0.026523 -0.385296 -0.170297 0.906943
-0.013261 0.082343 0.032015 -0.385296 -0.170297 0.906943
-0.026429 0.082389 0.026429 -0.385296 -0.170297 0.906943
0.000658 0.080992 0.036851 0.368860 -0.170298 0.913751
0.013261 0.082343 0.032015 0.368860 -0.170298 0.913751
-0.000000 0.082389 0.037377 0.368860 -0.170298 0.913751
0.026523 0.080992 0.025592 0.906943 -0.170297 0.385296
0.032015 0.082343 0.013261 0.906943 -0.170297 0.385296
0.026429 0.082389 0.026429 0.906943 -0.170297 0.385296
-0.000658 0.018999 -0.032841 0.000000 -0.064546 -0.997915
0.000658 0.003324 -0.031827 0.000000 -0.064546 -0.997915
-0.000658 0.003324 -0.031827 0.000000 -0.064546 -0.997915
-0.000658 0.034675 -0.033855 0.000000 -0.064547 -0.997915
0.000658 0.018999 -0.032841 0.000000 -0.064547 -0.997915
-0.000658 0.018999 -0.032841 0.000000 -0.064547 -0.997915
-0.000658 0.050351 -0.034869 0.000000 -0.064546 -0.997915
0.000658 0.034675 -0.033855 0.000000 -0.064546 -0.997915
-0.000658 0.034675 -0.033855 0.000000 -0.064546 -0.997915
0.000658 0.050351 -0.034869 0.000000 -0.064546 -0.997915
0.025838 0.066027 -0.024907 0.705631 -0.064547 -0.705634
0.025592 0.080992 -0.026523 0.705631 -0.064547 -0.705634
0.026523 0.080992 -0.025592 0.705631 -0.064547 -0.705634
0.025121 0.050351 -0.024190 0.705632 -0.064546 -0.705632
0.024907 0.066027 -0.025838 0.705632 -0.064546 -0.705632
0.025838 0.066027 -0.024907 0.705632 -0.064546 -0.705632
0.024405 0.034675 -0.023473 0.705632 -0.064546 -0.705632
0.024190 0.050351 -0.025121 0.705632 -0.064546 -0.705632
0.023688 0.018999 -0.022756 0.705632 -0.064547 -0.705632
0.023473 0.034675 -0.024405 0.705632 -0.064547 -0.705632
0.024405 0.034675 -0.023473 0.705632 -0.064547 -0.705632
0.035883 0.066027 0.000658 0.997915 -0.064546 0.000000
0.036851 0.080992 -0.000658 0.997915 -0.064546 0.000000
0.036851 0.080992 0.000658 0.997915 -0.064546 0.000000
0.034869 0.050351 0.000658 0.997915 -0.064546 0.000000
0.035883 0.066027 -0.000658 0.997915 -0.064546 0.000000
0.033855 0.034675 0.000658 0.997915 -0.064546 0.000000
0.034869 0.050351 -0.000658 0.997915 -0.064546 0.000000
0.033855 0.034675 0.000658 0.997915 -0.064547 0.000000
0.032841 0.018999 -0.000658 0.997915 -0.064547 0.000000
0.033855 0.034675 -0.000658 0.997915 -0.064547 0.000000
0.024907 0.066027 0.025838 0.705634 -0.064547 0.705631
0.026523 0.080992 0.025592 0.705634 -0.064547 0.705631
0.025592 0.080992 0.026523 0.705634 -0.064547 0.705631
0.024190 0.050351 0.025121 0.705632 -0.064546 0.705632
0.025838 0.066027 0.024907 0.705632 -0.064546 0.705632
0.024907 0.066027 0.025838 0.705632 -0.064546 0.705632
0.023473 0.034675 0.024405 0.705632 -0.064546 0.705632
0.025121 0.050351 0.024190 0.705632 -0.064546 0.705632
0.022756 0.018999 0.023688 0.705632 -0.064547 0.705632
0.024405 0.034675 0.023473 0.705632 -0.064547 0.705632
0.023473 0.034675 0.024405 0.705632 -0.064547 0.705632
-0.000658 0.080992 0.036851 0.000000 -0.064546 0.997915
0.000658 0.066027 0.035883 0.000000 -0.064546 0.997915
0.000658 0.080992 0.036851 0.000000 -0.064546 0.997915
-0.000658 0.050351 0.034869 -0.000003 -0.064546 0.997915
0.000658 0.066027 0.035883 -0.000003 -0.064546 0.997915
-0.000658 0.066027 0.035883 -0.000003 -0.064546 0.997915
0.000658 0.034675 0.033855 -0.000003 -0.064546 0.997915
0.000658 0.050351 0.034869 -0.000003 -0.064546 0.997915
-0.000658 0.034675 0.033855 0.000000 -0.064547 0.997915
0.000658 0.018999 0.032841 0.000000 -0.064547 0.997915
0.000658 0.034675 0.033855 0.000000 -0.064547 0.997915
-0.025838 0.066027 0.024907 -0.705631 -0.064547 0.705634
-0.025592 0.080992 0.026523 -0.705631 -0.064547 0.705634
-0.026523 0.080992 0.025592 -0.705631 -0.064547 0.705634
-0.025121 0.050351 0.024190 -0.705631 -0.064547 0.705633
-0.024907 0.066027 0.025838 -0.705631 -0.064547 0.705633
-0.025838 0.066027 0.024907 -0.705631 -0.064547 0.705633
-0.024405 0.034675 0.023473 -0.705632 -0.064546 0.705632
-0.024190 0.050351 0.025121 -0.705632 -0.064546 0.705632
-0.025121 0.050351 0.024190 -0.705632 -0.064546 0.705632
-0.023688 0.018999 0.022756 -0.705632 -0.064546 0.705632
-0.023473 0.034675 0.024405 -0.705632 -0.064546 0.705632
-0.035883 0.066027 -0.000658 -0.997915 -0.064546 0.000000
-0.036851 0.080992 0.000658 -0.997915 -0.064546 0.000000
-0.036851 0.080992 -0.000658 -0.997915 -0.064546 0.000000
-0.034869 0.050351 0.000658 -0.997915 -0.064546 0.000000
-0.035883 0.066027 0.000658 -0.997915 -0.064546 0.000000
-0.033855 0.034675 -0.000658 -0.997915 -0.064546 0.000000
-0.034869 0.050351 -0.000658 -0.997915 -0.064546 0.000000
-0.032841 0.018999 -0.000658 -0.997915 -0.064547 0.000000
-0.033855 0.034675 0.000658 -0.997915 -0.064547 0.000000
-0.033855 0.034675 -0.000658 -0.997915 -0.064547 0.000000
-0.024907 0.066027 -0.025838 -0.705634 -0.064547 -0.705631
-0.026523 0.080992 -0.025592 -0.705634 -0.064547 -0.705631
-0.025592 0.080992 -0.026523 -0.705634 -0.064547 -0.705631
-0.024190 0.050351 -0.025121 -0.705631 -0.064547 -0.705633
-0.025838 0.066027 -0.024907 -0.705631 -0.064547 -0.705633
-0.024907 0.066027 -0.025838 -0.705631 -0.064547 -0.705633
-0.023473 0.034675 -0.024405 -0.705632 -0.064546 -0.705632
-0.025121 0.050351 -0.024190 -0.705632 -0.064546 -0.705632
-0.024190 0.050351 -0.025121 -0.705632 -0.064546 -0.705632
-0.022756 0.018999 -0.023688 -0.705632 -0.064546 -0.705632
-0.024405 0.034675 -0.023473 -0.705632 -0.064546 -0.705632
0.030387 0.133793 -0.030387 -0.092236 0.986399 0.136047
0.016535 0.133812 -0.039919 -0.092236 0.986399 0.136047
0.015498 0.133370 -0.037416 -0.092236 0.986399 0.136047
-0.000000 0.132396 -0.044292 0.132507 0.679878 -0.721254
0.000000 0.133793 -0.042974 0.132507 0.679878 -0.721254
0.016535 0.133812 -0.039919 0.132507 0.679878 -0.721254
0.031319 0.132396 -0.031319 0.603701 0.679877 -0.416308
0.030387 0.133793 -0.030387 0.603701 0.679877 -0.416308
0.039919 0.133812 -0.016535 0.603701 0.679877 -0.416308
0.044292 0.132396 0.000000 0.721254 0.679878 0.132507
0.042974 0.133793 0.000000 0.721254 0.679878 0.132507
0.039919 0.133812 0.016535 0.721254 0.679878 0.132507
0.031319 0.132396 0.031319 0.416308 0.679877 0.603701
0.030387 0.133793 0.030387 0.416308 0.679877 0.603701
0.016535 0.133812 0.039919 0.416308 0.679877 0.603701
-0.000000 0.132396 0.044292 -0.132507 0.679877 0.721255
-0.000000 0.133793 0.042974 -0.132507 0.679877 0.721255
-0.016535 0.133812 0.039919 -0.132507 0.679877 0.721255
-0.031319 0.132396 0.031319 -0.603701 0.679877 0.416307
-0.030387 0.133793 0.030387 -0.603701 0.679877 0.416307
-0.039919 0.133812 0.016535 -0.603701 0.679877 0.416307
-0.044292 0.132396 -0.000000 -0.721254 0.679878 -0.132507
-0.042974 0.133793 -0.000000 -0.721254 0.679878 -0.132507
-0.039919 0.133812 -0.016535 -0.721254 0.679878 -0.132507
-0.031319 0.132396 -0.031319 -0.416308 0.679878 -0.603701
-0.030387 0.133793 -0.030387 -0.416308 0.679878 -0.603701
-0.016535 0.133812 -0.039919 -0.416308 0.679878 -0.603701
0.016535 0.133812 -0.039919 0.416308 0.679877 -0.603701
0.030387 0.133793 -0.030387 0.416308 0.679877 -0.603701
0.031319 0.132396 -0.031319 0.416308 0.679877 -0.603701
0.039919 0.133812 -0.016535 0.721254 0.679878 -0.132507
0.042974 0.133793 0.000000 0.721254 0.679878 -0.132507
0.044292 0.132396 0.000000 0.721254 0.679878 -0.132507
0.039919 0.133812 0.016535 0.603701 0.679877 0.416308
0.030387 0.133793 0.030387 0.603701 0.679877 0.416308
0.031319 0.132396 0.031319 0.603701 0.679877 0.416308
0.016535 0.133812 0.039919 0.132507 0.679877 0.721255
-0.000000 0.133793 0.042974 0.132507 0.679877 0.721255
-0.000000 0.132396 0.044292 0.132507 0.679877 0.721255
-0.016535 0.133812 0.039919 -0.416308 0.679877 0.603701
-0.030387 0.133793 0.030387 -0.416308 0.679877 0.603701
-0.031319 0.132396 0.031319 -0.416308 0.679877 0.603701
-0.039919 0.133812 0.016535 -0.721254 0.679878 0.132507
-0.042974 0.133793 -0.000000 -0.721254 0.679878 0.132507
-0.044292 0.132396 -0.000000 -0.721254 0.679878 0.132507
-0.039919 0.133812 -0.016535 -0.603701 0.679877 -0.416307
-0.030387 0.133793 -0.030387 -0.603701 0.679877 -0.416307
-0.031319 0.132396 -0.031319 -0.603701 0.679877 -0.416307
-0.016535 0.133812 -0.039919 -0.132507 0.679878 -0.721254
0.000000 0.133793 -0.042974 -0.132507 0.679878 -0.721254
-0.000000 0.132396 -0.044292 -0.132507 0.679878 -0.721254
0.029615 0.000262 0.000000 0.739202 -0.599859 0.306185
0.031651 0.002770 0.000000 0.739202 -0.599859 0.306185
0.031827 0.003324 0.000658 0.739202 -0.599859 0.306185
0.031827 0.003324 0.000658 0.739201 -0.599859 0.306187
0.022380 0.002770 -0.022380 0.739201 -0.599859 -0.306187
0.022971 0.003324 -0.022039 0.739201 -0.599859 -0.306187
-0.000000 0.000262 -0.029615 0.306185 -0.599859 -0.739202
0.000000 0.002770 -0.031651 0.306185 -0.599859 -0.739202
0.000658 0.003324 -0.031827 0.306185 -0.599859 -0.739202
0.000658 0.003324 -0.031827 0.306187 -0.599859 -0.739201
-0.020941 0.000262 -0.020941 -0.306190 -0.599859 -0.739200
-0.022380 0.002770 -0.022380 -0.306190 -0.599859 -0.739200
-0.022039 0.003324 -0.022971 -0.306190 -0.599859 -0.739200
-0.022039 0.003324 -0.022971 -0.306187 -0.599859 -0.739201
-0.029615 0.000262 -0.000000 -0.739202 -0.599859 -0.306185
-0.031651 0.002770 -0.000000 -0.739202 -0.599859 -0.306185
-0.031827 0.003324 -0.000658 -0.739202 -0.599859 -0.306185
-0.031827 0.003324 -0.000658 -0.739201 -0.599859 -0.306187
-0.020941 0.000262 0.020941 -0.739201 -0.599859 0.306188
-0.022380 0.002770 0.022380 -0.739201 -0.599859 0.306188
-0.022971 0.003324 0.022039 -0.739201 -0.599859 0.306188
-0.022971 0.003324 0.022039 -0.739201 -0.599859 0.306187
-0.000000 0.000262 0.029615 -0.306185 -0.599859 0.739202
-0.000000 0.002770 0.031651 -0.306185 -0.599859 0.739202
-0.000658 0.003324 0.031827 -0.306185 -0.599859 0.739202
-0.000658 0.003324 0.031827 -0.306187 -0.599859 0.739201
0.022380 0.002770 0.022380 0.306187 -0.599859 0.739201
0.022039 0.003324 0.022971 0.306187 -0.599859 0.739201
0.000000 0.133793 -0.042974 -0.030979 0.986400 0.161419
0.000000 0.133352 -0.040280 -0.030979 0.986400 0.161419
0.015498 0.133370 -0.037416 -0.030979 0.986400 0.161419
-0.030387 0.133793 0.030387 0.092236 0.986399 -0.136047
-0.016535 0.133812 0.039919 0.092236 0.986399 -0.136047
-0.015498 0.133370 0.037416 0.092236 0.986399 -0.136047
0.042974 0.133793 0.000000 -0.161419 0.986400 -0.030979
0.040280 0.133352 0.000000 -0.161419 0.986400 -0.030979
0.037416 0.133370 0.015498 -0.161419 0.986400 -0.030979
-0.000000 0.133793 0.042974 0.030979 0.986400 -0.161419
-0.000000 0.133352 0.040280 0.030979 0.986400 -0.161419
-0.015498 0.133370 0.037416 0.030979 0.986400 -0.161419
0.042974 0.133793 0.000000 -0.161420 0.986399 0.030979
0.039919 0.133812 -0.016535 -0.161420 0.986399 0.030979
0.037416 0.133370 -0.015498 -0.161420 0.986399 0.030979
-0.042974 0.133793 -0.000000 0.161419 0.986400 0.030979
-0.040280 0.133352 -0.000000 0.161419 0.986400 0.030979
-0.037416 0.133370 -0.015498 0.161419 0.986400 0.030979
-0.042974 0.133793 -0.000000 0.161420 0.986399 -0.030979
-0.039919 0.133812 0.016535 0.161420 0.986399 -0.030979
-0.037416 0.133370 0.015498 0.161420 0.986399 -0.030979
0.030387 0.133793 0.030387 -0.136047 0.986399 -0.092236
0.039919 0.133812 0.016535 -0.136047 0.986399 -0.092236
0.037416 0.133370 0.015498 -0.136047 0.986399 -0.092236
-0.030387 0.133793 -0.030387 0.136047 0.986399 0.092236
-0.039919 0.133812 -0.016535 0.136047 0.986399 0.092236
-0.037416 0.133370 -0.015498 0.136047 0.986399 0.092236
0.030387 0.133793 -0.030387 -0.136046 0.986400 0.092235
0.028483 0.133352 -0.028483 -0.136046 0.986400 0.092235
0.037416 0.133370 -0.015498 -0.136046 0.986400 0.092235
0.030387 0.133793 0.030387 -0.092235 0.986400 -0.136046
0.028483 0.133352 0.028483 -0.092235 0.986400 -0.136046
0.015498 0.133370 0.037416 -0.092235 0.986400 -0.136046
-0.030387 0.133793 0.030387 0.136046 0.986400 -0.092235
-0.028483 0.133352 0.028483 0.136046 0.986400 -0.092235
-0.037416 0.133370 0.015498 0.136046 0.986400 -0.092235
-0.000000 0.133793 0.042974 -0.030979 0.986399 -0.161420
0.016535 0.133812 0.039919 -0.030979 0.986399 -0.161420
0.015498 0.133370 0.037416 -0.030979 0.986399 -0.161420
-0.030387 0.133793 -0.030387 0.092235 0.986400 0.136046
-0.028483 0.133352 -0.028483 0.092235 0.986400 0.136046
-0.015498 0.133370 -0.037416 0.092235 0.986400 0.136046
0.000000 0.133793 -0.042974 0.030979 0.986399 0.161420
-0.016535 0.133812 -0.039919 0.030979 0.986399 0.161420
-0.015498 0.133370 -0.037416 0.030979 0.986399 0.161420
-0.000000 0.000262 -0.029615 -0.306187 -0.599859 -0.739201
-0.000658 0.003324 -0.031827 -0.306187 -0.599859 -0.739201
-0.029615 0.000262 -0.000000 -0.739201 -0.599859 0.306187
-0.031827 0.003324 0.000658 -0.739201 -0.599859 0.306187
-0.020941 0.000262 -0.020941 -0.739201 -0.599859 -0.306187
-0.027399 0.003324 -0.011349 -0.739202 -0.599859 -0.306187
-0.022971 0.003324 -0.022039 -0.739202 -0.599859 -0.306187
-0.020941 0.000262 -0.020941 -0.739202 -0.599859 -0.306187
-0.020941 0.000262 0.020941 -0.306187 -0.599859 0.739201
-0.011349 0.003324 0.027399 -0.306187 -0.599859 0.739202
-0.022039 0.003324 0.022971 -0.306187 -0.599859 0.739202
-0.020941 0.000262 0.020941 -0.306187 -0.599859 0.739202
-0.000000 0.000262 0.029615 0.306187 -0.599859 0.739201
0.000658 0.003324 0.031827 0.306187 -0.599859 0.739201
0.029615 0.000262 0.000000 0.739201 -0.599859 -0.306187
0.031827 0.003324 -0.000658 0.739201 -0.599859 -0.306187
0.010197 0.008802 -0.024617 -0.125627 0.726873 0.675184
0.010553 0.009662 -0.025476 -0.125627 0.726873 0.675184
-0.000000 0.009650 -0.027427 -0.125627 0.726873 0.675184
0.024617 0.008802 -0.010197 -0.566259 0.726873 0.388595
0.025476 0.009662 -0.010553 -0.566259 0.726873 0.388595
0.019394 0.009650 -0.019394 -0.566259 0.726873 0.388595
0.024617 0.008802 0.010197 -0.675184 0.726873 -0.125627
0.025476 0.009662 0.010553 -0.675184 0.726873 -0.125627
0.027427 0.009650 0.000000 -0.675184 0.726873 -0.125627
0.010197 0.008802 0.024617 -0.388595 0.726874 -0.566258
0.010553 0.009662 0.025476 -0.388595 0.726874 -0.566258
0.019394 0.009650 0.019394 -0.388595 0.726874 -0.566258
-0.010197 0.008802 0.024617 0.125627 0.726873 -0.675184
-0.010553 0.009662 0.025476 0.125627 0.726873 -0.675184
-0.000000 0.009650 0.027427 0.125627 0.726873 -0.675184
-0.024617 0.008802 0.010197 0.566260 0.726873 -0.388595
-0.025476 0.009662 0.010553 0.566260 0.726873 -0.388595
-0.019394 0.009650 0.019394 0.566260 0.726873 -0.388595
-0.024617 0.008802 -0.010197 0.675184 0.726873 0.125627
-0.025476 0.009662 -0.010553 0.675184 0.726873 0.125627
-0.027427 0.009650 -0.000000 0.675184 0.726873 0.125627
-0.010197 0.008802 -0.024617 0.388595 0.726873 0.566259
-0.010553 0.009662 -0.025476 0.388595 0.726873 0.566259
-0.019394 0.009650 -0.019394 0.388595 0.726873 0.566259
0.010197 0.008802 -0.024617 -0.386743 0.730888 0.562345
0.018739 0.008800 -0.018739 -0.386743 0.730888 0.562345
0.019394 0.009650 -0.019394 -0.386743 0.730888 0.562345
0.024617 0.008802 -0.010197 -0.671107 0.730888 0.124170
0.026501 0.008800 0.000000 -0.671107 0.730888 0.124170
0.027427 0.009650 0.000000 -0.671107 0.730888 0.124170
0.024617 0.008802 0.010197 -0.562345 0.730889 -0.386743
0.018739 0.008800 0.018739 -0.562345 0.730889 -0.386743
0.019394 0.009650 0.019394 -0.562345 0.730889 -0.386743
0.010197 0.008802 0.024617 -0.124170 0.730888 -0.671107
-0.000000 0.008800 0.026501 -0.124170 0.730888 -0.671107
-0.000000 0.009650 0.027427 -0.124170 0.730888 -0.671107
-0.010197 0.008802 0.024617 0.386743 0.730888 -0.562346
-0.018739 0.008800 0.018739 0.386743 0.730888 -0.562346
-0.019394 0.009650 0.019394 0.386743 0.730888 -0.562346
-0.024617 0.008802 0.010197 0.671107 0.730888 -0.124170
-0.026501 0.008800 -0.000000 0.671107 0.730888 -0.124170
-0.027427 0.009650 -0.000000 0.671107 0.730888 -0.124170
-0.024617 0.008802 -0.010197 0.562345 0.730889 0.386742
-0.018739 0.008800 -0.018739 0.562345 0.730889 0.386742
-0.019394 0.009650 -0.019394 0.562345 0.730889 0.386742
-0.010197 0.008802 -0.024617 0.124170 0.730888 0.671107
-0.000000 0.008800 -0.026501 0.124170 0.730888 0.671107
-0.000000 0.009650 -0.027427 0.124170 0.730888 0.671107
0.000658 0.080992 -0.036851 0.368860 -0.170298 -0.913751
-0.000000 0.082389 -0.037377 0.368860 -0.170298 -0.913751
0.013261 0.082343 -0.032015 0.368860 -0.170298 -0.913751
0.000658 0.080992 -0.036851 -0.000000 -0.064546 -0.997915
0.022039 0.003324 -0.022971 0.705632 -0.064546 -0.705632
0.026523 0.080992 -0.025592 0.906944 -0.170295 -0.385296
0.026429 0.082389 -0.026429 0.906944 -0.170295 -0.385296
0.032015 0.082343 -0.013261 0.906944 -0.170295 -0.385296
0.031827 0.003324 0.000658 0.997915 -0.064546 0.000000
0.036851 0.080992 0.000658 0.913751 -0.170298 0.368860
0.037377 0.082389 0.000000 0.913751 -0.170298 0.368860
0.032015 0.082343 0.013261 0.913751 -0.170298 0.368860
0.022971 0.003324 0.022039 0.705632 -0.064546 0.705632
0.025592 0.080992 0.026523 0.385296 -0.170295 0.906943
0.026429 0.082389 0.026429 0.385296 -0.170295 0.906943
0.013261 0.082343 0.032015 0.385296 -0.170295 0.906943
0.000658 0.003324 0.031827 0.000000 -0.064546 0.997915
-0.000658 0.080992 0.036851 -0.368861 -0.170298 0.913751
-0.000000 0.082389 0.037377 -0.368861 -0.170298 0.913751
-0.013261 0.082343 0.032015 -0.368861 -0.170298 0.913751
-0.022039 0.003324 0.022971 -0.705632 -0.064547 0.705632
-0.026523 0.080992 0.025592 -0.906943 -0.170295 0.385296
-0.026429 0.082389 0.026429 -0.906943 -0.170295 0.385296
-0.032015 0.082343 0.013261 -0.906943 -0.170295 0.385296
-0.031827 0.003324 0.000658 -0.997915 -0.064546 -0.000000
-0.036851 0.080992 -0.000658 -0.913751 -0.170298 -0.368860
-0.037377 0.082389 -0.000000 -0.913751 -0.170298 -0.368860
-0.032015 0.082343 -0.013261 -0.913751 -0.170298 -0.368860
-0.022971 0.003324 -0.022039 -0.705632 -0.064547 -0.705632
-0.025592 0.080992 -0.026523 -0.385296 -0.170295 -0.906943
-0.026429 0.082389 -0.026429 -0.385296 -0.170295 -0.906943
-0.013261 0.082343 -0.032015 -0.385296 -0.170295 -0.906943
0.036851 0.080992 -0.000658 0.893503 -0.254319 -0.370101
0.025592 0.080992 -0.026523 0.370101 -0.254319 -0.893503
-0.000658 0.080992 -0.036851 -0.370101 -0.254319 -0.893503
-0.026523 0.080992 -0.025592 -0.893502 -0.254322 -0.370101
-0.036851 0.080992 0.000658 -0.893502 -0.254322 0.370101
-0.031687 0.080992 0.013125 -0.893502 -0.254322 0.370101
-0.032015 0.082343 0.013261 -0.893502 -0.254322 0.370101
-0.025592 0.080992 0.026523 -0.370101 -0.254319 0.893503
0.000658 0.080992 0.036851 0.370101 -0.254319 0.893503
0.026523 0.080992 0.025592 0.893503 -0.254319 0.370101
0.000658 0.018999 -0.032841 -0.000000 -0.064546 -0.997915
0.000658 0.034675 -0.033855 -0.000000 -0.064547 -0.997915
0.025592 0.080992 -0.026523 0.705632 -0.064546 -0.705632
0.023473 0.034675 -0.024405 0.705632 -0.064546 -0.705632
0.022756 0.018999 -0.023688 0.705632 -0.064547 -0.705632
0.033855 0.034675 -0.000658 0.997915 -0.064546 0.000000
0.032841 0.018999 0.000658 0.997915 -0.064547 0.000000
0.026523 0.080992 0.025592 0.705632 -0.064546 0.705632
0.024405 0.034675 0.023473 0.705632 -0.064546 0.705632
0.023688 0.018999 0.022756 0.705632 -0.064547 0.705632
-0.000658 0.080992 0.036851 -0.000003 -0.064547 0.997915
-0.000658 0.066027 0.035883 -0.000003 -0.064547 0.997915
0.000658 0.066027 0.035883 -0.000003 -0.064547 0.997915
-0.000658 0.050351 0.034869 0.000000 -0.064546 0.997915
-0.000658 0.034675 0.033855 0.000000 -0.064546 0.997915
0.000658 0.034675 0.033855 0.000000 -0.064546 0.997915
-0.000658 0.018999 0.032841 0.000000 -0.064547 0.997915
-0.025838 0.066027 0.024907 -0.705631 -0.064546 0.705633
-0.024907 0.066027 0.025838 -0.705631 -0.064546 0.705633
-0.025592 0.080992 0.026523 -0.705631 -0.064546 0.705633
-0.025121 0.050351 0.024190 -0.705632 -0.064547 0.705632
-0.024190 0.050351 0.025121 -0.705632 -0.064547 0.705632
-0.024907 0.066027 0.025838 -0.705632 -0.064547 0.705632
-0.022756 0.018999 0.023688 -0.705632 -0.064546 0.705632
-0.033855 0.034675 0.000658 -0.997915 -0.064546 -0.000000
-0.032841 0.018999 0.000658 -0.997915 -0.064547 -0.000000
-0.024907 0.066027 -0.025838 -0.705631 -0.064546 -0.705633
-0.025838 0.066027 -0.024907 -0.705631 -0.064546 -0.705633
-0.026523 0.080992 -0.025592 -0.705631 -0.064546 -0.705633
-0.024190 0.050351 -0.025121 -0.705632 -0.064547 -0.705632
-0.025121 0.050351 -0.024190 -0.705632 -0.064547 -0.705632
-0.025838 0.066027 -0.024907 -0.705632 -0.064547 -0.705632
-0.023688 0.018999 -0.022756 -0.705632 -0.064546 -0.705632
3 0 1 2
3 3 4 5
3 6 7 8
3 9 10 11
3 12 13 14
3 15 16 17
3 18 19 20
3 21 22 23
3 24 25 26
3 27 28 29
3 30 31 32
3 33 34 35
3 36 37 38
3 39 40 41
3 42 43 44
3 45 46 47
3 48 49 50
3 51 52 53
3 54 55 56
3 57 58 59
3 60 61 62
3 63 64 65
3 66 67 68
3 69 70 71
3 72 73 74
3 75 76 77
3 78 79 80
3 81 82 83
3 84 85 86
3 87 88 89
3 90 91 92
3 93 94 95
3 96 97 98
3 99 100 101
3 102 103 104
3 105 106 107
3 108 109 110
3 111 112 113
3 114 115 116
3 117 118 119
3 120 121 122
3 123 124 125
3 126 127 128
3 129 130 131
3 132 133 134
3 135 136 137
3 138 139 140
3 141 142 143
3 144 145 146
3 147 148 149
3 150 151 152
3 153 154 155
3 156 157 158
3 159 160 161
3 162 163 164
3 165 166 167
3 168 169 170
3 171 172 173
3 174 175 176
3 177 178 179
3 180 181 182
3 183 184 185
3 186 187 188
3 189 190 191
3 192 193 194
3 195 196 197
3 198 199 200
3 201 202 203
3 204 205 206
3 207 208 209
3 210 211 212
3 213 214 215
3 216 217 218
3 219 220 221
3 222 223 224
3 225 226 227
3 228 229 230
3 231 232 233
3 234 235 236
3 237 238 239
3 240 241 242
3 243 244 245
3 246 247 248
3 249 250 251
3 252 253 254
3 255 256 257
3 258 259 260
3 261 262 263
3 264 265 266
3 267 268 269
3 270 271 272
3 273 274 275
3 276 277 278
3 279 280 281
3 282 283 284
3 285 286 287
3 288 289 290
3 291 292 293
3 294 295 296
3 297 298 299
3 300 301 302
3 303 304 305
3 306 307 308
3 309 310 311
3 312 313 314
3 315 316 317
3 318 319 320
3 245 321 318
3 322 323 324
3 325 326 327
3 328 329 325
3 330 331 332
3 333 334 335
3 336 337 333
3 338 339 336
3 340 341 342
3 343 344 345
3 346 347 348
3 349 350 346
3 351 352 353
3 354 355 356
3 357 358 359
3 357 360 361
3 362 363 364
3 365 366 367
3 368 369 370
3 371 372 373
3 374 375 371
3 376 377 378
3 376 379 380
3 381 379 382
3 383 384 385
3 386 387 388
3 389 390 391
3 392 393 394
3 395 396 392
3 397 398 399
3 400 401 402
3 403 404 405
3 406 407 408
3 409 410 411
3 412 413 414
3 415 416 417
3 418 419 420
3 421 422 423
3 424 425 426
3 427 428 429
3 430 431 432
3 433 434 435
3 436 437 438
3 439 440 441
3 442 443 444
3 445 446 447
3 448 449 450
3 451 51 53
3 56 452 453
3 453 54 56
3 454 455 456
3 457 57 59
3 458 459 460
3 461 60 62
3 462 463 464
3 465 63 65
3 466 467 468
3 469 66 68
3 470 471 472
3 473 69 71
3 74 474 475
3 475 72 74
3 476 477 478
3 479 480 481
3 482 483 484
3 485 486 487
3 488 489 490
3 491 492 493
3 494 495 496
3 497 498 499
3 500 501 502
3 503 504 505
3 506 507 508
3 509 510 511
3 512 513 514
3 515 516 517
3 518 519 520
3 521 61 60
3 60 522 521
3 523 67 66
3 66 524 523
3 525 64 63
3 526 527 528
3 529 70 69
3 530 531 532
3 533 73 72
3 72 534 533
3 137 52 51
3 51 135 137
3 535 55 54
3 54 536 535
3 143 58 57
3 57 141 143
3 537 538 539
3 540 541 542
3 543 544 545
3 546 547 548
3 549 550 551
3 552 553 554
3 555 556 557
3 558 559 560
3 561 562 563
3 564 565 566
3 567 568 569
3 570 571 572
3 573 574 575
3 576 577 578
3 579 580 581
3 582 583 584
3 585 586 587
3 243 588 244
3 246 589 247
3 590 591 592
3 252 593 253
3 594 595 596
3 258 597 259
3 598 599 600
3 264 601 265
3 602 603 604
3 270 605 271
3 606 607 608
3 276 609 277
3 610 611 612
3 282 613 283
3 614 615 616
3 617 251 250
3 618 242 241
3 619 287 286
3 620 281 280
3 621 622 623
3 624 269 268
3 625 263 262
3 626 257 256
3 312 627 313
3 315 628 316
3 318 321 319
3 245 244 321
3 327 326 629
3 325 329 326
3 328 630 329
3 330 631 331
3 333 337 334
3 336 339 337
3 338 632 339
3 340 633 341
3 348 347 634
3 346 350 347
3 349 635 350
3 351 636 352
3 637 638 639
3 357 361 358
3 640 641 642
3 362 643 363
3 644 645 646
3 647 648 649
3 371 375 372
3 374 650 375
3 376 380 377
3 376 382 379
3 381 651 379
3 383 652 384
3 653 654 655
3 656 657 658
3 392 396 393
3 395 659 396
