ply
format ascii 1.0
comment Created by Blender 2.78 (sub 0) - www.blender.org, source file: 'pokal.blend'
element vertex 441
property float x
property float y
property float z
property float nx
property float ny
property float nz
element face 878
property list uchar uint vertex_indices
end_header
-0.013125 0.080992 -0.031687 -0.377880 -0.157750 -0.912290
-0.000658 0.080262 -0.036803 -0.194708 -0.063295 -0.978790
-0.013108 0.080262 -0.031646 -0.381970 -0.059633 -0.922208
0.037893 0.095360 -0.015696 0.900388 -0.223975 -0.372936
0.026429 0.082389 -0.026429 0.672414 -0.309366 -0.672384
0.029208 0.095383 -0.029208 0.694906 -0.184912 -0.694906
0.037893 0.095360 0.015696 0.900388 -0.223975 0.372936
0.037377 0.082389 0.000000 0.950926 -0.309366 0.000000
0.041306 0.095383 0.000000 0.982727 -0.184912 0.000000
0.015696 0.095360 0.037893 0.372936 -0.223975 0.900388
0.026429 0.082389 0.026429 0.672414 -0.309366 0.672414
0.029208 0.095383 0.029208 0.694906 -0.184912 0.694906
-0.015696 0.095360 0.037893 -0.372936 -0.223975 0.900388
-0.000000 0.082389 0.037377 0.000000 -0.309366 0.950926
-0.000000 0.095383 0.041306 0.000000 -0.184912 0.982727
-0.037893 0.095360 0.015696 -0.900388 -0.223975 0.372936
-0.026429 0.082389 0.026429 -0.672414 -0.309366 0.672414
-0.029208 0.095383 0.029208 -0.694906 -0.184912 0.694906
0.011707 0.018999 -0.028264 0.382000 -0.059633 -0.922208
0.022082 0.004245 -0.023013 0.554430 -0.063295 -0.829798
0.011370 0.004245 -0.027450 0.382000 -0.059633 -0.922208
-0.015696 0.095360 -0.037893 -0.372936 -0.223975 -0.900388
-0.026429 0.082389 -0.026429 -0.672414 -0.309366 -0.672414
-0.029208 0.095383 -0.029208 -0.694906 -0.184912 -0.694906
-0.037893 0.095360 -0.015696 -0.900388 -0.223975 -0.372936
-0.037377 0.082389 -0.000000 -0.950926 -0.309366 0.000000
-0.041306 0.095383 -0.000000 -0.982727 -0.184912 0.000000
-0.025558 0.080262 -0.026489 -0.554430 -0.063295 -0.829798
-0.041013 0.131494 -0.016988 -0.918699 -0.105594 -0.380535
-0.031319 0.132396 -0.031319 -0.670431 0.317820 -0.670431
-0.031269 0.131472 -0.031269 -0.704581 -0.083987 -0.704581
-0.031687 0.080992 -0.013125 -0.912290 -0.157750 -0.377880
-0.026489 0.080262 -0.025558 -0.829798 -0.063295 -0.554430
-0.031646 0.080262 -0.013108 -0.922208 -0.059633 -0.382000
-0.031687 0.080992 0.013125 -0.912290 -0.157750 0.377880
-0.036803 0.080262 0.000658 -0.978790 -0.063295 0.194708
-0.031646 0.080262 0.013108 -0.922208 -0.059633 0.382000
-0.013125 0.080992 0.031687 -0.377880 -0.157750 0.912290
-0.025558 0.080262 0.026489 -0.554399 -0.063295 0.829798
-0.013108 0.080262 0.031646 -0.382000 -0.059633 0.922208
0.013125 0.080992 0.031687 0.377880 -0.157750 0.912290
0.000658 0.080262 0.036803 0.194708 -0.063295 0.978790
0.013108 0.080262 0.031646 0.382000 -0.059633 0.922208
0.031687 0.080992 0.013125 0.912290 -0.157750 0.377880
0.026489 0.080262 0.025558 0.829798 -0.063295 0.554430
0.031646 0.080262 0.013108 0.922208 -0.059633 0.382000
0.031687 0.080992 -0.013125 0.912290 -0.157750 -0.377880
0.036803 0.080262 -0.000658 0.978790 -0.063295 -0.194708
0.031646 0.080262 -0.013108 0.922208 -0.059633 -0.382000
0.013125 0.080992 -0.031687 0.377880 -0.157750 -0.912290
0.025558 0.080262 -0.026489 0.554430 -0.063295 -0.829798
0.013108 0.080262 -0.031646 0.382000 -0.059633 -0.922208
-0.016988 0.131494 -0.041013 -0.380535 -0.105594 -0.918699
-0.000000 0.132396 -0.044292 0.000000 0.317820 -0.948119
-0.000000 0.131472 -0.044220 0.000000 -0.083987 -0.996460
-0.041013 0.131494 0.016988 -0.918699 -0.105594 0.380535
-0.044292 0.132396 -0.000000 -0.948119 0.317820 0.000000
-0.044220 0.131472 -0.000000 -0.996460 -0.083987 0.000000
-0.016988 0.131494 0.041013 -0.380535 -0.105594 0.918699
-0.031319 0.132396 0.031319 -0.670431 0.317820 0.670431
-0.031269 0.131472 0.031269 -0.704581 -0.083987 0.704581
0.016988 0.131494 0.041013 0.380535 -0.105594 0.918699
-0.000000 0.132396 0.044292 0.000000 0.317820 0.948119
-0.000000 0.131472 0.044220 0.000000 -0.083987 0.996460
0.041013 0.131494 0.016988 0.918699 -0.105594 0.380535
0.031319 0.132396 0.031319 0.670431 0.317820 0.670431
0.031269 0.131472 0.031269 0.704581 -0.083987 0.704581
0.041013 0.131494 -0.016988 0.918699 -0.105594 -0.380535
0.044292 0.132396 0.000000 0.948119 0.317820 0.000000
0.044220 0.131472 0.000000 0.996460 -0.083987 0.000000
0.016988 0.131494 -0.041013 0.380535 -0.105594 -0.918699
0.031319 0.132396 -0.031319 0.670431 0.317820 -0.670431
0.031269 0.131472 -0.031269 0.704581 -0.083987 -0.704581
0.030387 0.133793 -0.030387 0.260140 0.929838 -0.260140
0.015498 0.133370 -0.037416 -0.263192 0.725852 0.635456
0.028483 0.133352 -0.028483 -0.491256 0.719230 0.491256
0.041105 0.132419 -0.017026 0.881619 0.298959 -0.365154
-0.000000 0.096317 -0.041384 0.000000 -0.083316 -0.996521
-0.016307 0.114823 -0.039370 -0.381207 -0.087008 -0.920347
0.000000 0.114824 -0.042938 0.000000 -0.080172 -0.996765
-0.029263 0.096317 -0.029263 -0.704642 -0.083316 -0.704642
-0.015725 0.096296 -0.037964 -0.381390 -0.081881 -0.920774
-0.039370 0.114823 -0.016307 -0.920347 -0.087008 -0.381207
-0.030362 0.114824 -0.030362 -0.704825 -0.080172 -0.704825
-0.041384 0.096317 -0.000000 -0.996521 -0.083316 0.000000
-0.037964 0.096296 -0.015725 -0.920774 -0.081881 -0.381390
-0.017026 0.132419 -0.041105 -0.365154 0.298959 -0.881619
-0.039370 0.114823 0.016307 -0.920347 -0.087008 0.381207
-0.042938 0.114824 -0.000000 -0.996765 -0.080172 0.000000
-0.029263 0.096317 0.029263 -0.704642 -0.083316 0.704642
-0.037964 0.096296 0.015725 -0.920774 -0.081881 0.381390
-0.041105 0.132419 -0.017026 -0.881619 0.298959 -0.365154
-0.016307 0.114823 0.039370 -0.381207 -0.087008 0.920347
-0.030362 0.114824 0.030362 -0.704825 -0.080172 0.704825
-0.000000 0.096317 0.041384 0.000000 -0.083316 0.996521
-0.015725 0.096296 0.037964 -0.381390 -0.081881 0.920774
-0.041105 0.132419 0.017026 -0.881619 0.298959 0.365154
0.016307 0.114823 0.039370 0.381207 -0.087008 0.920347
-0.000000 0.114824 0.042938 0.000000 -0.080172 0.996765
0.029263 0.096317 0.029263 0.704642 -0.083316 0.704642
0.015725 0.096296 0.037964 0.381390 -0.081881 0.920774
-0.017026 0.132419 0.041105 -0.365154 0.298959 0.881619
0.039370 0.114823 0.016307 0.920347 -0.087008 0.381207
0.030362 0.114824 0.030362 0.704825 -0.080172 0.704825
0.041384 0.096317 0.000000 0.996521 -0.083316 0.000000
0.037964 0.096296 0.015725 0.920774 -0.081881 0.381390
0.017026 0.132419 0.041105 0.365154 0.298959 0.881619
0.039370 0.114823 -0.016307 0.920347 -0.087008 -0.381207
0.042938 0.114824 0.000000 0.996765 -0.080172 0.000000
0.029263 0.096317 -0.029263 0.704642 -0.083316 -0.704642
0.037964 0.096296 -0.015725 0.920774 -0.081881 -0.381390
0.041105 0.132419 0.017026 0.881619 0.298959 0.365154
0.016307 0.114823 -0.039370 0.381207 -0.087008 -0.920347
0.030362 0.114824 -0.030362 0.704825 -0.080172 -0.704825
0.015725 0.096296 -0.037964 0.381390 -0.081881 -0.920774
0.025278 0.000262 -0.010470 0.413221 -0.894375 -0.171148
0.028852 0.000262 0.000000 0.000000 -1.000000 0.000000
0.024627 0.000262 -0.010201 0.000000 -1.000000 0.000000
-0.036803 0.080262 -0.000658 -0.978790 -0.063295 -0.194708
-0.026489 0.080262 0.025558 -0.829798 -0.063295 0.554430
-0.000658 0.080262 0.036803 -0.194708 -0.063295 0.978790
0.025558 0.080262 0.026489 0.554430 -0.063295 0.829798
0.036803 0.080262 0.000658 0.978790 -0.063295 0.194708
0.026489 0.080262 -0.025558 0.829798 -0.063295 -0.554430
0.000658 0.004245 -0.031886 0.194708 -0.063295 -0.978790
0.016535 0.133812 -0.039919 0.145329 0.925047 -0.350871
0.017026 0.132419 -0.041105 0.365154 0.298959 -0.881619
0.039919 0.133812 -0.016535 0.350871 0.925047 -0.145329
0.039919 0.133812 0.016535 0.350871 0.925047 0.145329
0.016535 0.133812 0.039919 0.145329 0.925047 0.350871
-0.016535 0.133812 0.039919 -0.145329 0.925047 0.350871
-0.039919 0.133812 0.016535 -0.350871 0.925047 0.145329
-0.039919 0.133812 -0.016535 -0.350871 0.925047 -0.145329
-0.016535 0.133812 -0.039919 -0.145329 0.925047 -0.350871
0.027399 0.003324 0.011349 0.867367 -0.344310 0.359264
0.025278 0.000262 0.010470 0.413221 -0.894375 0.171148
0.029615 0.000262 0.000000 0.509262 -0.860591 0.000000
0.028264 0.018999 0.011707 0.922208 -0.059633 0.382000
0.023013 0.004245 0.022082 0.829798 -0.063295 0.554430
0.027450 0.004245 0.011370 0.922208 -0.059633 0.382000
0.015696 0.095360 -0.037893 0.372936 -0.223975 -0.900388
0.028264 0.018999 -0.011707 0.922208 -0.059633 -0.382000
0.031886 0.004245 -0.000658 0.978790 -0.063295 -0.194708
0.027450 0.004245 -0.011370 0.922208 -0.059633 -0.382000
0.027399 0.003324 -0.011349 0.867367 -0.344310 -0.359264
0.020941 0.000262 -0.020941 0.360088 -0.860591 -0.360088
-0.000000 0.082389 -0.037377 0.000000 -0.309366 -0.950926
-0.000000 0.095383 -0.041306 0.000000 -0.184912 -0.982727
0.011349 0.003324 -0.027399 0.359264 -0.344310 -0.867367
0.010470 0.000262 -0.025278 0.171148 -0.894375 -0.413221
-0.000000 0.000262 -0.029615 0.000000 -0.860591 -0.509262
0.000658 0.018999 -0.032841 0.194708 -0.063295 -0.978790
0.012066 0.034675 -0.029130 0.382000 -0.059633 -0.922208
-0.011349 0.003324 -0.027399 -0.359264 -0.344310 -0.867367
-0.010470 0.000262 -0.025278 -0.171148 -0.894375 -0.413221
-0.020941 0.000262 -0.020941 -0.360088 -0.860591 -0.360088
-0.028264 0.018999 -0.011707 -0.922208 -0.059633 -0.382000
-0.023013 0.004245 -0.022082 -0.829798 -0.063295 -0.554430
-0.027450 0.004245 -0.011370 -0.922208 -0.059633 -0.382000
-0.027399 0.003324 -0.011349 -0.867367 -0.344310 -0.359264
-0.025278 0.000262 -0.010470 -0.413221 -0.894375 -0.171148
-0.029615 0.000262 -0.000000 -0.509262 -0.860591 0.000000
-0.028264 0.018999 0.011707 -0.922208 -0.059633 0.382000
-0.031886 0.004245 0.000658 -0.978790 -0.063295 0.194708
-0.027450 0.004245 0.011370 -0.922208 -0.059633 0.382000
-0.027399 0.003324 0.011349 -0.867367 -0.344310 0.359264
-0.025278 0.000262 0.010470 -0.413221 -0.894375 0.171148
-0.020941 0.000262 0.020941 -0.360088 -0.860591 0.360088
-0.011349 0.003324 0.027399 -0.359264 -0.344310 0.867367
-0.010470 0.000262 0.025278 -0.171148 -0.894375 0.413221
-0.000000 0.000262 0.029615 0.000000 -0.860591 0.509262
-0.011707 0.018999 0.028264 -0.382000 -0.059633 0.922208
-0.022082 0.004245 0.023013 -0.554430 -0.063295 0.829798
-0.011370 0.004245 0.027450 -0.382000 -0.059633 0.922208
0.011707 0.018999 0.028264 0.382000 -0.059633 0.922208
0.000658 0.004245 0.031886 0.194708 -0.063295 0.978790
0.011370 0.004245 0.027450 0.382000 -0.059633 0.922208
0.011349 0.003324 0.027399 0.359264 -0.344310 0.867367
0.010470 0.000262 0.025278 0.171148 -0.894375 0.413221
0.020941 0.000262 0.020941 0.360088 -0.860591 0.360088
0.020401 0.000262 -0.020401 0.000000 -1.000000 0.000000
0.010201 0.000262 -0.024627 0.000000 -1.000000 0.000000
-0.028852 0.000262 -0.000000 0.000000 -1.000000 0.000000
-0.000000 0.000262 -0.028852 0.000000 -1.000000 0.000000
-0.010201 0.000262 -0.024627 0.000000 -1.000000 0.000000
-0.020401 0.000262 -0.020401 0.000000 -1.000000 0.000000
-0.024627 0.000262 -0.010201 0.000000 -1.000000 0.000000
-0.000000 0.000262 0.028852 0.000000 -0.999969 0.000000
-0.024627 0.000262 0.010201 0.000000 -1.000000 0.000000
0.000000 0.132021 -0.040156 0.000000 0.092807 0.995666
-0.014141 0.095530 -0.034140 0.375286 0.195379 0.906064
-0.000000 0.095513 -0.036753 0.000000 0.194891 0.980804
0.000000 0.133793 -0.042974 0.000000 0.929838 -0.367901
-0.030387 0.133793 0.030387 -0.260140 0.929838 0.260140
-0.015498 0.133370 0.037416 0.263192 0.725852 -0.635456
-0.028483 0.133352 0.028483 0.491256 0.719230 -0.491256
0.042974 0.133793 0.000000 0.367931 0.929838 0.000000
0.037416 0.133370 0.015498 -0.635456 0.725852 -0.263222
-0.000000 0.133793 0.042974 0.000000 0.929838 0.367901
0.037416 0.133370 -0.015498 -0.635456 0.725852 0.263222
0.040280 0.133352 0.000000 -0.694723 0.719230 0.000000
-0.042974 0.133793 -0.000000 -0.367931 0.929838 0.000000
-0.037416 0.133370 -0.015498 0.635456 0.725852 0.263222
-0.037416 0.133370 0.015498 0.635456 0.725852 -0.263222
-0.040280 0.133352 -0.000000 0.694723 0.719230 0.000000
0.030387 0.133793 0.030387 0.260140 0.929838 0.260140
0.028483 0.133352 0.028483 -0.491256 0.719230 -0.491256
-0.030387 0.133793 -0.030387 -0.260140 0.929838 -0.260140
-0.028483 0.133352 -0.028483 0.491256 0.719230 0.491256
0.015498 0.133370 0.037416 -0.263192 0.725852 -0.635456
-0.000000 0.133352 0.040280 0.000000 0.719230 -0.694723
-0.015498 0.133370 -0.037416 0.263192 0.725852 0.635456
0.000000 0.133352 -0.040280 0.000000 0.719230 0.694723
-0.036753 0.095513 -0.000000 0.980804 0.194891 0.000000
-0.029604 0.079960 0.012262 0.907651 0.186438 -0.375958
-0.031870 0.079946 -0.000000 0.982727 0.184973 0.000000
0.028395 0.132021 -0.028395 -0.704031 0.092807 0.704031
0.014141 0.095530 -0.034140 -0.375286 0.195379 0.906064
0.025989 0.095513 -0.025989 -0.693533 0.194891 0.693533
0.034140 0.095530 -0.014141 -0.906064 0.195379 0.375286
0.037301 0.132039 -0.015451 -0.919828 0.093295 0.380993
0.040156 0.132021 0.000000 -0.995666 0.092807 0.000000
0.036753 0.095513 0.000000 -0.980804 0.194891 0.000000
0.034140 0.095530 0.014141 -0.906064 0.195379 -0.375286
0.037301 0.132039 0.015451 -0.919828 0.093295 -0.380993
0.028395 0.132021 0.028395 -0.704031 0.092807 -0.704031
0.025989 0.095513 0.025989 -0.693533 0.194891 -0.693533
0.014141 0.095530 0.034140 -0.375286 0.195379 -0.906064
0.015451 0.132039 0.037301 -0.380993 0.093295 -0.919828
-0.000000 0.132021 0.040156 0.000000 0.092807 -0.995666
-0.000000 0.095513 0.036753 0.000000 0.194891 -0.980804
-0.014141 0.095530 0.034140 0.375286 0.195379 -0.906064
-0.015451 0.132039 0.037301 0.380993 0.093295 -0.919828
-0.028395 0.132021 0.028395 0.704031 0.092807 -0.704031
-0.025989 0.095513 0.025989 0.693533 0.194891 -0.693533
-0.034140 0.095530 0.014141 0.906064 0.195379 -0.375286
-0.037301 0.132039 0.015451 0.919828 0.093295 -0.380993
-0.040156 0.132021 -0.000000 0.995666 0.092807 0.000000
-0.034140 0.095530 -0.014141 0.906064 0.195379 0.375286
-0.037301 0.132039 -0.015451 0.919828 0.093295 0.380993
-0.028395 0.132021 -0.028395 0.704031 0.092807 0.704031
-0.025989 0.095513 -0.025989 0.693533 0.194891 0.693533
-0.015451 0.132039 -0.037301 0.380993 0.093295 0.919828
0.015451 0.132039 -0.037301 -0.380993 0.093295 0.919828
-0.000000 0.079946 0.031870 0.000000 0.184973 -0.982727
0.010553 0.009662 0.025476 -0.348796 0.411359 -0.842067
-0.000000 0.009650 0.027427 0.000000 0.415021 -0.909787
-0.029604 0.079960 -0.012262 0.907651 0.186438 0.375958
-0.022536 0.079946 -0.022536 0.694876 0.184973 0.694876
-0.012262 0.079960 -0.029604 0.375958 0.186438 0.907651
0.012262 0.079960 -0.029604 -0.375958 0.186438 0.907651
-0.000000 0.079946 -0.031870 0.000000 0.184973 0.982727
0.022536 0.079946 -0.022536 -0.694876 0.184973 0.694876
0.029604 0.079960 -0.012262 -0.907651 0.186438 0.375958
0.031870 0.079946 0.000000 -0.982727 0.184973 0.000000
0.029604 0.079960 0.012262 -0.907651 0.186438 -0.375958
0.022536 0.079946 0.022536 -0.694876 0.184973 -0.694876
0.012262 0.079960 0.029604 -0.375958 0.186438 -0.907651
-0.012262 0.079960 0.029604 0.375958 0.186438 -0.907651
-0.022536 0.079946 0.022536 0.694876 0.184973 -0.694876
-0.010553 0.009662 -0.025476 0.348796 0.411359 0.842067
-0.000000 0.009650 -0.027427 0.000000 0.415021 0.909787
-0.010553 0.009662 0.025476 0.348796 0.411359 -0.842067
-0.019394 0.009650 0.019394 0.643330 0.415021 -0.643300
-0.025476 0.009662 0.010553 0.842067 0.411359 -0.348796
-0.027427 0.009650 -0.000000 0.909787 0.415021 0.000000
-0.025476 0.009662 -0.010553 0.842067 0.411359 0.348796
-0.019394 0.009650 -0.019394 0.643330 0.415021 0.643300
-0.000000 0.008800 0.026501 0.000000 0.917173 -0.398450
0.018739 0.008800 0.018739 -0.281747 0.917173 -0.281747
0.018739 0.008800 -0.018739 -0.281747 0.917173 0.281747
0.010553 0.009662 -0.025476 -0.348796 0.411359 0.842067
0.019394 0.009650 -0.019394 -0.643300 0.415021 0.643300
0.025476 0.009662 -0.010553 -0.842067 0.411359 0.348796
0.027427 0.009650 0.000000 -0.909787 0.415021 0.000000
0.025476 0.009662 0.010553 -0.842067 0.411359 -0.348796
0.019394 0.009650 0.019394 -0.643300 0.415021 -0.643300
0.022082 0.004245 0.023013 0.554430 -0.063295 0.829798
0.022756 0.018999 0.023688 0.554430 -0.063295 0.829798
0.012066 0.034675 0.029130 0.382000 -0.059633 0.922208
0.023473 0.034675 0.024405 0.554430 -0.063295 0.829798
0.012424 0.050351 0.029995 0.382000 -0.059633 0.922208
0.024190 0.050351 0.025121 0.554430 -0.063295 0.829798
0.012783 0.066027 0.030861 0.382000 -0.059633 0.922208
-0.000658 0.004245 0.031886 -0.194708 -0.063295 0.978790
-0.000658 0.018999 0.032841 -0.194708 -0.063295 0.978790
-0.012066 0.034675 0.029130 -0.382000 -0.059633 0.922208
-0.000658 0.034675 0.033855 -0.194708 -0.063295 0.978790
-0.012424 0.050351 0.029995 -0.382000 -0.059633 0.922208
-0.000658 0.050351 0.034869 -0.194708 -0.063295 0.978790
-0.012783 0.066027 0.030861 -0.382000 -0.059633 0.922208
-0.023013 0.004245 0.022082 -0.829798 -0.063295 0.554430
-0.023688 0.018999 0.022756 -0.829798 -0.063295 0.554430
-0.029130 0.034675 0.012066 -0.922208 -0.059633 0.382000
-0.024405 0.034675 0.023473 -0.829798 -0.063295 0.554430
-0.029995 0.050351 0.012424 -0.922208 -0.059633 0.382000
-0.025121 0.050351 0.024190 -0.829798 -0.063295 0.554430
-0.030861 0.066027 0.012783 -0.922208 -0.059633 0.382000
-0.031886 0.004245 -0.000658 -0.978790 -0.063295 -0.194708
-0.032841 0.018999 -0.000658 -0.978790 -0.063295 -0.194708
-0.029130 0.034675 -0.012066 -0.922208 -0.059633 -0.382000
-0.033855 0.034675 -0.000658 -0.978790 -0.063295 -0.194708
-0.029995 0.050351 -0.012424 -0.922208 -0.059633 -0.382000
-0.034869 0.050351 -0.000658 -0.978790 -0.063295 -0.194708
-0.030861 0.066027 -0.012783 -0.922208 -0.059633 -0.382000
-0.022082 0.004245 -0.023013 -0.554430 -0.063295 -0.829798
-0.011707 0.018999 -0.028264 -0.382000 -0.059633 -0.922208
-0.011370 0.004245 -0.027450 -0.382000 -0.059633 -0.922208
-0.022756 0.018999 -0.023688 -0.554430 -0.063295 -0.829798
-0.012066 0.034675 -0.029130 -0.382000 -0.059633 -0.922208
-0.023473 0.034675 -0.024405 -0.554430 -0.063295 -0.829798
-0.012424 0.050351 -0.029995 -0.382000 -0.059633 -0.922208
-0.024190 0.050351 -0.025121 -0.554430 -0.063295 -0.829798
-0.012783 0.066027 -0.030861 -0.382000 -0.059633 -0.922208
-0.000658 0.003324 -0.031827 -0.222846 -0.302561 -0.926695
0.000000 0.002770 -0.031651 0.000000 -0.544694 -0.838618
0.000658 0.034675 -0.033855 0.194708 -0.063295 -0.978790
0.012424 0.050351 -0.029995 0.382000 -0.059633 -0.922208
0.000658 0.050351 -0.034869 0.194708 -0.063295 -0.978790
0.012783 0.066027 -0.030861 0.382000 -0.059633 -0.922208
0.024190 0.050351 -0.025121 0.554430 -0.063295 -0.829798
0.023013 0.004245 -0.022082 0.829798 -0.063295 -0.554430
0.023688 0.018999 -0.022756 0.829798 -0.063295 -0.554430
0.029130 0.034675 -0.012066 0.922208 -0.059633 -0.382000
0.024405 0.034675 -0.023473 0.829798 -0.063295 -0.554430
0.029995 0.050351 -0.012424 0.922208 -0.059633 -0.382000
0.025121 0.050351 -0.024190 0.829798 -0.063295 -0.554430
0.030861 0.066027 -0.012783 0.922208 -0.059633 -0.382000
0.031886 0.004245 0.000658 0.978790 -0.063295 0.194708
0.032841 0.018999 0.000658 0.978790 -0.063295 0.194708
0.029130 0.034675 0.012066 0.922208 -0.059633 0.382000
0.033855 0.034675 0.000658 0.978790 -0.063295 0.194708
0.029995 0.050351 0.012424 0.922208 -0.059633 0.382000
0.034869 0.050351 0.000658 0.978790 -0.063295 0.194708
0.030861 0.066027 0.012783 0.922208 -0.059633 0.382000
-0.031827 0.003324 0.000658 -0.926695 -0.302561 0.222846
-0.031651 0.002770 -0.000000 -0.838618 -0.544694 0.000000
-0.025121 0.050351 -0.024190 -0.829798 -0.063295 -0.554430
-0.032841 0.018999 0.000658 -0.978790 -0.063295 0.194708
-0.033855 0.034675 0.000658 -0.978790 -0.063295 0.194708
-0.022971 0.003324 -0.022039 -0.812860 -0.302561 -0.497665
-0.022380 0.002770 -0.022380 -0.592975 -0.544694 -0.592975
-0.023688 0.018999 -0.022756 -0.829798 -0.063295 -0.554430
-0.024405 0.034675 -0.023473 -0.829798 -0.063295 -0.554430
-0.022039 0.003324 0.022971 -0.497665 -0.302561 0.812860
-0.022380 0.002770 0.022380 -0.592975 -0.544694 0.592975
-0.034869 0.050351 0.000658 -0.978790 -0.063295 0.194708
-0.022756 0.018999 0.023688 -0.554430 -0.063295 0.829798
-0.023473 0.034675 0.024405 -0.554430 -0.063295 0.829798
0.000658 0.003324 0.031827 0.222846 -0.302561 0.926695
-0.000000 0.002770 0.031651 0.000000 -0.544694 0.838618
-0.024190 0.050351 0.025121 -0.554399 -0.063295 0.829798
0.000658 0.018999 0.032841 0.194708 -0.063295 0.978790
0.000658 0.034675 0.033855 0.194708 -0.063295 0.978790
0.022971 0.003324 0.022039 0.812860 -0.302561 0.497665
0.022380 0.002770 0.022380 0.592975 -0.544694 0.592975
0.000658 0.050351 0.034869 0.194708 -0.063295 0.978790
0.023688 0.018999 0.022756 0.829798 -0.063295 0.554430
0.024405 0.034675 0.023473 0.829798 -0.063295 0.554430
0.031827 0.003324 -0.000658 0.926695 -0.302561 -0.222846
0.031651 0.002770 0.000000 0.838618 -0.544694 0.000000
0.025121 0.050351 0.024190 0.829798 -0.063295 0.554430
0.032841 0.018999 -0.000658 0.978790 -0.063295 -0.194708
0.033855 0.034675 -0.000658 0.978790 -0.063295 -0.194708
0.022039 0.003324 -0.022971 0.497665 -0.302561 -0.812860
0.022380 0.002770 -0.022380 0.592975 -0.544694 -0.592975
0.034869 0.050351 -0.000658 0.978790 -0.063295 -0.194708
0.022756 0.018999 -0.023688 0.554430 -0.063295 -0.829798
0.023473 0.034675 -0.024405 0.554430 -0.063295 -0.829798
0.000658 0.080262 -0.036803 0.194708 -0.063295 -0.978790
-0.000658 0.018999 -0.032841 -0.194708 -0.063295 -0.978790
-0.000658 0.034675 -0.033855 -0.194708 -0.063295 -0.978790
-0.000658 0.050351 -0.034869 -0.194708 -0.063295 -0.978790
0.010197 0.008802 -0.024617 -0.155095 0.914151 0.374462
-0.000000 0.008800 -0.026501 0.000000 0.917173 0.398450
0.024617 0.008802 -0.010197 -0.374462 0.914151 0.155095
0.024617 0.008802 0.010197 -0.374462 0.914151 -0.155095
0.026501 0.008800 0.000000 -0.398450 0.917173 0.000000
0.010197 0.008802 0.024617 -0.155095 0.914151 -0.374462
-0.010197 0.008802 0.024617 0.155095 0.914151 -0.374462
-0.024617 0.008802 0.010197 0.374462 0.914151 -0.155095
-0.018739 0.008800 0.018739 0.281747 0.917173 -0.281747
-0.024617 0.008802 -0.010197 0.374462 0.914151 0.155095
-0.026501 0.008800 -0.000000 0.398450 0.917173 0.000000
-0.010197 0.008802 -0.024617 0.155095 0.914151 0.374462
-0.018739 0.008800 -0.018739 0.281747 0.917173 0.281747
0.000658 0.003324 -0.031827 0.222846 -0.302561 -0.926695
0.000658 0.080992 -0.036851 0.219245 -0.155431 -0.963195
-0.000658 0.080992 -0.036851 -0.219245 -0.155431 -0.963195
0.022971 0.003324 -0.022039 0.812860 -0.302561 -0.497665
0.026523 0.080992 -0.025592 0.836116 -0.155431 -0.526048
0.025592 0.080992 -0.026523 0.526048 -0.155431 -0.836116
0.031827 0.003324 0.000658 0.926695 -0.302561 0.222846
0.036851 0.080992 0.000658 0.963195 -0.155431 0.219245
0.036851 0.080992 -0.000658 0.963195 -0.155431 -0.219245
0.022039 0.003324 0.022971 0.497665 -0.302561 0.812860
0.025592 0.080992 0.026523 0.526048 -0.155431 0.836116
0.026523 0.080992 0.025592 0.836116 -0.155431 0.526048
-0.000658 0.003324 0.031827 -0.222846 -0.302561 0.926695
-0.000658 0.080992 0.036851 -0.219214 -0.155431 0.963195
0.000658 0.080992 0.036851 0.219214 -0.155431 0.963195
-0.022971 0.003324 0.022039 -0.812860 -0.302561 0.497665
-0.026523 0.080992 0.025592 -0.836116 -0.155431 0.526048
-0.025592 0.080992 0.026523 -0.526048 -0.155431 0.836116
-0.031827 0.003324 -0.000658 -0.926695 -0.302561 -0.222846
-0.036851 0.080992 -0.000658 -0.963195 -0.155431 -0.219245
-0.036851 0.080992 0.000658 -0.963195 -0.155431 0.219245
-0.022039 0.003324 -0.022971 -0.497665 -0.302561 -0.812860
-0.025592 0.080992 -0.026523 -0.526048 -0.155431 -0.836116
-0.026523 0.080992 -0.025592 -0.836116 -0.155431 -0.526048
0.013261 0.082343 -0.032015 0.359081 -0.345714 -0.866909
0.032015 0.082343 -0.013261 0.866909 -0.345714 -0.359081
0.032015 0.082343 0.013261 0.866909 -0.345714 0.359081
0.013261 0.082343 0.032015 0.359081 -0.345714 0.866909
-0.013261 0.082343 0.032015 -0.359081 -0.345714 0.866909
-0.032015 0.082343 0.013261 -0.866909 -0.345714 0.359081
-0.032015 0.082343 -0.013261 -0.866909 -0.345714 -0.359081
-0.013261 0.082343 -0.032015 -0.359081 -0.345714 -0.866909
-0.000658 0.004245 -0.031886 -0.194708 -0.063295 -0.978790
-0.000658 0.066027 -0.035883 -0.194708 -0.063295 -0.978790
0.025838 0.066027 -0.024907 0.829798 -0.063295 -0.554430
0.024907 0.066027 -0.025838 0.554430 -0.063295 -0.829798
0.035883 0.066027 0.000658 0.978790 -0.063295 0.194708
0.035883 0.066027 -0.000658 0.978790 -0.063295 -0.194708
0.024907 0.066027 0.025838 0.554430 -0.063295 0.829798
0.025838 0.066027 0.024907 0.829798 -0.063295 0.554430
-0.000658 0.066027 0.035883 -0.194708 -0.063295 0.978790
0.000658 0.066027 0.035883 0.194708 -0.063295 0.978790
-0.025838 0.066027 0.024907 -0.829798 -0.063295 0.554430
-0.024907 0.066027 0.025838 -0.554430 -0.063295 0.829798
-0.035883 0.066027 -0.000658 -0.978790 -0.063295 -0.194708
-0.035883 0.066027 0.000658 -0.978790 -0.063295 0.194708
-0.024907 0.066027 -0.025838 -0.554430 -0.063295 -0.829798
-0.025838 0.066027 -0.024907 -0.829798 -0.063295 -0.554430
-0.000000 0.000262 -0.000000 0.000000 -1.000000 0.000000
0.024627 0.000262 0.010201 0.000000 -1.000000 0.000000
0.020401 0.000262 0.020401 0.000000 -0.999969 0.000000
0.010201 0.000262 0.024627 0.000000 -1.000000 0.000000
-0.010201 0.000262 0.024627 0.000000 -1.000000 0.000000
-0.020401 0.000262 0.020401 0.000000 -1.000000 0.000000
0.000658 0.066027 -0.035883 0.194708 -0.063295 -0.978790
3 0 1 2
3 3 4 5
3 6 7 8
3 9 10 11
3 12 13 14
3 15 16 17
3 18 19 20
3 21 22 23
3 24 25 26
3 27 0 2
3 28 29 30
3 31 32 33
3 34 35 36
3 37 38 39
3 40 41 42
3 43 44 45
3 46 47 48
3 49 50 51
3 52 53 54
3 55 56 57
3 58 59 60
3 61 62 63
3 64 65 66
3 67 68 69
3 70 71 72
3 73 74 75
3 67 71 76
3 77 78 79
3 80 78 81
3 80 82 83
3 84 82 85
3 52 29 86
3 84 87 88
3 89 87 90
3 28 56 91
3 89 92 93
3 94 92 95
3 55 59 96
3 94 97 98
3 99 97 100
3 58 62 101
3 99 102 103
3 104 102 105
3 61 65 106
3 104 107 108
3 109 107 110
3 64 68 111
3 109 112 113
3 77 112 114
3 115 116 117
3 118 31 33
3 119 34 36
3 120 37 39
3 121 40 42
3 122 43 45
3 123 46 48
3 124 18 20
3 53 125 126
3 71 127 76
3 68 128 111
3 65 129 106
3 62 130 101
3 59 131 96
3 56 132 91
3 29 133 86
3 125 71 126
3 127 68 76
3 128 65 111
3 129 62 106
3 130 59 101
3 131 56 96
3 132 29 91
3 133 53 86
3 70 53 126
3 134 135 136
3 137 138 139
3 4 140 5
3 141 142 143
3 144 115 145
3 146 21 147
3 140 146 147
3 148 149 150
3 22 24 23
3 25 15 26
3 151 152 18
3 153 154 155
3 156 157 158
3 16 12 17
3 159 160 161
3 162 163 164
3 165 166 167
3 13 9 14
3 10 6 11
3 168 169 170
3 171 172 173
3 7 3 8
3 174 175 176
3 177 178 179
3 149 180 181
3 160 182 161
3 154 183 184
3 160 185 186
3 169 187 170
3 115 180 145
3 166 182 188
3 189 190 191
3 192 74 125
3 193 194 195
3 196 197 128
3 198 194 130
3 196 199 200
3 201 202 132
3 201 203 204
3 205 197 206
3 207 202 208
3 73 199 127
3 205 209 129
3 193 203 131
3 198 209 210
3 207 211 133
3 192 211 212
3 213 214 215
3 216 217 218
3 216 219 220
3 221 219 222
3 221 223 224
3 225 223 226
3 225 227 228
3 229 227 230
3 229 231 232
3 233 231 234
3 233 235 236
3 237 235 213
3 237 238 239
3 240 238 241
3 240 190 242
3 189 217 243
3 244 245 246
3 213 247 238
3 241 247 248
3 241 249 190
3 191 250 217
3 191 249 251
3 218 250 252
3 218 253 219
3 222 253 254
3 222 255 223
3 226 255 256
3 226 257 227
3 230 257 244
3 230 258 231
3 234 258 259
3 234 214 235
3 251 260 261
3 244 262 258
3 259 262 263
3 259 264 214
3 215 264 265
3 215 266 247
3 248 266 267
3 248 260 249
3 268 269 270
3 252 271 272
3 252 273 253
3 254 273 274
3 254 275 255
3 256 275 276
3 256 245 257
3 277 174 176
3 278 279 174
3 280 281 279
3 282 283 281
3 284 171 173
3 285 286 171
3 287 288 286
3 289 290 288
3 291 162 164
3 292 293 162
3 294 295 293
3 296 297 295
3 298 156 158
3 299 300 156
3 301 302 300
3 303 304 302
3 305 306 307
3 308 309 306
3 310 311 309
3 312 313 311
3 314 315 150
3 316 317 152
3 318 319 317
3 319 320 317
3 321 141 143
3 322 323 141
3 324 325 323
3 326 327 325
3 328 137 139
3 329 330 137
3 331 332 330
3 333 334 332
3 335 336 161
3 304 337 302
3 293 338 162
3 295 339 293
3 340 341 155
3 300 342 156
3 302 343 300
3 344 345 167
3 297 346 295
3 286 347 171
3 288 348 286
3 349 350 170
3 290 351 288
3 279 352 174
3 281 353 279
3 354 355 179
3 283 356 281
3 330 357 137
3 332 358 330
3 359 360 136
3 334 361 332
3 323 362 141
3 325 363 323
3 364 365 145
3 327 366 325
3 152 367 18
3 317 368 152
3 369 49 51
3 309 370 306
3 311 371 309
3 313 372 311
3 373 261 374
3 375 272 270
3 376 274 377
3 378 276 269
3 379 246 268
3 380 263 381
3 382 265 383
3 384 267 385
3 373 272 271
3 375 274 273
3 376 276 275
3 378 246 245
3 379 263 262
3 380 265 264
3 382 267 266
3 384 261 260
3 251 271 250
3 314 386 315
3 387 388 146
3 364 389 365
3 390 391 4
3 359 392 360
3 393 394 7
3 354 395 355
3 396 397 10
3 349 398 350
3 399 400 13
3 344 401 345
3 402 403 16
3 335 404 336
3 405 406 25
3 340 407 341
3 408 409 22
3 387 410 49
3 388 369 1
3 389 19 321
3 390 411 46
3 392 142 328
3 393 412 43
3 395 138 277
3 396 413 40
3 398 175 284
3 399 414 37
3 401 172 291
3 402 415 34
3 404 163 298
3 405 416 31
3 305 340 157
3 408 417 0
3 394 411 7
3 391 410 4
3 388 417 146
3 409 416 22
3 406 415 25
3 403 414 16
3 400 413 13
3 397 412 10
3 370 124 418
3 371 151 370
3 372 316 371
3 419 318 372
3 420 50 123
3 326 421 420
3 324 320 326
3 322 368 324
3 422 47 122
3 333 423 422
3 331 366 333
3 331 362 363
3 424 44 121
3 282 425 424
3 280 361 282
3 278 358 280
3 426 41 120
3 289 427 426
3 289 353 356
3 287 352 353
3 428 38 119
3 296 429 428
3 294 351 296
3 292 348 294
3 430 35 118
3 430 346 431
3 301 346 303
3 299 339 301
3 432 32 27
3 312 433 432
3 310 337 312
3 308 343 310
3 306 418 307
3 112 54 70
3 102 69 64
3 97 66 61
3 92 63 58
3 87 60 55
3 82 57 28
3 78 30 52
3 107 72 67
3 112 72 113
3 107 69 108
3 102 66 103
3 97 63 98
3 92 60 93
3 87 57 88
3 78 54 79
3 82 30 83
3 212 243 74
3 208 242 211
3 208 239 240
3 204 239 202
3 204 236 237
3 195 236 203
3 195 232 233
3 210 232 194
3 210 228 229
3 206 228 209
3 206 224 225
3 200 224 197
3 200 220 221
3 75 220 199
3 75 243 216
3 212 242 189
3 147 114 140
3 5 114 109
3 5 110 3
3 8 110 104
3 8 105 6
3 11 105 99
3 11 100 9
3 14 100 94
3 14 95 12
3 17 95 89
3 17 90 15
3 26 90 84
3 26 85 24
3 23 85 80
3 23 81 21
3 147 81 77
3 307 314 153
3 418 386 314
3 305 342 308
3 298 338 299
3 291 347 292
3 284 352 285
3 277 357 278
3 328 362 329
3 321 367 322
3 392 139 134
3 389 143 144
3 407 307 153
3 404 158 159
3 401 164 165
3 398 173 168
3 395 176 177
3 176 349 177
3 173 344 168
3 164 335 165
3 158 340 159
3 143 359 144
3 139 354 134
3 386 20 148
3 20 364 148
3 181 434 183
3 434 186 185
3 434 435 436
3 434 188 182
3 434 184 183
3 434 437 187
3 434 117 116
3 434 438 439
3 149 183 150
3 178 436 179
3 135 436 435
3 166 439 167
3 178 187 437
3 169 439 438
3 154 185 155
3 135 116 136
3 27 409 408
3 118 406 405
3 119 403 402
3 120 400 399
3 121 397 396
3 122 394 393
3 123 391 390
3 1 440 419
3 440 51 319
3 420 48 327
3 422 45 334
3 424 42 283
3 426 39 290
3 428 36 297
3 430 33 304
3 51 421 319
3 48 423 327
3 45 425 334
3 42 427 283
3 39 429 290
3 36 431 297
3 33 433 304
3 432 2 313
3 2 419 313
3 0 388 1
3 3 411 4
3 6 412 7
3 9 413 10
3 12 414 13
3 15 415 16
3 18 367 19
3 21 417 22
3 24 416 25
3 27 408 0
3 28 91 29
3 31 409 32
3 34 406 35
3 37 403 38
3 40 400 41
3 43 397 44
3 46 394 47
3 49 391 50
3 52 86 53
3 55 96 56
3 58 101 59
3 61 106 62
3 64 111 65
3 67 76 68
3 70 126 71
3 73 125 74
3 67 72 71
3 77 81 78
3 80 83 78
3 80 85 82
3 84 88 82
3 52 30 29
3 84 90 87
3 89 93 87
3 28 57 56
3 89 95 92
3 94 98 92
3 55 60 59
3 94 100 97
3 99 103 97
3 58 63 62
3 99 105 102
3 104 108 102
3 61 66 65
3 104 110 107
3 109 113 107
3 64 69 68
3 109 114 112
3 77 79 112
3 115 136 116
3 118 405 31
3 119 402 34
3 120 399 37
3 121 396 40
3 122 393 43
3 123 390 46
3 124 151 18
3 53 192 125
3 71 73 127
3 68 196 128
3 65 205 129
3 62 198 130
3 59 193 131
3 56 201 132
3 29 207 133
3 125 73 71
3 127 196 68
3 128 205 65
3 129 198 62
3 130 193 59
3 131 201 56
3 132 207 29
3 133 192 53
3 70 54 53
3 136 360 392
3 392 134 136
3 137 357 138
3 4 410 140
3 141 362 142
3 145 365 389
3 389 144 145
3 146 417 21
3 140 410 146
3 150 315 386
3 386 148 150
3 22 416 24
3 25 415 15
3 151 316 152
3 155 341 407
3 407 153 155
3 156 342 157
3 16 414 12
3 161 336 404
3 404 159 161
3 162 338 163
3 167 345 401
3 401 165 167
3 13 413 9
3 10 412 6
3 170 350 398
3 398 168 170
3 171 347 172
3 7 411 3
3 174 352 175
3 179 355 395
3 395 177 179
3 149 145 180
3 160 186 182
3 154 150 183
3 160 155 185
3 169 438 187
3 115 117 180
3 166 161 182
3 189 242 190
3 192 212 74
3 193 130 194
3 196 200 197
3 198 210 194
3 196 127 199
3 201 204 202
3 201 131 203
3 205 128 197
3 207 132 202
3 73 75 199
3 205 206 209
3 193 195 203
3 198 129 209
3 207 208 211
3 192 133 211
3 213 235 214
3 216 243 217
3 216 218 219
3 221 220 219
3 221 222 223
3 225 224 223
3 225 226 227
3 229 228 227
3 229 230 231
3 233 232 231
3 233 234 235
3 237 236 235
3 237 213 238
3 240 239 238
3 240 241 190
3 189 191 217
3 244 257 245
3 213 215 247
3 241 238 247
3 241 248 249
3 191 251 250
3 191 190 249
3 218 217 250
3 218 252 253
3 222 219 253
3 222 254 255
3 226 223 255
3 226 256 257
3 230 227 257
3 230 244 258
3 234 231 258
3 234 259 214
3 251 249 260
3 244 246 262
3 259 258 262
3 259 263 264
3 215 214 264
3 215 265 266
3 248 247 266
3 248 267 260
3 375 270 377
3 373 374 270
3 384 385 374
3 382 383 385
3 380 381 383
3 379 268 381
3 378 269 268
3 376 377 269
3 270 374 268
3 385 383 374
3 381 268 374
3 269 377 270
3 374 383 381
3 252 250 271
3 252 272 273
3 254 253 273
3 254 274 275
3 256 255 275
3 256 276 245
3 277 278 174
3 278 280 279
3 280 282 281
3 282 424 283
3 284 285 171
3 285 287 286
3 287 289 288
3 289 426 290
3 291 292 162
3 292 294 293
3 294 296 295
3 296 428 297
3 298 299 156
3 299 301 300
3 301 303 302
3 303 430 304
3 305 308 306
3 308 310 309
3 310 312 311
3 312 432 313
3 150 154 153
3 153 314 150
3 316 318 317
3 318 440 319
3 319 421 320
3 321 322 141
3 322 324 323
3 324 326 325
3 326 420 327
3 328 329 137
3 329 331 330
3 331 333 332
3 333 422 334
3 161 166 165
3 165 335 161
3 304 433 337
3 293 339 338
3 295 346 339
3 155 160 159
3 159 340 155
3 300 343 342
3 302 337 343
3 167 169 168
3 168 344 167
3 297 431 346
3 286 348 347
3 288 351 348
3 170 178 177
3 177 349 170
3 290 429 351
3 279 353 352
3 281 356 353
3 179 135 134
3 134 354 179
3 283 427 356
3 330 358 357
3 332 361 358
3 136 115 144
3 144 359 136
3 334 425 361
3 323 363 362
3 325 366 363
3 145 149 148
3 148 364 145
3 327 423 366
3 152 368 367
3 317 320 368
3 369 387 49
3 309 371 370
3 311 372 371
3 313 419 372
3 373 271 261
3 375 273 272
3 376 275 274
3 378 245 276
3 379 262 246
3 380 264 263
3 382 266 265
3 384 260 267
3 373 270 272
3 375 377 274
3 376 269 276
3 378 268 246
3 379 381 263
3 380 383 265
3 382 385 267
3 384 374 261
3 251 261 271
3 387 146 410
3 388 387 369
3 389 364 19
3 390 4 411
3 392 359 142
3 393 7 412
3 395 354 138
3 396 10 413
3 398 349 175
3 399 13 414
3 401 344 172
3 402 16 415
3 404 335 163
3 405 25 416
3 305 407 340
3 408 22 417
3 394 46 411
3 391 49 410
3 388 0 417
3 409 31 416
3 406 34 415
3 403 37 414
3 400 40 413
3 397 43 412
3 370 151 124
3 371 316 151
3 372 318 316
3 419 440 318
3 420 421 50
3 326 320 421
3 324 368 320
3 322 367 368
3 422 423 47
3 333 366 423
3 331 363 366
3 331 329 362
3 424 425 44
3 282 361 425
3 280 358 361
3 278 357 358
3 426 427 41
3 289 356 427
3 289 287 353
3 287 285 352
3 428 429 38
3 296 351 429
3 294 348 351
3 292 347 348
3 430 431 35
3 430 303 346
3 301 339 346
3 299 338 339
3 432 433 32
3 312 337 433
3 310 343 337
3 308 342 343
3 306 370 418
3 112 79 54
3 102 108 69
3 97 103 66
3 92 98 63
3 87 93 60
3 82 88 57
3 78 83 30
3 107 113 72
3 112 70 72
3 107 67 69
3 102 64 66
3 97 61 63
3 92 58 60
3 87 55 57
3 78 52 54
3 82 28 30
3 212 189 243
3 208 240 242
3 208 202 239
3 204 237 239
3 204 203 236
3 195 233 236
3 195 194 232
3 210 229 232
3 210 209 228
3 206 225 228
3 206 197 224
3 200 221 224
3 200 199 220
3 75 216 220
3 75 74 243
3 212 211 242
3 147 77 114
3 5 140 114
3 5 109 110
3 8 3 110
3 8 104 105
3 11 6 105
3 11 99 100
3 14 9 100
3 14 94 95
3 17 12 95
3 17 89 90
3 26 15 90
3 26 84 85
3 23 24 85
3 23 80 81
3 147 21 81
3 307 418 314
3 418 124 386
3 305 157 342
3 298 163 338
3 291 172 347
3 284 175 352
3 277 138 357
3 328 142 362
3 321 19 367
3 392 328 139
3 389 321 143
3 407 305 307
3 404 298 158
3 401 291 164
3 398 284 173
3 395 277 176
3 176 175 349
3 173 172 344
3 164 163 335
3 158 157 340
3 143 142 359
3 139 138 354
3 386 124 20
3 20 19 364
3 181 180 434
3 434 182 186
3 434 116 435
3 434 439 188
3 434 185 184
3 434 436 437
3 434 180 117
3 434 187 438
3 149 181 183
3 178 437 436
3 135 179 436
3 166 188 439
3 178 170 187
3 169 167 439
3 154 184 185
3 135 435 116
3 27 32 409
3 118 35 406
3 119 38 403
3 120 41 400
3 121 44 397
3 122 47 394
3 123 50 391
3 1 369 440
3 440 369 51
3 420 123 48
3 422 122 45
3 424 121 42
3 426 120 39
3 428 119 36
3 430 118 33
3 51 50 421
3 48 47 423
3 45 44 425
3 42 41 427
3 39 38 429
3 36 35 431
3 33 32 433
3 432 27 2
3 2 1 419
