ply
format ascii 1.0
comment Created by Blender 2.78 (sub 0) - www.blender.org, source file: 'pokal.blend'
element vertex 476
property float x
property float y
property float z
property float nx
property float ny
property float nz
element face 172
property list uchar uint vertex_indices
end_header
0.000000 0.003324 -0.032100 0.382002 -0.059651 -0.922234
0.026283 0.081703 -0.026283 0.382002 -0.059651 -0.922234
0.022698 0.003324 -0.022698 0.382002 -0.059651 -0.922234
0.026283 0.081703 -0.026283 0.922234 -0.059651 -0.382002
0.032100 0.003324 0.000000 0.922234 -0.059651 -0.382002
0.022698 0.003324 -0.022698 0.922234 -0.059651 -0.382002
0.037169 0.081703 0.000000 0.922234 -0.059651 0.382002
0.022698 0.003324 0.022698 0.922234 -0.059651 0.382002
0.032100 0.003324 0.000000 0.922234 -0.059651 0.382002
0.026283 0.081703 0.026283 0.382002 -0.059651 0.922234
-0.000000 0.003324 0.032100 0.382002 -0.059651 0.922234
0.022698 0.003324 0.022698 0.382002 -0.059651 0.922234
-0.000000 0.081703 0.037169 -0.382002 -0.059651 0.922234
-0.022698 0.003324 0.022698 -0.382002 -0.059651 0.922234
-0.000000 0.003324 0.032100 -0.382002 -0.059651 0.922234
-0.026283 0.081703 0.026283 -0.922234 -0.059651 0.382002
-0.032100 0.003324 -0.000000 -0.922234 -0.059651 0.382002
-0.022698 0.003324 0.022698 -0.922234 -0.059651 0.382002
-0.026283 0.081703 -0.026283 -0.348406 -0.413664 -0.841127
-0.015906 0.097602 -0.038400 -0.348406 -0.413664 -0.841127
0.000000 0.081703 -0.037169 -0.348406 -0.413664 -0.841127
-0.026283 0.081703 -0.026283 -0.382002 -0.059651 -0.922234
0.000000 0.003324 -0.032100 -0.382002 -0.059651 -0.922234
-0.022698 0.003324 -0.022698 -0.382002 -0.059651 -0.922234
-0.037169 0.081703 -0.000000 -0.922234 -0.059651 -0.382002
-0.022698 0.003324 -0.022698 -0.922234 -0.059651 -0.382002
-0.032100 0.003324 -0.000000 -0.922234 -0.059651 -0.382002
0.000000 0.003324 -0.032100 -0.306187 -0.599858 -0.739202
-0.020941 0.000262 -0.020941 -0.306187 -0.599858 -0.739202
-0.022698 0.003324 -0.022698 -0.306187 -0.599858 -0.739202
-0.039370 0.114823 -0.016307 -0.839534 -0.075036 -0.538100
-0.031319 0.132396 -0.031319 -0.839534 -0.075036 -0.538100
-0.030362 0.114824 -0.030362 -0.839534 -0.075036 -0.538100
-0.037169 0.081703 -0.000000 -0.841127 -0.413664 -0.348406
-0.038400 0.097602 -0.015906 -0.841127 -0.413664 -0.348406
-0.026283 0.081703 -0.026283 -0.841127 -0.413664 -0.348406
-0.026283 0.081703 0.026283 -0.841127 -0.413664 0.348406
-0.038400 0.097602 0.015906 -0.841127 -0.413664 0.348406
-0.037169 0.081703 -0.000000 -0.841127 -0.413664 0.348406
-0.000000 0.081703 0.037169 -0.348406 -0.413664 0.841127
-0.015906 0.097602 0.038400 -0.348406 -0.413664 0.841127
-0.026283 0.081703 0.026283 -0.348406 -0.413664 0.841127
0.026283 0.081703 0.026283 0.348406 -0.413664 0.841127
0.015906 0.097602 0.038400 0.348406 -0.413664 0.841127
-0.000000 0.081703 0.037169 0.348406 -0.413664 0.841127
0.037169 0.081703 0.000000 0.841127 -0.413664 0.348406
0.038400 0.097602 0.015906 0.841127 -0.413664 0.348406
0.026283 0.081703 0.026283 0.841127 -0.413664 0.348406
0.026283 0.081703 -0.026283 0.841127 -0.413664 -0.348406
0.038400 0.097602 -0.015906 0.841127 -0.413664 -0.348406
0.037169 0.081703 0.000000 0.841127 -0.413664 -0.348406
0.000000 0.081703 -0.037169 0.348406 -0.413664 -0.841127
0.015906 0.097602 -0.038400 0.348406 -0.413664 -0.841127
0.026283 0.081703 -0.026283 0.348406 -0.413664 -0.841127
-0.016307 0.114823 -0.039370 -0.213146 -0.075037 -0.974135
-0.000000 0.132396 -0.044292 -0.213146 -0.075037 -0.974135
0.000000 0.114824 -0.042938 -0.213146 -0.075037 -0.974135
-0.039370 0.114823 0.016307 -0.974135 -0.075036 0.213146
-0.044292 0.132396 -0.000000 -0.974135 -0.075036 0.213146
-0.042938 0.114824 -0.000000 -0.974135 -0.075036 0.213146
-0.016307 0.114823 0.039370 -0.538100 -0.075036 0.839534
-0.031319 0.132396 0.031319 -0.538100 -0.075036 0.839534
-0.030362 0.114824 0.030362 -0.538100 -0.075036 0.839534
0.016307 0.114823 0.039370 0.213146 -0.075036 0.974135
-0.000000 0.132396 0.044292 0.213146 -0.075036 0.974135
-0.000000 0.114824 0.042938 0.213146 -0.075036 0.974135
0.039370 0.114823 0.016307 0.839534 -0.075036 0.538100
0.031319 0.132396 0.031319 0.839534 -0.075036 0.538100
0.030362 0.114824 0.030362 0.839534 -0.075036 0.538100
0.039370 0.114823 -0.016307 0.974135 -0.075036 -0.213146
0.044292 0.132396 0.000000 0.974135 -0.075036 -0.213146
0.042938 0.114824 0.000000 0.974135 -0.075036 -0.213146
0.016307 0.114823 -0.039370 0.538100 -0.075036 -0.839534
0.031319 0.132396 -0.031319 0.538100 -0.075036 -0.839534
0.030362 0.114824 -0.030362 0.538100 -0.075036 -0.839534
-0.000000 0.133793 0.042974 0.000000 1.000000 -0.000000
0.042974 0.133793 0.000000 0.000000 1.000000 -0.000000
-0.030387 0.133793 -0.030387 0.000000 1.000000 -0.000000
0.039370 0.114823 -0.016307 0.820749 -0.103861 -0.561768
0.031319 0.132396 -0.031319 0.820749 -0.103861 -0.561768
0.041105 0.132419 -0.017026 0.820749 -0.103861 -0.561768
-0.015906 0.097602 -0.038400 -0.190191 -0.082132 -0.978305
0.000000 0.114824 -0.042938 -0.190191 -0.082132 -0.978305
-0.000000 0.095383 -0.041306 -0.190191 -0.082132 -0.978305
-0.015906 0.097602 -0.038400 -0.538652 -0.059893 -0.840397
-0.030362 0.114824 -0.030362 -0.538652 -0.059893 -0.840397
-0.016307 0.114823 -0.039370 -0.538652 -0.059893 -0.840397
-0.038400 0.097602 -0.015906 -0.826252 -0.082132 -0.557281
-0.030362 0.114824 -0.030362 -0.826252 -0.082132 -0.557281
-0.029208 0.095383 -0.029208 -0.826252 -0.082132 -0.557281
-0.038400 0.097602 -0.015906 -0.975135 -0.059893 -0.213366
-0.042938 0.114824 -0.000000 -0.975135 -0.059893 -0.213366
-0.039370 0.114823 -0.016307 -0.975135 -0.059893 -0.213366
-0.016307 0.114823 -0.039370 -0.561768 -0.103861 -0.820749
-0.031319 0.132396 -0.031319 -0.561768 -0.103861 -0.820749
-0.017026 0.132419 -0.041105 -0.561768 -0.103861 -0.820749
-0.038400 0.097602 0.015906 -0.978306 -0.082132 0.190191
-0.042938 0.114824 -0.000000 -0.978306 -0.082132 0.190191
-0.041306 0.095383 -0.000000 -0.978306 -0.082132 0.190191
-0.038400 0.097602 0.015906 -0.840397 -0.059893 0.538652
-0.030362 0.114824 0.030362 -0.840397 -0.059893 0.538652
-0.039370 0.114823 0.016307 -0.840397 -0.059893 0.538652
-0.039370 0.114823 -0.016307 -0.977588 -0.103861 -0.183127
-0.044292 0.132396 -0.000000 -0.977588 -0.103861 -0.183127
-0.041105 0.132419 -0.017026 -0.977588 -0.103861 -0.183127
-0.015906 0.097602 0.038400 -0.557281 -0.082132 0.826252
-0.030362 0.114824 0.030362 -0.557281 -0.082132 0.826252
-0.029208 0.095383 0.029208 -0.557281 -0.082132 0.826252
-0.015906 0.097602 0.038400 -0.213366 -0.059893 0.975135
-0.000000 0.114824 0.042938 -0.213366 -0.059893 0.975135
-0.016307 0.114823 0.039370 -0.213366 -0.059893 0.975135
-0.039370 0.114823 0.016307 -0.820749 -0.103861 0.561768
-0.031319 0.132396 0.031319 -0.820749 -0.103861 0.561768
-0.041105 0.132419 0.017026 -0.820749 -0.103861 0.561768
0.015906 0.097602 0.038400 0.190191 -0.082132 0.978306
-0.000000 0.114824 0.042938 0.190191 -0.082132 0.978306
-0.000000 0.095383 0.041306 0.190191 -0.082132 0.978306
0.015906 0.097602 0.038400 0.538652 -0.059893 0.840397
0.030362 0.114824 0.030362 0.538652 -0.059893 0.840397
0.016307 0.114823 0.039370 0.538652 -0.059893 0.840397
-0.016307 0.114823 0.039370 -0.183127 -0.103862 0.977587
-0.000000 0.132396 0.044292 -0.183127 -0.103862 0.977587
-0.017026 0.132419 0.041105 -0.183127 -0.103862 0.977587
0.038400 0.097602 0.015906 0.826252 -0.082132 0.557281
0.030362 0.114824 0.030362 0.826252 -0.082132 0.557281
0.029208 0.095383 0.029208 0.826252 -0.082132 0.557281
0.038400 0.097602 0.015906 0.975135 -0.059893 0.213366
0.042938 0.114824 0.000000 0.975135 -0.059893 0.213366
0.039370 0.114823 0.016307 0.975135 -0.059893 0.213366
0.016307 0.114823 0.039370 0.561768 -0.103861 0.820749
0.031319 0.132396 0.031319 0.561768 -0.103861 0.820749
0.017026 0.132419 0.041105 0.561768 -0.103861 0.820749
0.038400 0.097602 -0.015906 0.978305 -0.082132 -0.190191
0.042938 0.114824 0.000000 0.978305 -0.082132 -0.190191
0.041306 0.095383 0.000000 0.978305 -0.082132 -0.190191
0.038400 0.097602 -0.015906 0.840397 -0.059893 -0.538652
0.030362 0.114824 -0.030362 0.840397 -0.059893 -0.538652
0.039370 0.114823 -0.016307 0.840397 -0.059893 -0.538652
0.039370 0.114823 0.016307 0.977588 -0.103861 0.183127
0.044292 0.132396 0.000000 0.977588 -0.103861 0.183127
0.041105 0.132419 0.017026 0.977588 -0.103861 0.183127
0.015906 0.097602 -0.038400 0.557281 -0.082132 -0.826252
0.030362 0.114824 -0.030362 0.557281 -0.082132 -0.826252
0.029208 0.095383 -0.029208 0.557281 -0.082132 -0.826252
0.015906 0.097602 -0.038400 0.213365 -0.059893 -0.975135
0.000000 0.114824 -0.042938 0.213365 -0.059893 -0.975135
0.016307 0.114823 -0.039370 0.213365 -0.059893 -0.975135
0.020941 0.000262 0.020941 0.000000 -1.000000 0.000000
-0.029615 0.000262 -0.000000 0.000000 -1.000000 0.000000
-0.020941 0.000262 -0.020941 0.000000 -1.000000 0.000000
-0.022698 0.003324 -0.022698 -0.739201 -0.599859 -0.306187
-0.029615 0.000262 -0.000000 -0.739201 -0.599859 -0.306187
-0.032100 0.003324 -0.000000 -0.739201 -0.599859 -0.306187
-0.032100 0.003324 -0.000000 -0.739201 -0.599859 0.306187
-0.020941 0.000262 0.020941 -0.739201 -0.599859 0.306187
-0.022698 0.003324 0.022698 -0.739201 -0.599859 0.306187
-0.022698 0.003324 0.022698 -0.306187 -0.599859 0.739201
-0.000000 0.000262 0.029615 -0.306187 -0.599859 0.739201
-0.000000 0.003324 0.032100 -0.306187 -0.599859 0.739201
-0.000000 0.003324 0.032100 0.306187 -0.599859 0.739202
0.020941 0.000262 0.020941 0.306187 -0.599859 0.739202
0.022698 0.003324 0.022698 0.306187 -0.599859 0.739202
0.022698 0.003324 0.022698 0.739201 -0.599859 0.306187
0.029615 0.000262 0.000000 0.739201 -0.599859 0.306187
0.032100 0.003324 0.000000 0.739201 -0.599859 0.306187
0.032100 0.003324 0.000000 0.739202 -0.599859 -0.306187
0.020941 0.000262 -0.020941 0.739202 -0.599859 -0.306187
0.022698 0.003324 -0.022698 0.739202 -0.599859 -0.306187
0.000000 0.003324 -0.032100 0.306187 -0.599859 -0.739201
0.020941 0.000262 -0.020941 0.306187 -0.599859 -0.739201
-0.000000 0.000262 -0.029615 0.306187 -0.599859 -0.739201
-0.000000 0.132396 -0.044292 0.135768 0.669562 -0.730242
0.016535 0.133812 -0.039919 0.135768 0.669562 -0.730242
0.017026 0.132419 -0.041105 0.135768 0.669562 -0.730242
0.031319 0.132396 -0.031319 0.612362 0.669561 -0.420357
0.039919 0.133812 -0.016535 0.612362 0.669561 -0.420357
0.041105 0.132419 -0.017026 0.612362 0.669561 -0.420357
0.044292 0.132396 0.000000 0.730242 0.669562 0.135768
0.039919 0.133812 0.016535 0.730242 0.669562 0.135768
0.041105 0.132419 0.017026 0.730242 0.669562 0.135768
0.031319 0.132396 0.031319 0.420357 0.669561 0.612362
0.016535 0.133812 0.039919 0.420357 0.669561 0.612362
0.017026 0.132419 0.041105 0.420357 0.669561 0.612362
-0.000000 0.132396 0.044292 -0.135768 0.669562 0.730242
-0.016535 0.133812 0.039919 -0.135768 0.669562 0.730242
-0.017026 0.132419 0.041105 -0.135768 0.669562 0.730242
-0.031319 0.132396 0.031319 -0.612362 0.669562 0.420357
-0.039919 0.133812 0.016535 -0.612362 0.669562 0.420357
-0.041105 0.132419 0.017026 -0.612362 0.669562 0.420357
-0.044292 0.132396 -0.000000 -0.730242 0.669562 -0.135768
-0.039919 0.133812 -0.016535 -0.730242 0.669562 -0.135768
-0.041105 0.132419 -0.017026 -0.730242 0.669562 -0.135768
-0.031319 0.132396 -0.031319 -0.420357 0.669561 -0.612362
-0.016535 0.133812 -0.039919 -0.420357 0.669561 -0.612362
-0.017026 0.132419 -0.041105 -0.420357 0.669561 -0.612362
0.016535 0.133812 -0.039919 0.420357 0.669561 -0.612362
0.031319 0.132396 -0.031319 0.420357 0.669561 -0.612362
0.017026 0.132419 -0.041105 0.420357 0.669561 -0.612362
0.039919 0.133812 -0.016535 0.730242 0.669562 -0.135768
0.044292 0.132396 0.000000 0.730242 0.669562 -0.135768
0.041105 0.132419 -0.017026 0.730242 0.669562 -0.135768
0.039919 0.133812 0.016535 0.612362 0.669561 0.420357
0.031319 0.132396 0.031319 0.612362 0.669561 0.420357
0.041105 0.132419 0.017026 0.612362 0.669561 0.420357
0.016535 0.133812 0.039919 0.135767 0.669562 0.730242
-0.000000 0.132396 0.044292 0.135767 0.669562 0.730242
0.017026 0.132419 0.041105 0.135767 0.669562 0.730242
-0.016535 0.133812 0.039919 -0.420357 0.669562 0.612362
-0.031319 0.132396 0.031319 -0.420357 0.669562 0.612362
-0.017026 0.132419 0.041105 -0.420357 0.669562 0.612362
-0.039919 0.133812 0.016535 -0.730242 0.669562 0.135768
-0.044292 0.132396 -0.000000 -0.730242 0.669562 0.135768
-0.041105 0.132419 0.017026 -0.730242 0.669562 0.135768
-0.039919 0.133812 -0.016535 -0.612362 0.669562 -0.420357
-0.031319 0.132396 -0.031319 -0.612362 0.669562 -0.420357
-0.041105 0.132419 -0.017026 -0.612362 0.669562 -0.420357
-0.016535 0.133812 -0.039919 -0.135768 0.669562 -0.730242
-0.000000 0.132396 -0.044292 -0.135768 0.669562 -0.730242
-0.017026 0.132419 -0.041105 -0.135768 0.669562 -0.730242
0.016307 0.114823 -0.039370 0.183127 -0.103861 -0.977587
-0.000000 0.132396 -0.044292 0.183127 -0.103861 -0.977587
0.017026 0.132419 -0.041105 0.183127 -0.103861 -0.977587
0.000000 0.081703 -0.037169 0.382002 -0.059651 -0.922234
0.037169 0.081703 0.000000 0.922234 -0.059651 -0.382002
0.026283 0.081703 0.026283 0.922234 -0.059651 0.382002
-0.000000 0.081703 0.037169 0.382002 -0.059651 0.922234
-0.026283 0.081703 0.026283 -0.382002 -0.059651 0.922234
-0.037169 0.081703 -0.000000 -0.922234 -0.059651 0.382002
-0.000000 0.095383 -0.041306 -0.210439 -0.282961 -0.935761
0.000000 0.081703 -0.037169 -0.210439 -0.282961 -0.935761
-0.015906 0.097602 -0.038400 -0.210439 -0.282961 -0.935761
-0.026283 0.081703 -0.026283 -0.512880 -0.282961 -0.810486
-0.029208 0.095383 -0.029208 -0.512880 -0.282961 -0.810486
-0.015906 0.097602 -0.038400 -0.512880 -0.282961 -0.810486
0.000000 0.081703 -0.037169 -0.382002 -0.059651 -0.922234
-0.026283 0.081703 -0.026283 -0.922234 -0.059651 -0.382002
0.000000 0.003324 -0.032100 -0.306187 -0.599859 -0.739201
-0.000000 0.000262 -0.029615 -0.306187 -0.599859 -0.739201
-0.020941 0.000262 -0.020941 -0.306187 -0.599859 -0.739201
-0.039370 0.114823 -0.016307 -0.820749 -0.103861 -0.561768
-0.041105 0.132419 -0.017026 -0.820749 -0.103861 -0.561768
-0.031319 0.132396 -0.031319 -0.820749 -0.103861 -0.561768
-0.029208 0.095383 -0.029208 -0.810486 -0.282961 -0.512880
-0.026283 0.081703 -0.026283 -0.810486 -0.282961 -0.512880
-0.038400 0.097602 -0.015906 -0.810486 -0.282961 -0.512880
-0.037169 0.081703 -0.000000 -0.935761 -0.282961 -0.210439
-0.041306 0.095383 -0.000000 -0.935761 -0.282961 -0.210439
-0.038400 0.097602 -0.015906 -0.935761 -0.282961 -0.210439
-0.041306 0.095383 -0.000000 -0.935761 -0.282961 0.210439
-0.037169 0.081703 -0.000000 -0.935761 -0.282961 0.210439
-0.038400 0.097602 0.015906 -0.935761 -0.282961 0.210439
-0.026283 0.081703 0.026283 -0.810486 -0.282961 0.512880
-0.029208 0.095383 0.029208 -0.810486 -0.282961 0.512880
-0.038400 0.097602 0.015906 -0.810486 -0.282961 0.512880
-0.029208 0.095383 0.029208 -0.512880 -0.282961 0.810486
-0.026283 0.081703 0.026283 -0.512880 -0.282961 0.810486
-0.015906 0.097602 0.038400 -0.512880 -0.282961 0.810486
-0.000000 0.081703 0.037169 -0.210439 -0.282961 0.935761
-0.000000 0.095383 0.041306 -0.210439 -0.282961 0.935761
-0.015906 0.097602 0.038400 -0.210439 -0.282961 0.935761
-0.000000 0.095383 0.041306 0.210439 -0.282961 0.935761
-0.000000 0.081703 0.037169 0.210439 -0.282961 0.935761
0.015906 0.097602 0.038400 0.210439 -0.282961 0.935761
0.026283 0.081703 0.026283 0.512880 -0.282962 0.810486
0.029208 0.095383 0.029208 0.512880 -0.282962 0.810486
0.015906 0.097602 0.038400 0.512880 -0.282962 0.810486
0.029208 0.095383 0.029208 0.810486 -0.282962 0.512880
0.026283 0.081703 0.026283 0.810486 -0.282962 0.512880
0.038400 0.097602 0.015906 0.810486 -0.282962 0.512880
0.037169 0.081703 0.000000 0.935761 -0.282961 0.210439
0.041306 0.095383 0.000000 0.935761 -0.282961 0.210439
0.038400 0.097602 0.015906 0.935761 -0.282961 0.210439
0.041306 0.095383 0.000000 0.935761 -0.282961 -0.210439
0.037169 0.081703 0.000000 0.935761 -0.282961 -0.210439
0.038400 0.097602 -0.015906 0.935761 -0.282961 -0.210439
0.026283 0.081703 -0.026283 0.810486 -0.282962 -0.512880
0.029208 0.095383 -0.029208 0.810486 -0.282962 -0.512880
0.038400 0.097602 -0.015906 0.810486 -0.282962 -0.512880
0.029208 0.095383 -0.029208 0.512880 -0.282962 -0.810486
0.026283 0.081703 -0.026283 0.512880 -0.282962 -0.810486
0.015906 0.097602 -0.038400 0.512880 -0.282962 -0.810486
0.000000 0.081703 -0.037169 0.210439 -0.282961 -0.935761
-0.000000 0.095383 -0.041306 0.210439 -0.282961 -0.935761
0.015906 0.097602 -0.038400 0.210439 -0.282961 -0.935761
-0.016307 0.114823 -0.039370 -0.183127 -0.103862 -0.977587
-0.017026 0.132419 -0.041105 -0.183127 -0.103862 -0.977587
-0.000000 0.132396 -0.044292 -0.183127 -0.103862 -0.977587
-0.039370 0.114823 0.016307 -0.977587 -0.103861 0.183127
-0.041105 0.132419 0.017026 -0.977587 -0.103861 0.183127
-0.044292 0.132396 -0.000000 -0.977587 -0.103861 0.183127
-0.016307 0.114823 0.039370 -0.561768 -0.103861 0.820749
-0.017026 0.132419 0.041105 -0.561768 -0.103861 0.820749
-0.031319 0.132396 0.031319 -0.561768 -0.103861 0.820749
0.016307 0.114823 0.039370 0.183127 -0.103861 0.977588
0.017026 0.132419 0.041105 0.183127 -0.103861 0.977588
-0.000000 0.132396 0.044292 0.183127 -0.103861 0.977588
0.039370 0.114823 0.016307 0.820749 -0.103861 0.561768
0.041105 0.132419 0.017026 0.820749 -0.103861 0.561768
0.031319 0.132396 0.031319 0.820749 -0.103861 0.561768
0.039370 0.114823 -0.016307 0.977587 -0.103861 -0.183127
0.041105 0.132419 -0.017026 0.977587 -0.103861 -0.183127
0.044292 0.132396 0.000000 0.977587 -0.103861 -0.183127
0.016307 0.114823 -0.039370 0.561768 -0.103861 -0.820749
0.017026 0.132419 -0.041105 0.561768 -0.103861 -0.820749
0.031319 0.132396 -0.031319 0.561768 -0.103861 -0.820749
0.039919 0.133812 -0.016535 -0.005068 0.999985 0.002099
0.030387 0.133793 -0.030387 -0.005068 0.999985 0.002099
0.042974 0.133793 0.000000 -0.005068 0.999985 0.002099
0.016535 0.133812 -0.039919 -0.002099 0.999985 0.005068
0.000000 0.133793 -0.042974 -0.002099 0.999985 0.005068
0.030387 0.133793 -0.030387 -0.002099 0.999985 0.005068
-0.016535 0.133812 -0.039919 0.002099 0.999985 0.005068
-0.030387 0.133793 -0.030387 0.002099 0.999985 0.005068
0.000000 0.133793 -0.042974 0.002099 0.999985 0.005068
-0.039919 0.133812 -0.016535 0.005068 0.999985 0.002099
-0.042974 0.133793 -0.000000 0.005068 0.999985 0.002099
-0.030387 0.133793 -0.030387 0.005068 0.999985 0.002099
-0.039919 0.133812 0.016535 0.005068 0.999985 -0.002099
-0.030387 0.133793 0.030387 0.005068 0.999985 -0.002099
-0.042974 0.133793 -0.000000 0.005068 0.999985 -0.002099
-0.016535 0.133812 0.039919 0.002099 0.999985 -0.005068
-0.000000 0.133793 0.042974 0.002099 0.999985 -0.005068
-0.030387 0.133793 0.030387 0.002099 0.999985 -0.005068
0.016535 0.133812 0.039919 -0.002099 0.999985 -0.005068
0.030387 0.133793 0.030387 -0.002099 0.999985 -0.005068
-0.000000 0.133793 0.042974 -0.002099 0.999985 -0.005068
0.039919 0.133812 0.016535 -0.005068 0.999985 -0.002099
0.042974 0.133793 0.000000 -0.005068 0.999985 -0.002099
0.030387 0.133793 0.030387 -0.005068 0.999985 -0.002099
0.030387 0.133793 -0.030387 -0.000000 1.000000 0.000000
0.000000 0.133793 -0.042974 -0.000000 1.000000 0.000000
-0.042974 0.133793 -0.000000 0.000000 1.000000 0.000000
-0.030387 0.133793 0.030387 0.000000 1.000000 -0.000000
0.030387 0.133793 0.030387 -0.000000 1.000000 -0.000000
0.039370 0.114823 -0.016307 0.839534 -0.075036 -0.538100
0.030362 0.114824 -0.030362 0.839534 -0.075036 -0.538100
0.031319 0.132396 -0.031319 0.839534 -0.075036 -0.538100
-0.015906 0.097602 -0.038400 -0.213366 -0.059893 -0.975135
-0.016307 0.114823 -0.039370 -0.213366 -0.059893 -0.975135
0.000000 0.114824 -0.042938 -0.213366 -0.059893 -0.975135
-0.015906 0.097602 -0.038400 -0.557281 -0.082132 -0.826252
-0.029208 0.095383 -0.029208 -0.557281 -0.082132 -0.826252
-0.030362 0.114824 -0.030362 -0.557281 -0.082132 -0.826252
-0.038400 0.097602 -0.015906 -0.840397 -0.059893 -0.538652
-0.039370 0.114823 -0.016307 -0.840397 -0.059893 -0.538652
-0.030362 0.114824 -0.030362 -0.840397 -0.059893 -0.538652
-0.038400 0.097602 -0.015906 -0.978306 -0.082132 -0.190191
-0.041306 0.095383 -0.000000 -0.978306 -0.082132 -0.190191
-0.042938 0.114824 -0.000000 -0.978306 -0.082132 -0.190191
-0.016307 0.114823 -0.039370 -0.538100 -0.075036 -0.839534
-0.030362 0.114824 -0.030362 -0.538100 -0.075036 -0.839534
-0.031319 0.132396 -0.031319 -0.538100 -0.075036 -0.839534
-0.038400 0.097602 0.015906 -0.975135 -0.059893 0.213366
-0.039370 0.114823 0.016307 -0.975135 -0.059893 0.213366
-0.042938 0.114824 -0.000000 -0.975135 -0.059893 0.213366
-0.038400 0.097602 0.015906 -0.826252 -0.082132 0.557281
-0.029208 0.095383 0.029208 -0.826252 -0.082132 0.557281
-0.030362 0.114824 0.030362 -0.826252 -0.082132 0.557281
-0.039370 0.114823 -0.016307 -0.974135 -0.075036 -0.213146
-0.042938 0.114824 -0.000000 -0.974135 -0.075036 -0.213146
-0.044292 0.132396 -0.000000 -0.974135 -0.075036 -0.213146
-0.015906 0.097602 0.038400 -0.538652 -0.059893 0.840397
-0.016307 0.114823 0.039370 -0.538652 -0.059893 0.840397
-0.030362 0.114824 0.030362 -0.538652 -0.059893 0.840397
-0.015906 0.097602 0.038400 -0.190191 -0.082132 0.978305
-0.000000 0.095383 0.041306 -0.190191 -0.082132 0.978305
-0.000000 0.114824 0.042938 -0.190191 -0.082132 0.978305
-0.039370 0.114823 0.016307 -0.839534 -0.075036 0.538100
-0.030362 0.114824 0.030362 -0.839534 -0.075036 0.538100
-0.031319 0.132396 0.031319 -0.839534 -0.075036 0.538100
0.015906 0.097602 0.038400 0.213365 -0.059893 0.975135
0.016307 0.114823 0.039370 0.213365 -0.059893 0.975135
-0.000000 0.114824 0.042938 0.213365 -0.059893 0.975135
0.015906 0.097602 0.038400 0.557281 -0.082132 0.826252
0.029208 0.095383 0.029208 0.557281 -0.082132 0.826252
0.030362 0.114824 0.030362 0.557281 -0.082132 0.826252
-0.016307 0.114823 0.039370 -0.213146 -0.075036 0.974135
-0.000000 0.114824 0.042938 -0.213146 -0.075036 0.974135
-0.000000 0.132396 0.044292 -0.213146 -0.075036 0.974135
0.038400 0.097602 0.015906 0.840397 -0.059893 0.538652
0.039370 0.114823 0.016307 0.840397 -0.059893 0.538652
0.030362 0.114824 0.030362 0.840397 -0.059893 0.538652
0.038400 0.097602 0.015906 0.978306 -0.082132 0.190191
0.041306 0.095383 0.000000 0.978306 -0.082132 0.190191
0.042938 0.114824 0.000000 0.978306 -0.082132 0.190191
0.016307 0.114823 0.039370 0.538100 -0.075036 0.839534
0.030362 0.114824 0.030362 0.538100 -0.075036 0.839534
0.031319 0.132396 0.031319 0.538100 -0.075036 0.839534
0.038400 0.097602 -0.015906 0.975135 -0.059893 -0.213365
0.039370 0.114823 -0.016307 0.975135 -0.059893 -0.213365
0.042938 0.114824 0.000000 0.975135 -0.059893 -0.213365
0.038400 0.097602 -0.015906 0.826252 -0.082132 -0.557281
0.029208 0.095383 -0.029208 0.826252 -0.082132 -0.557281
0.030362 0.114824 -0.030362 0.826252 -0.082132 -0.557281
0.039370 0.114823 0.016307 0.974135 -0.075036 0.213146
0.042938 0.114824 0.000000 0.974135 -0.075036 0.213146
0.044292 0.132396 0.000000 0.974135 -0.075036 0.213146
0.015906 0.097602 -0.038400 0.538652 -0.059893 -0.840397
0.016307 0.114823 -0.039370 0.538652 -0.059893 -0.840397
0.030362 0.114824 -0.030362 0.538652 -0.059893 -0.840397
0.015906 0.097602 -0.038400 0.190191 -0.082132 -0.978306
-0.000000 0.095383 -0.041306 0.190191 -0.082132 -0.978306
0.000000 0.114824 -0.042938 0.190191 -0.082132 -0.978306
-0.000000 0.000262 -0.029615 -0.000000 -1.000000 0.000000
0.020941 0.000262 -0.020941 -0.000000 -1.000000 0.000000
0.029615 0.000262 0.000000 0.000000 -1.000000 -0.000000
-0.000000 0.000262 0.029615 0.000000 -1.000000 0.000000
-0.020941 0.000262 0.020941 0.000000 -1.000000 0.000000
-0.020941 0.000262 -0.020941 -0.739201 -0.599859 -0.306187
-0.029615 0.000262 -0.000000 -0.739201 -0.599859 0.306187
-0.022698 0.003324 0.022698 -0.306187 -0.599858 0.739202
-0.020941 0.000262 0.020941 -0.306187 -0.599858 0.739202
-0.000000 0.000262 0.029615 -0.306187 -0.599858 0.739202
-0.000000 0.003324 0.032100 0.306187 -0.599859 0.739201
-0.000000 0.000262 0.029615 0.306187 -0.599859 0.739201
0.020941 0.000262 0.020941 0.306187 -0.599859 0.739201
0.022698 0.003324 0.022698 0.739202 -0.599859 0.306187
0.020941 0.000262 0.020941 0.739202 -0.599859 0.306187
0.029615 0.000262 0.000000 0.739202 -0.599859 0.306187
0.032100 0.003324 0.000000 0.739201 -0.599859 -0.306187
0.029615 0.000262 0.000000 0.739201 -0.599859 -0.306187
0.020941 0.000262 -0.020941 0.739201 -0.599859 -0.306187
0.000000 0.003324 -0.032100 0.306187 -0.599859 -0.739202
0.022698 0.003324 -0.022698 0.306187 -0.599859 -0.739202
0.020941 0.000262 -0.020941 0.306187 -0.599859 -0.739202
-0.000000 0.132396 -0.044292 0.132507 0.679878 -0.721254
0.000000 0.133793 -0.042974 0.132507 0.679878 -0.721254
0.016535 0.133812 -0.039919 0.132507 0.679878 -0.721254
0.031319 0.132396 -0.031319 0.603701 0.679877 -0.416308
0.030387 0.133793 -0.030387 0.603701 0.679877 -0.416308
0.039919 0.133812 -0.016535 0.603701 0.679877 -0.416308
0.044292 0.132396 0.000000 0.721254 0.679878 0.132507
0.042974 0.133793 0.000000 0.721254 0.679878 0.132507
0.039919 0.133812 0.016535 0.721254 0.679878 0.132507
0.031319 0.132396 0.031319 0.416308 0.679877 0.603701
0.030387 0.133793 0.030387 0.416308 0.679877 0.603701
0.016535 0.133812 0.039919 0.416308 0.679877 0.603701
-0.000000 0.132396 0.044292 -0.132507 0.679877 0.721255
-0.000000 0.133793 0.042974 -0.132507 0.679877 0.721255
-0.016535 0.133812 0.039919 -0.132507 0.679877 0.721255
-0.031319 0.132396 0.031319 -0.603701 0.679877 0.416307
-0.030387 0.133793 0.030387 -0.603701 0.679877 0.416307
-0.039919 0.133812 0.016535 -0.603701 0.679877 0.416307
-0.044292 0.132396 -0.000000 -0.721254 0.679878 -0.132507
-0.042974 0.133793 -0.000000 -0.721254 0.679878 -0.132507
-0.039919 0.133812 -0.016535 -0.721254 0.679878 -0.132507
-0.031319 0.132396 -0.031319 -0.416308 0.679878 -0.603701
-0.030387 0.133793 -0.030387 -0.416308 0.679878 -0.603701
-0.016535 0.133812 -0.039919 -0.416308 0.679878 -0.603701
0.016535 0.133812 -0.039919 0.416308 0.679877 -0.603701
0.030387 0.133793 -0.030387 0.416308 0.679877 -0.603701
0.031319 0.132396 -0.031319 0.416308 0.679877 -0.603701
0.039919 0.133812 -0.016535 0.721254 0.679878 -0.132507
0.042974 0.133793 0.000000 0.721254 0.679878 -0.132507
0.044292 0.132396 0.000000 0.721254 0.679878 -0.132507
0.039919 0.133812 0.016535 0.603701 0.679877 0.416308
0.030387 0.133793 0.030387 0.603701 0.679877 0.416308
0.031319 0.132396 0.031319 0.603701 0.679877 0.416308
0.016535 0.133812 0.039919 0.132507 0.679877 0.721255
-0.000000 0.133793 0.042974 0.132507 0.679877 0.721255
-0.000000 0.132396 0.044292 0.132507 0.679877 0.721255
-0.016535 0.133812 0.039919 -0.416308 0.679877 0.603701
-0.030387 0.133793 0.030387 -0.416308 0.679877 0.603701
-0.031319 0.132396 0.031319 -0.416308 0.679877 0.603701
-0.039919 0.133812 0.016535 -0.721254 0.679878 0.132507
-0.042974 0.133793 -0.000000 -0.721254 0.679878 0.132507
-0.044292 0.132396 -0.000000 -0.721254 0.679878 0.132507
-0.039919 0.133812 -0.016535 -0.603701 0.679877 -0.416307
-0.030387 0.133793 -0.030387 -0.603701 0.679877 -0.416307
-0.031319 0.132396 -0.031319 -0.603701 0.679877 -0.416307
-0.016535 0.133812 -0.039919 -0.132507 0.679878 -0.721254
0.000000 0.133793 -0.042974 -0.132507 0.679878 -0.721254
-0.000000 0.132396 -0.044292 -0.132507 0.679878 -0.721254
0.016307 0.114823 -0.039370 0.213146 -0.075037 -0.974135
0.000000 0.114824 -0.042938 0.213146 -0.075037 -0.974135
-0.000000 0.132396 -0.044292 0.213146 -0.075037 -0.974135
3 0 1 2
3 3 4 5
3 6 7 8
3 9 10 11
3 12 13 14
3 15 16 17
3 18 19 20
3 21 22 23
3 24 25 26
3 27 28 29
3 30 31 32
3 33 34 35
3 36 37 38
3 39 40 41
3 42 43 44
3 45 46 47
3 48 49 50
3 51 52 53
3 54 55 56
3 57 58 59
3 60 61 62
3 63 64 65
3 66 67 68
3 69 70 71
3 72 73 74
3 75 76 77
3 78 79 80
3 81 82 83
3 84 85 86
3 87 88 89
3 90 91 92
3 93 94 95
3 96 97 98
3 99 100 101
3 102 103 104
3 105 106 107
3 108 109 110
3 111 112 113
3 114 115 116
3 117 118 119
3 120 121 122
3 123 124 125
3 126 127 128
3 129 130 131
3 132 133 134
3 135 136 137
3 138 139 140
3 141 142 143
3 144 145 146
3 147 148 149
3 150 151 152
3 153 154 155
3 156 157 158
3 159 160 161
3 162 163 164
3 165 166 167
3 168 169 170
3 171 172 173
3 174 175 176
3 177 178 179
3 180 181 182
3 183 184 185
3 186 187 188
3 189 190 191
3 192 193 194
3 195 196 197
3 198 199 200
3 201 202 203
3 204 205 206
3 207 208 209
3 210 211 212
3 213 214 215
3 216 217 218
3 219 220 221
3 0 222 1
3 3 223 4
3 6 224 7
3 9 225 10
3 12 226 13
3 15 227 16
3 228 229 230
3 231 232 233
3 21 234 22
3 24 235 25
3 236 237 238
3 239 240 241
3 242 243 244
3 245 246 247
3 248 249 250
3 251 252 253
3 254 255 256
3 257 258 259
3 260 261 262
3 263 264 265
3 266 267 268
3 269 270 271
3 272 273 274
3 275 276 277
3 278 279 280
3 281 282 283
3 284 285 286
3 287 288 289
3 290 291 292
3 293 294 295
3 296 297 298
3 299 300 301
3 302 303 304
3 305 306 307
3 308 309 310
3 311 312 313
3 314 315 316
3 317 318 319
3 320 321 322
3 323 324 325
3 326 327 328
3 329 330 77
3 77 331 75
3 332 75 331
3 333 76 75
3 329 77 76
3 334 335 336
3 337 338 339
3 340 341 342
3 343 344 345
3 346 347 348
3 349 350 351
3 352 353 354
3 355 356 357
3 358 359 360
3 361 362 363
3 364 365 366
3 367 368 369
3 370 371 372
3 373 374 375
3 376 377 378
3 379 380 381
3 382 383 384
3 385 386 387
3 388 389 390
3 391 392 393
3 394 395 396
3 397 398 399
3 400 401 402
3 149 403 404
3 404 405 149
3 147 406 407
3 407 148 147
3 149 405 147
3 150 408 151
3 153 409 154
3 410 411 412
3 413 414 415
3 416 417 418
3 419 420 421
3 422 423 424
3 425 426 427
3 428 429 430
3 431 432 433
3 434 435 436
3 437 438 439
3 440 441 442
3 443 444 445
3 446 447 448
3 449 450 451
3 452 453 454
3 455 456 457
3 458 459 460
3 461 462 463
3 464 465 466
3 467 468 469
3 470 471 472
3 473 474 475
